<svg id="Layer_1" data-name="Layer 1" xmlns="http://www.w3.org/2000/svg" viewBox="0 0 206.17 206.17"><defs><style>.cls-1{fill:#99cff0;}.cls-2{fill:#2e3192;}.cls-3{fill:#27aae1;}.cls-4{fill:#00aeef;}.cls-5{fill:#2b3990;}.cls-6{fill:none;}</style></defs><title>splash</title><path class="cls-1" d="M355.07,384.75a75.21,75.21,0,0,0-63.84-36.35,76.64,76.64,0,0,0-67.37,39.1l-1.34,2.4,1.34,2.4a76.63,76.63,0,0,0,67.37,39.09A75.19,75.19,0,0,0,355.07,395l3.1-5.14Z" transform="translate(-187.21 -261.33)"/><path class="cls-2" d="M290.67,435.9a81.13,81.13,0,0,1-70.73-41.4l-2.59-4.6,2.59-4.6a81.24,81.24,0,0,1,71.32-41.4,80.18,80.18,0,0,1,67.66,38.53h0l4.51,7.47-4.51,7.47a80.19,80.19,0,0,1-67.66,38.52Zm-63-46,.11.19a72.18,72.18,0,0,0,63.41,36.8,71.13,71.13,0,0,0,60-34.17l1.7-2.82-1.7-2.83a71.15,71.15,0,0,0-60-34.17h-.53a72.13,72.13,0,0,0-62.88,36.8Z" transform="translate(-187.21 -261.33)"/><path class="cls-2" d="M236.87,386.87H221.8a2.69,2.69,0,0,0-2.69,2.69v.68a2.7,2.7,0,0,0,2.69,2.69h15.07a2.7,2.7,0,0,0,2.69-2.69v-.68a2.69,2.69,0,0,0-2.69-2.69" transform="translate(-187.21 -261.33)"/><path class="cls-2" d="M236.87,393.43H221.8a3.19,3.19,0,0,1-3.19-3.19v-.68a3.19,3.19,0,0,1,3.19-3.19h15.07a3.19,3.19,0,0,1,3.19,3.19v.68A3.19,3.19,0,0,1,236.87,393.43Zm-15.07-6.06a2.19,2.19,0,0,0-2.19,2.19v.68a2.2,2.2,0,0,0,2.19,2.19h15.07a2.2,2.2,0,0,0,2.19-2.19v-.68a2.2,2.2,0,0,0-2.19-2.19Z" transform="translate(-187.21 -261.33)"/><path class="cls-2" d="M242.73,389.9a3.19,3.19,0,1,1,3.19,3.19,3.19,3.19,0,0,1-3.19-3.19" transform="translate(-187.21 -261.33)"/><path class="cls-2" d="M245.92,393.59a3.69,3.69,0,1,1,3.69-3.69A3.69,3.69,0,0,1,245.92,393.59Zm0-6.38a2.69,2.69,0,1,0,2.69,2.69A2.68,2.68,0,0,0,245.92,387.21Z" transform="translate(-187.21 -261.33)"/><path class="cls-2" d="M224.7,344a5.73,5.73,0,1,1,5.73,5.73A5.72,5.72,0,0,1,224.7,344" transform="translate(-187.21 -261.33)"/><path class="cls-2" d="M333.78,345a7.14,7.14,0,1,1,7.13,7.13,7.14,7.14,0,0,1-7.13-7.13" transform="translate(-187.21 -261.33)"/><path class="cls-2" d="M248.71,446.68a3.2,3.2,0,1,1,3.19,3.19,3.19,3.19,0,0,1-3.19-3.19" transform="translate(-187.21 -261.33)"/><path class="cls-3" d="M228.46,424.22a2,2,0,1,1,2,2,2,2,0,0,1-2-2" transform="translate(-187.21 -261.33)"/><path class="cls-3" d="M304.32,444.71a2,2,0,1,1,2,2,2,2,0,0,1-2-2" transform="translate(-187.21 -261.33)"/><path class="cls-3" d="M338.85,428.16a2,2,0,1,1,2,2,2,2,0,0,1-2-2" transform="translate(-187.21 -261.33)"/><path class="cls-3" d="M348.05,350.37a2,2,0,1,1,2,2,2,2,0,0,1-2-2" transform="translate(-187.21 -261.33)"/><path class="cls-3" d="M311.76,324.67a2,2,0,1,1,2,2,2,2,0,0,1-2-2" transform="translate(-187.21 -261.33)"/><path class="cls-3" d="M251.9,336.66a2,2,0,1,1,2,2,2,2,0,0,1-2-2" transform="translate(-187.21 -261.33)"/><path class="cls-2" d="M344.18,386.87h15.5a2.69,2.69,0,0,1,2.69,2.69v.68a2.7,2.7,0,0,1-2.69,2.69h-15.5a2.7,2.7,0,0,1-2.69-2.69v-.68a2.69,2.69,0,0,1,2.69-2.69" transform="translate(-187.21 -261.33)"/><path class="cls-2" d="M359.68,393.43h-15.5a3.2,3.2,0,0,1-3.19-3.19v-.68a3.19,3.19,0,0,1,3.19-3.19h15.5a3.2,3.2,0,0,1,3.19,3.19v.68A3.21,3.21,0,0,1,359.68,393.43Zm-15.5-6.06a2.2,2.2,0,0,0-2.19,2.19v.68a2.2,2.2,0,0,0,2.19,2.19h15.5a2.2,2.2,0,0,0,2.19-2.19v-.68a2.2,2.2,0,0,0-2.19-2.19Z" transform="translate(-187.21 -261.33)"/><path class="cls-2" d="M337.18,389.9a3.19,3.19,0,1,0-3.19,3.19,3.19,3.19,0,0,0,3.19-3.19" transform="translate(-187.21 -261.33)"/><path class="cls-2" d="M334,393.59a3.7,3.7,0,1,1,3.69-3.69A3.7,3.7,0,0,1,334,393.59Zm0-6.39a2.7,2.7,0,1,0,2.69,2.7A2.7,2.7,0,0,0,334,387.2Z" transform="translate(-187.21 -261.33)"/><rect class="cls-4" x="279.22" y="366.96" width="1.5" height="27.86" transform="translate(-375.02 187.7) rotate(-61.97)"/><rect class="cls-4" x="266.87" y="369.07" width="26.19" height="1.5" transform="translate(-297.82 -141.72) rotate(-20.23)"/><rect class="cls-4" x="303.8" y="360.22" width="1.5" height="34.89" transform="translate(-364.91 63.25) rotate(-44.84)"/><rect class="cls-4" x="287.21" y="401.52" width="34.69" height="1.5" transform="translate(-382.26 70.47) rotate(-44.84)"/><rect class="cls-4" x="279.21" y="395.61" width="1.5" height="26.88" transform="translate(-394.64 238.05) rotate(-66.11)"/><rect class="cls-4" x="265.03" y="394.38" width="29.88" height="1.5" transform="translate(-362.07 -32.46) rotate(-34.6)"/><rect class="cls-4" x="279.21" y="370.88" width="1.5" height="47.08" transform="translate(-351.95 -57.14) rotate(-31.47)"/><rect class="cls-4" x="303.81" y="375.93" width="1.5" height="24.82" transform="translate(-308.99 375.62) rotate(-82.14)"/><rect class="cls-4" x="257" y="383.46" width="45.94" height="1.5" transform="translate(-381.64 153.69) rotate(-57.63)"/><rect class="cls-4" x="104.3" y="125.32" width="1.5" height="27.85"/><path class="cls-5" d="M262.08,374.78a6,6,0,1,1,6,6,6,6,0,0,1-6-6" transform="translate(-187.21 -261.33)"/><path class="cls-5" d="M286.22,366.74a6,6,0,1,1,6,6,6,6,0,0,1-6-6" transform="translate(-187.21 -261.33)"/><path class="cls-5" d="M308.38,390a6,6,0,1,1,6,6,6,6,0,0,1-6-6" transform="translate(-187.21 -261.33)"/><path class="cls-5" d="M286.23,387.36a6,6,0,1,1,6,6,6,6,0,0,1-6-6" transform="translate(-187.21 -261.33)"/><path class="cls-5" d="M263.08,403.58a6,6,0,1,1,6,6,6,6,0,0,1-6-6" transform="translate(-187.21 -261.33)"/><path class="cls-5" d="M286.22,412.06a6,6,0,1,1,6,6,6,6,0,0,1-6-6" transform="translate(-187.21 -261.33)"/><rect class="cls-6" width="206.17" height="206.17"/></svg>