<svg id="Layer_1" data-name="Layer 1" xmlns="http://www.w3.org/2000/svg" viewBox="0 0 313.89 313.89"><defs><style>.cls-1{opacity:0;}.cls-2{fill:#64cdf6;}.cls-3{fill:#19a8e0;}.cls-4{fill:#63cdf6;}.cls-5{fill:#2e3192;}</style></defs><title>avl</title><g class="cls-1"><rect class="cls-2" width="313.89" height="313.89"/></g><line class="cls-3" x1="112.45" y1="59.28" x2="92.91" y2="84.25"/><rect class="cls-3" x="224.03" y="185.29" width="31.71" height="2" transform="translate(-191.87 145.84) rotate(-51.95)"/><rect class="cls-3" x="228.99" y="191.52" width="2.23" height="14.51" transform="translate(-205.46 142.91) rotate(-51.94)"/><line class="cls-3" x1="135.3" y1="59.5" x2="155.64" y2="85.28"/><rect class="cls-3" x="281.67" y="170.5" width="2" height="32.84" transform="translate(-192.22 100.79) rotate(-38.28)"/><rect class="cls-3" x="285.59" y="198.69" width="14.51" height="2.23" transform="translate(-198.02 109.86) rotate(-38.28)"/><line class="cls-3" x1="156.95" y1="116.75" x2="137.05" y2="142.12"/><rect class="cls-3" x="268.08" y="242.96" width="32.24" height="2" transform="translate(-220.34 202.54) rotate(-51.9)"/><rect class="cls-3" x="273.13" y="249.39" width="2.23" height="14.51" transform="translate(-234.13 199.6) rotate(-51.9)"/><line class="cls-3" x1="179.76" y1="117.04" x2="201.26" y2="145.07"/><rect class="cls-3" x="326.71" y="227.92" width="2" height="35.32" transform="translate(-218.98 135.61) rotate(-37.48)"/><rect class="cls-3" x="331.2" y="258.48" width="14.51" height="2.23" transform="translate(-225.29 145.04) rotate(-37.48)"/><line class="cls-3" x1="201.35" y1="177.17" x2="181.58" y2="202.18"/><path class="cls-3" d="M318.78,317.7a1,1,0,0,1-.62-.21,1,1,0,0,1-.16-1.41l19.77-25a1,1,0,0,1,1.41-.16,1,1,0,0,1,.16,1.4l-19.77,25A1,1,0,0,1,318.78,317.7Z" transform="translate(-137.2 -114.53)"/><rect class="cls-3" x="317.67" y="309.45" width="2.23" height="14.51" transform="translate(-264.55 255.91) rotate(-51.68)"/><line class="cls-3" x1="223.63" y1="177.15" x2="243.51" y2="203.27"/><rect class="cls-3" x="369.77" y="288.32" width="2" height="32.83" transform="translate(-246.02 172.25) rotate(-37.27)"/><rect class="cls-3" x="373.46" y="316.68" width="14.51" height="2.23" transform="translate(-251.9 180.84) rotate(-37.26)"/><polygon class="cls-4" points="123.78 23.11 104.28 37.27 111.73 60.19 135.82 60.19 143.27 37.27 123.78 23.11"/><polygon class="cls-4" points="81.54 80.94 62.04 95.1 69.49 118.01 93.58 118.01 101.03 95.1 81.54 80.94"/><polygon class="cls-4" points="168.38 80.94 148.88 95.1 156.33 118.01 180.43 118.01 187.87 95.1 168.38 80.94"/><polygon class="cls-4" points="254.74 199.49 235.25 213.65 242.69 236.56 266.79 236.56 274.23 213.65 254.74 199.49"/><polygon class="cls-4" points="171.35 198.69 151.86 212.85 159.31 235.76 183.4 235.76 190.85 212.85 171.35 198.69"/><polygon class="cls-4" points="212.57 141.28 193.07 155.44 200.52 178.36 224.62 178.36 232.06 155.44 212.57 141.28"/><polygon class="cls-4" points="125.42 138.41 105.93 152.57 113.38 175.49 137.47 175.49 144.92 152.57 125.42 138.41"/><path class="cls-5" d="M263.14,152.05h-3.88l-.39,2.61a5.57,5.57,0,0,1,.83-.06,4.36,4.36,0,0,1,2.19.54,2.92,2.92,0,0,1,1.45,2.61,3.52,3.52,0,0,1-3.78,3.47,5,5,0,0,1-2.53-.62l.34-1a4.54,4.54,0,0,0,2.17.56,2.24,2.24,0,0,0,2.41-2.2c0-1.31-.89-2.25-2.92-2.25a10,10,0,0,0-1.41.11l.66-4.88h4.86Z" transform="translate(-137.2 -114.53)"/><path class="cls-5" d="M308.38,210.18v.91L304,220.34h-1.42l4.41-9v0h-5v-1.14Z" transform="translate(-137.2 -114.53)"/><path class="cls-5" d="M264.13,268.12a5.56,5.56,0,0,0-1,.06,4.12,4.12,0,0,0-3.53,3.61h0a3.1,3.1,0,0,1,5.52,2.11,3.4,3.4,0,0,1-3.38,3.58c-2.17,0-3.59-1.69-3.59-4.33a6.39,6.39,0,0,1,1.72-4.58,5.59,5.59,0,0,1,3.25-1.5,6.7,6.7,0,0,1,1-.07Zm-.39,5.86a2.07,2.07,0,0,0-2.1-2.33,2.26,2.26,0,0,0-2,1.25,1.13,1.13,0,0,0-.16.61c0,1.67.8,2.91,2.23,2.91C262.94,276.42,263.74,275.43,263.74,274Z" transform="translate(-137.2 -114.53)"/><path class="cls-5" d="M346.51,279.54a5.63,5.63,0,0,0,1.11-.05,3.75,3.75,0,0,0,2.13-1,4.48,4.48,0,0,0,1.34-2.7h0a3,3,0,0,1-2.39,1.09,2.94,2.94,0,0,1-3-3.11,3.48,3.48,0,0,1,3.47-3.61c2.08,0,3.36,1.69,3.36,4.28a6.42,6.42,0,0,1-1.75,4.77,5.14,5.14,0,0,1-3,1.36,6.76,6.76,0,0,1-1.27.08Zm.5-5.84a2,2,0,0,0,1.95,2.15,2.25,2.25,0,0,0,2-1.06.88.88,0,0,0,.13-.5c0-1.73-.64-3.06-2.08-3.06C347.84,271.23,347,272.26,347,273.7Z" transform="translate(-137.2 -114.53)"/><path class="cls-5" d="M388.9,330.4h0l-1.76,1-.27-1,2.22-1.19h1.17v10.15H388.9Z" transform="translate(-137.2 -114.53)"/><path class="cls-5" d="M400.68,334.09c0,3.45-1.28,5.36-3.53,5.36-2,0-3.32-1.86-3.36-5.22s1.47-5.28,3.54-5.28S400.68,330.85,400.68,334.09Zm-5.51.15c0,2.64.81,4.14,2.06,4.14,1.41,0,2.08-1.64,2.08-4.23s-.64-4.14-2.06-4.14C396,330,395.17,331.48,395.17,334.24Z" transform="translate(-137.2 -114.53)"/><path class="cls-5" d="M303.93,334.67a2.89,2.89,0,0,1,2-2.71v0a2.51,2.51,0,0,1-1.61-2.28,2.85,2.85,0,0,1,3.14-2.71c2,0,3,1.24,3,2.5a2.58,2.58,0,0,1-1.67,2.38v.05a2.81,2.81,0,0,1,2.05,2.62c0,1.77-1.52,2.95-3.46,2.95C305.21,337.42,303.93,336.16,303.93,334.67Zm5.47-.06c0-1.23-.86-1.83-2.24-2.22a2.22,2.22,0,0,0-1.83,2.1,1.88,1.88,0,0,0,2,1.93A1.84,1.84,0,0,0,309.4,334.61Zm-3.78-5.08c0,1,.76,1.57,1.93,1.88a2,2,0,0,0,1.55-1.85,1.57,1.57,0,0,0-1.72-1.65A1.61,1.61,0,0,0,305.62,329.53Z" transform="translate(-137.2 -114.53)"/><path class="cls-5" d="M219,219.21v-2.76h-4.72v-.91l4.53-6.48h1.49v6.31h1.42v1.08h-1.42v2.76Zm0-3.84V212c0-.53,0-1.06,0-1.59h0c-.31.59-.56,1-.84,1.5l-2.49,3.45v0Z" transform="translate(-137.2 -114.53)"/><path class="cls-3" d="M329.46,206.83l-.61-.79a33.11,33.11,0,0,0,12.65-23.3,37.41,37.41,0,0,0-7.84-26.58c-11.54-14.89-31.61-19.09-46.69-9.76l-.52-.85c15.51-9.6,36.14-5.3,48,10a38.4,38.4,0,0,1,8.05,27.28A34.13,34.13,0,0,1,329.46,206.83Z" transform="translate(-137.2 -114.53)"/><polygon class="cls-3" points="154.41 36.9 146.65 33.44 146.44 24.94 146.48 24.92 154.45 36.87 154.41 36.9"/><path class="cls-3" d="M193.89,202.51a35.6,35.6,0,0,1,46.42-53.84l-.62.79a34.6,34.6,0,0,0-45.11,52.33Z" transform="translate(-137.2 -114.53)"/><polygon class="cls-3" points="61.08 81.52 59.67 89.9 51.5 92.23 51.47 92.2 61.04 81.48 61.08 81.52"/></svg>