<svg id="Layer_1" data-name="Layer 1" xmlns="http://www.w3.org/2000/svg" viewBox="0 0 242.48 242.48"><defs><style>.cls-1{fill:#2e3192;}.cls-2{fill:#00aeef;}.cls-3{opacity:0;}.cls-4{fill:none;}</style></defs><title>bfs</title><rect class="cls-1" x="366.79" y="245.45" width="28.41" height="2" transform="translate(-329.5 225.85) rotate(-51.95)"/><rect class="cls-1" x="371.24" y="251.14" width="2" height="13" transform="translate(-341.68 223.21) rotate(-51.94)"/><rect class="cls-1" x="418.34" y="232.3" width="2" height="29.43" transform="translate(-344.46 144.2) rotate(-38.28)"/><rect class="cls-1" x="421.96" y="257.56" width="13" height="2" transform="translate(-349.66 152.3) rotate(-38.28)"/><rect class="cls-1" x="330.45" y="294.01" width="28.89" height="2" transform="translate(-381.67 215.66) rotate(-51.9)"/><rect class="cls-1" x="334.98" y="299.88" width="2" height="13" transform="translate(-394.02 213.03) rotate(-51.9)"/><rect class="cls-1" x="457.83" y="284.04" width="2" height="28.79" transform="translate(-368.47 172.1) rotate(-37.48)"/><rect class="cls-1" x="461.09" y="308.86" width="13" height="2" transform="translate(-373.61 179.8) rotate(-37.48)"/><path class="cls-1" d="M412.55,309.2a1,1,0,0,1-.62-.21,1,1,0,0,1-.16-1.41l19-24.05a1,1,0,1,1,1.56,1.24l-19,24.05A1,1,0,0,1,412.55,309.2Z" transform="translate(-281.6 -168.72)"/><rect class="cls-1" x="411.55" y="301.7" width="2" height="13" transform="translate(-366.69 271.9) rotate(-51.66)"/><polygon class="cls-2" points="118.31 34.13 100.84 46.82 107.51 67.35 129.1 67.35 135.77 46.82 118.31 34.13"/><polygon class="cls-2" points="80.46 85.94 62.99 98.63 69.66 119.17 91.25 119.17 97.92 98.63 80.46 85.94"/><polygon class="cls-2" points="158.27 85.94 140.8 98.63 147.47 119.17 169.06 119.17 175.74 98.63 158.27 85.94"/><polygon class="cls-2" points="119.44 135.04 101.97 147.73 108.64 168.26 130.23 168.26 136.91 147.73 119.44 135.04"/><polygon class="cls-2" points="197.42 137.28 179.95 149.97 186.62 170.51 208.21 170.51 214.88 149.97 197.42 137.28"/><polygon class="cls-2" points="43.12 133 25.66 145.69 32.33 166.22 53.92 166.22 60.59 145.69 43.12 133"/><path class="cls-1" d="M398,221.29l-.84,2.54h-1.08l2.75-8.08h1.26l2.76,8.08h-1.12l-.86-2.54Zm2.65-.81-.79-2.33c-.18-.53-.3-1-.42-1.48h0c-.12.48-.25,1-.41,1.47l-.79,2.34Z" transform="translate(-281.6 -168.72)"/><path class="cls-1" d="M442.4,276.69a5,5,0,0,1-2.13.39,3.78,3.78,0,0,1-4-4.09,4,4,0,0,1,4.23-4.25,4.35,4.35,0,0,1,1.91.36l-.25.85a3.82,3.82,0,0,0-1.63-.33,3,3,0,0,0-3.15,3.33,2.94,2.94,0,0,0,3.1,3.25,4.27,4.27,0,0,0,1.71-.33Z" transform="translate(-281.6 -168.72)"/><path class="cls-1" d="M320.61,316a14.3,14.3,0,0,1,2.21-.17,4.65,4.65,0,0,1,3.28,1,3.71,3.71,0,0,1,1.14,2.9,4.25,4.25,0,0,1-1.17,3.14A4.94,4.94,0,0,1,322.5,324a16.84,16.84,0,0,1-1.89-.09Zm1,7.15a7.83,7.83,0,0,0,1.05.05,3.1,3.1,0,0,0,3.45-3.42c0-1.91-1.07-3.12-3.28-3.12a6,6,0,0,0-1.22.1Z" transform="translate(-281.6 -168.72)"/><path class="cls-1" d="M475.67,320.07H480v.87h-3.31v2.69h3.06v.86h-3.06v3.66h-1Z" transform="translate(-281.6 -168.72)"/><path class="cls-1" d="M401.8,321.48h-3.14v3h3.5v.89h-4.54V317.1H402V318h-3.32v2.61h3.14Z" transform="translate(-281.6 -168.72)"/><path class="cls-1" d="M358.73,268a10.64,10.64,0,0,1,1.91-.16,3.36,3.36,0,0,1,2.21.58,1.72,1.72,0,0,1,.68,1.43,1.94,1.94,0,0,1-1.37,1.78v0a2.08,2.08,0,0,1,1.67,2,2.19,2.19,0,0,1-.69,1.62,4.07,4.07,0,0,1-2.79.75,14.11,14.11,0,0,1-1.62-.09Zm1,3.31h1c1.1,0,1.75-.57,1.75-1.35,0-.95-.72-1.32-1.77-1.32a5.13,5.13,0,0,0-.93.07Zm0,3.88a6.52,6.52,0,0,0,.88.05c1.08,0,2.07-.4,2.07-1.58s-1-1.55-2.08-1.55h-.87Z" transform="translate(-281.6 -168.72)"/><rect class="cls-2" x="94.39" y="116.34" width="47.81" height="2"/><polygon class="cls-2" points="138.22 120.73 141.61 117.34 138.22 113.95 141.1 113.95 144.49 117.34 141.1 120.73 138.22 120.73"/><rect class="cls-2" x="57.61" y="165.22" width="44.08" height="2"/><polygon class="cls-2" points="97.71 169.62 101.1 166.22 97.71 162.83 100.59 162.83 103.98 166.22 100.59 169.62 97.71 169.62"/><rect class="cls-2" x="134.03" y="167.26" width="46.98" height="2"/><polygon class="cls-2" points="177.03 171.66 180.42 168.26 177.03 164.87 179.91 164.87 183.3 168.26 179.91 171.66 177.03 171.66"/><rect class="cls-2" x="368.69" y="241.04" width="15.42" height="2" transform="translate(-331.03 210.88) rotate(-50.65)"/><polygon class="cls-2" points="89.82 74.04 90.29 78.82 95.06 78.34 93.24 80.57 88.47 81.04 88 76.27 89.82 74.04"/><rect class="cls-2" x="345.66" y="300.36" width="95.18" height="2" transform="translate(-338 -75.38) rotate(-12.64)"/><polygon class="cls-2" points="68.36 138.87 65.8 142.92 69.85 145.49 67.04 146.12 62.99 143.55 65.56 139.5 68.36 138.87"/><g class="cls-3"><rect class="cls-4" width="242.48" height="242.48"/></g></svg>