<svg id="Layer_1" data-name="Layer 1" xmlns="http://www.w3.org/2000/svg" viewBox="0 0 313.89 313.89"><defs><style>.cls-1{opacity:0;}.cls-2{fill:#64cdf6;}.cls-3{fill:#19a8e0;}.cls-4{fill:#63cdf6;}.cls-5{fill:#443996;}</style></defs><title>bst</title><g class="cls-1"><rect class="cls-2" width="313.89" height="313.89"/></g><rect class="cls-3" x="235.12" y="331.86" width="34.69" height="2" transform="translate(-291.64 54.33) rotate(-51.96)"/><rect class="cls-3" x="240.55" y="338.59" width="2.44" height="15.87" transform="translate(-306.49 51.03) rotate(-51.94)"/><line class="cls-3" x1="161.78" y1="47.19" x2="184.04" y2="75.39"/><rect class="cls-3" x="298.29" y="315.58" width="2" height="35.93" transform="translate(-268.66 -15.12) rotate(-38.28)"/><rect class="cls-3" x="302.48" y="346.43" width="15.87" height="2.44" transform="translate(-275.01 -5.2) rotate(-38.28)"/><line class="cls-3" x1="140" y1="171.01" x2="118.23" y2="198.77"/><rect class="cls-3" x="237.85" y="456.15" width="35.28" height="2" transform="translate(-388.28 103.86) rotate(-51.9)"/><rect class="cls-3" x="243.39" y="463.1" width="2.44" height="15.87" transform="translate(-403.35 100.5) rotate(-51.89)"/><line class="cls-3" x1="210.43" y1="110.14" x2="233.95" y2="140.81"/><rect class="cls-3" x="347.57" y="378.41" width="2" height="38.65" transform="translate(-296.44 21.98) rotate(-37.48)"/><rect class="cls-3" x="352.39" y="411.84" width="15.87" height="2.44" transform="translate(-303.34 32.3) rotate(-37.48)"/><line class="cls-3" x1="185.56" y1="109.52" x2="163.93" y2="136.89"/><path class="cls-3" d="M290.3,410.14a1.05,1.05,0,0,1-.62-.21,1,1,0,0,1-.16-1.41l21.64-27.36a1,1,0,1,1,1.56,1.24l-21.63,27.37A1,1,0,0,1,290.3,410.14Z" transform="translate(-126.38 -272.26)"/><rect class="cls-3" x="289.08" y="401.21" width="2.44" height="15.87" transform="translate(-337.06 110.76) rotate(-51.66)"/><line class="cls-3" x1="162.89" y1="173.31" x2="184.64" y2="201.9"/><rect class="cls-3" x="299.14" y="441.91" width="2" height="35.92" transform="translate(-343.58 3.44) rotate(-37.27)"/><rect class="cls-3" x="303.08" y="472.93" width="15.87" height="2.44" transform="translate(-349.97 12.82) rotate(-37.26)"/><polygon class="cls-4" points="149.18 7.37 127.85 22.86 135.99 47.93 162.36 47.93 170.5 22.86 149.18 7.37"/><polygon class="cls-4" points="102.96 70.64 81.63 86.13 89.78 111.21 116.14 111.21 124.29 86.13 102.96 70.64"/><polygon class="cls-4" points="197.98 70.64 176.65 86.13 184.8 111.21 211.16 111.21 219.31 86.13 197.98 70.64"/><polygon class="cls-4" points="196.93 197.76 175.6 213.25 183.75 238.33 210.11 238.33 218.26 213.25 196.93 197.76"/><polygon class="cls-4" points="150.94 133.03 129.61 148.53 137.76 173.6 164.12 173.6 172.27 148.53 150.94 133.03"/><polygon class="cls-4" points="246.33 136.66 225 152.16 233.15 177.23 259.51 177.23 267.66 152.16 246.33 136.66"/><polygon class="cls-4" points="104.94 195.44 83.62 210.93 91.76 236 118.13 236 126.27 210.93 104.94 195.44"/><path class="cls-5" d="M275.93,305.25v-3h-5.16v-1l5-7.09h1.63V301h1.55v1.18h-1.55v3Zm0-4.21v-3.71c0-.58,0-1.16.05-1.74h-.05c-.34.65-.62,1.13-.92,1.64L272.29,301v0Z" transform="translate(-126.38 -272.26)"/><path class="cls-5" d="M320.07,367.3a3.18,3.18,0,0,1,2.2-3v-.05a2.75,2.75,0,0,1-1.76-2.49c0-1.76,1.48-3,3.43-3,2.15,0,3.23,1.35,3.23,2.73a2.82,2.82,0,0,1-1.83,2.6v.05a3.08,3.08,0,0,1,2.24,2.87c0,1.94-1.65,3.23-3.77,3.23C321.47,370.3,320.07,368.92,320.07,367.3Zm6-.07c0-1.35-.94-2-2.44-2.43a2.42,2.42,0,0,0-2,2.29,2.05,2.05,0,0,0,2.22,2.12A2,2,0,0,0,326.05,367.23Zm-4.13-5.56c0,1.11.83,1.71,2.11,2.05a2.18,2.18,0,0,0,1.7-2,1.73,1.73,0,0,0-1.88-1.81A1.76,1.76,0,0,0,321.92,361.67Z" transform="translate(-126.38 -272.26)"/><path class="cls-5" d="M232.59,485h-4.24l-.43,2.85a6.61,6.61,0,0,1,.91-.07,4.69,4.69,0,0,1,2.39.6,3.19,3.19,0,0,1,1.59,2.86,3.85,3.85,0,0,1-4.14,3.79,5.43,5.43,0,0,1-2.76-.68l.37-1.15a5,5,0,0,0,2.38.62,2.45,2.45,0,0,0,2.63-2.41c0-1.44-1-2.46-3.2-2.46a11.59,11.59,0,0,0-1.53.12l.71-5.34h5.32Z" transform="translate(-126.38 -272.26)"/><path class="cls-5" d="M369.16,434.89a5.89,5.89,0,0,0,1.21-.05,4.17,4.17,0,0,0,2.32-1.08,4.8,4.8,0,0,0,1.47-2.95h-.05a3.34,3.34,0,0,1-5.89-2.21,3.8,3.8,0,0,1,3.79-3.94c2.27,0,3.67,1.84,3.67,4.68a7,7,0,0,1-1.91,5.21,5.54,5.54,0,0,1-3.23,1.49,7.14,7.14,0,0,1-1.38.08Zm.54-6.39a2.14,2.14,0,0,0,2.14,2.36A2.51,2.51,0,0,0,374,429.7a1.06,1.06,0,0,0,.13-.55c0-1.9-.7-3.35-2.27-3.35C370.61,425.8,369.7,426.93,369.7,428.5Z" transform="translate(-126.38 -272.26)"/><path class="cls-5" d="M323.94,486.56v1l-4.83,10.12h-1.56l4.82-9.83v0h-5.43v-1.25Z" transform="translate(-126.38 -272.26)"/><path class="cls-5" d="M279.14,421.4a5.16,5.16,0,0,0-1.13.07,4.55,4.55,0,0,0-3.86,4h.05a3.27,3.27,0,0,1,2.68-1.31,3.33,3.33,0,0,1,3.35,3.66,3.76,3.76,0,0,1-3.69,4c-2.37,0-3.93-1.88-3.93-4.83a7.19,7.19,0,0,1,1.88-5.1,6,6,0,0,1,3.55-1.68,7,7,0,0,1,1.1-.08Zm-.43,6.53c0-1.62-.9-2.59-2.29-2.59a2.47,2.47,0,0,0-2.15,1.39,1.37,1.37,0,0,0-.17.68c0,1.87.87,3.24,2.44,3.24C277.84,430.65,278.71,429.56,278.71,427.93Z" transform="translate(-126.38 -272.26)"/><path class="cls-5" d="M225.29,367.17a5.08,5.08,0,0,0,2.46.7c1.93,0,2.53-1.23,2.51-2.15,0-1.56-1.42-2.23-2.87-2.23h-.84v-1.12h.84c1.1,0,2.48-.57,2.48-1.88,0-.89-.56-1.68-2-1.68a4,4,0,0,0-2.22.74l-.39-1.1a5.34,5.34,0,0,1,2.9-.85c2.19,0,3.18,1.3,3.18,2.65a2.75,2.75,0,0,1-2,2.61v0a2.88,2.88,0,0,1,2.48,2.85c0,1.78-1.39,3.33-4,3.33a5.65,5.65,0,0,1-2.89-.75Z" transform="translate(-126.38 -272.26)"/><line class="cls-3" x1="172.69" y1="44.64" x2="186.2" y2="61.76"/><rect class="cls-3" x="304.82" y="314.56" width="2" height="21.8" transform="translate(-262.25 -12.81) rotate(-38.28)"/><polygon class="cls-3" points="179.94 60.51 185.75 61.19 186.44 55.38 188.62 58.14 187.93 63.95 182.12 63.27 179.94 60.51"/><line class="cls-3" x1="174.49" y1="172.23" x2="188" y2="189.35"/><rect class="cls-3" x="306.62" y="442.15" width="2" height="21.8" transform="translate(-340.91 15.74) rotate(-38.28)"/><polygon class="cls-3" points="181.74 188.09 187.55 188.78 188.24 182.96 190.41 185.72 189.73 191.54 183.92 190.85 181.74 188.09"/><line class="cls-3" x1="172.16" y1="109.12" x2="160.22" y2="123.68"/><rect class="cls-3" x="283.15" y="387.66" width="18.83" height="2" transform="translate(-319.86 96.17) rotate(-50.65)"/><polygon class="cls-3" points="160.1 117.29 160.68 123.12 166.51 122.55 164.28 125.26 158.45 125.84 157.87 120.01 160.1 117.29"/></svg>