<svg id="Layer_1" data-name="Layer 1" xmlns="http://www.w3.org/2000/svg" viewBox="0 0 313.89 313.89"><defs><style>.cls-1,.cls-2{fill:#59d2fe;}.cls-1{opacity:0;}.cls-3{fill:#01a9e6;}.cls-4{fill:#be1e2e;}.cls-5{fill:#de8d95;}.cls-6{fill:#edc3c8;}</style></defs><title>bubblesort</title><rect class="cls-1" width="313.89" height="313.89"/><path class="cls-2" d="M432.26,297.53a24.58,24.58,0,1,1-24.53-24.65A24.54,24.54,0,0,1,432.26,297.53Zm-6.49,1.74c1.3.16,1.52-.42,1.22-1.29a21,21,0,0,0-20.13-19.85c-.58,0-1,0-1,.8,0,.62-.05,1.11.88,1.17a19.37,19.37,0,0,1,8.33,2.34,18.82,18.82,0,0,1,9.95,16C425.07,299,425.19,299.2,425.77,299.27Z" transform="translate(-138.52 -222.18)"/><path class="cls-2" d="M409.55,344.14c-.3.29-1.19-.52-1.31.67-.11,1,.34,1.35,1.24,1.36.32,0,.63.06.95.09a24.56,24.56,0,0,1,17.68,9.36,23.9,23.9,0,0,1,5.59,15.08c0,.59.15,1,.87,1,.89,0,1.33-.17,1.25-1.19a30.51,30.51,0,0,0-2.16-9.52A27.59,27.59,0,0,0,409.55,344.14Zm-.93-5.05a33.71,33.71,0,1,1-34,33.72A33.58,33.58,0,0,1,408.62,339.09Z" transform="translate(-138.52 -222.18)"/><path class="cls-3" d="M409.55,344.14A27.59,27.59,0,0,1,433.66,361a30.51,30.51,0,0,1,2.16,9.52c.08,1-.36,1.23-1.25,1.19-.72,0-.85-.41-.87-1a23.9,23.9,0,0,0-5.59-15.08,24.56,24.56,0,0,0-17.68-9.36c-.32,0-.63-.09-.95-.09-.9,0-1.35-.33-1.24-1.36C408.36,343.62,409.25,344.43,409.55,344.14Z" transform="translate(-138.52 -222.18)"/><path class="cls-3" d="M406.75,280.1c-.93-.06-.84-.55-.88-1.17,0-.78.41-.83,1-.8A21,21,0,0,1,427,298c.3.87.08,1.45-1.22,1.29-.58-.07-.7-.31-.74-.82a18.82,18.82,0,0,0-9.95-16A19.37,19.37,0,0,0,406.75,280.1Z" transform="translate(-138.52 -222.18)"/><path class="cls-3" d="M408.62,339.09A33.71,33.71,0,1,0,442,372.84,33.69,33.69,0,0,0,408.62,339.09Zm-36,33.59a35.71,35.71,0,1,1,35.69,35.81A35.64,35.64,0,0,1,372.59,372.68Z" transform="translate(-138.52 -222.18)"/><path class="cls-2" d="M372,290c0,18.14-15.14,32.93-32.74,32.58-17.76.32-32.93-14.84-32.68-33.12.24-17.28,14.57-32.27,32.68-32.23A32.72,32.72,0,0,1,372,290Zm-8.57,2.3c1.13,0,1.22-.18,1.06-1.91a27.72,27.72,0,0,0-26.34-25.68c-.47.1-1.16-.28-1.21.69s.12,1.4,1.26,1.45a24.5,24.5,0,0,1,19.5,10.55,23.25,23.25,0,0,1,4.7,13.82C362.44,292,362.65,292.31,363.46,292.29Z" transform="translate(-138.52 -222.18)"/><path class="cls-2" d="M339.12,356a25.32,25.32,0,1,1-26,25.23C313,367.59,324.76,355.62,339.12,356Zm19.09,24.6c1,.12,1.55-.19,1.33-1.31-.08-.63-.16-1.27-.26-1.9a20.63,20.63,0,0,0-6.94-12.64,21.2,21.2,0,0,0-12.61-5.22c-.55-.05-1.32-.37-1.35.76,0,.93.13,1.43,1.21,1.33a7.73,7.73,0,0,1,1.9.2A19,19,0,0,1,356.93,376a38.87,38.87,0,0,1,.63,4C357.63,380.41,357.76,380.59,358.21,380.64Z" transform="translate(-138.52 -222.18)"/><path class="cls-4" d="M340.6,255.27l-.07,0a.07.07,0,0,1,0,0Z" transform="translate(-138.52 -222.18)"/><path class="cls-5" d="M340.56,255.09a.19.19,0,0,1,0,.18h-.08A.26.26,0,0,1,340.56,255.09Z" transform="translate(-138.52 -222.18)"/><path class="cls-4" d="M338.27,255.47a.23.23,0,0,1-.13-.18l2.38,0a.07.07,0,0,0,0,0A2.23,2.23,0,0,1,338.27,255.47Z" transform="translate(-138.52 -222.18)"/><path class="cls-3" d="M339.59,361.66c-1.08.1-1.24-.4-1.21-1.33,0-1.13.8-.81,1.35-.76a21.2,21.2,0,0,1,12.61,5.22,20.63,20.63,0,0,1,6.94,12.64c.1.63.18,1.27.26,1.9.22,1.12-.3,1.43-1.33,1.31-.45-.05-.58-.23-.65-.66a38.87,38.87,0,0,0-.63-4,19,19,0,0,0-15.44-14.11A7.73,7.73,0,0,0,339.59,361.66Z" transform="translate(-138.52 -222.18)"/><path class="cls-3" d="M337,265.39c0-1,.74-.59,1.21-.69a27.72,27.72,0,0,1,26.34,25.68c.16,1.73.07,1.87-1.06,1.91-.81,0-1-.33-1-1.08a23.25,23.25,0,0,0-4.7-13.82,24.5,24.5,0,0,0-19.5-10.55C337.09,266.79,336.91,266.35,337,265.39Z" transform="translate(-138.52 -222.18)"/><path class="cls-5" d="M338.16,255.09h2.4a.26.26,0,0,0,0,.18l-2.38,0C338.15,255.22,338.15,255.16,338.16,255.09Z" transform="translate(-138.52 -222.18)"/><path class="cls-6" d="M338.16,255.09a.28.28,0,0,0,0,.2H337a.25.25,0,0,0,0-.2Z" transform="translate(-138.52 -222.18)"/><path class="cls-6" d="M338.14,255.29a.28.28,0,0,1,0-.2C338.15,255.16,338.15,255.22,338.14,255.29Z" transform="translate(-138.52 -222.18)"/><path class="cls-4" d="M338.14,255.29a.74.74,0,0,1-1.16,0,0,0,0,0,0,0,0Z" transform="translate(-138.52 -222.18)"/><path class="cls-4" d="M337,255.29a0,0,0,0,1,0,0l0,0Z" transform="translate(-138.52 -222.18)"/><path class="cls-6" d="M337,255.09a.25.25,0,0,1,0,.2h0A1.34,1.34,0,0,1,337,255.09Z" transform="translate(-138.52 -222.18)"/><path class="cls-3" d="M338.38,408.69a27.34,27.34,0,1,1,27.38-27.33A27.42,27.42,0,0,1,338.38,408.69Zm-25.22-27.42a25.31,25.31,0,1,0,26-25.23C324.76,355.62,313,367.59,313.16,381.27Z" transform="translate(-138.52 -222.18)"/><path class="cls-3" d="M407.73,272.88a24.59,24.59,0,1,0,24.53,24.65A24.44,24.44,0,0,0,407.73,272.88ZM306.61,289.45c-.25,18.28,14.92,33.44,32.68,33.12,17.6.35,32.78-14.44,32.74-32.58a32.72,32.72,0,0,0-32.74-32.77C321.18,257.18,306.85,272.17,306.61,289.45ZM336,324.13A33.2,33.2,0,0,1,312.94,312c-6.69-8-9.38-17.39-7.48-27.67,2.66-14.36,11.31-23.53,25.32-27.66,2-.59,4.1-.68,6.11-1.18a.22.22,0,0,0,.09-.13.74.74,0,0,0,1.16,0,.23.23,0,0,0,.13.18,2.23,2.23,0,0,0,2.26-.15.28.28,0,0,0,.1.12,2.08,2.08,0,0,0,1,.22,33.09,33.09,0,0,1,22.42,10.43A33.42,33.42,0,0,1,373.61,292a32.93,32.93,0,0,1-3.34,12.92,34,34,0,0,1-16.95,16.44,36.53,36.53,0,0,1-11.93,3,1.33,1.33,0,0,0-1.41,1.53c-.05,2.06.12,2.28,2.17,2.29h62c3,0,3,.4,2.93-3.31a1.08,1.08,0,0,0-1.2-1.18,20.86,20.86,0,0,1-5.08-.86,25.9,25.9,0,0,1-19.32-23.53c-.6-9.49,3.08-17.26,10.75-23a25.1,25.1,0,0,1,17.86-4.93,26.32,26.32,0,0,1,23.55,29.77,26.11,26.11,0,0,1-23.9,22.52,1.29,1.29,0,0,0-1.39,1.52c0,1.12,0,2.24,0,3.36,0,.83-.34,1.18-1.15,1.13-.36,0-.72,0-1.08,0H341.24c-2.83,0-2.49.23-2.5-2.51S338.73,324.4,336,324.13Z" transform="translate(-138.52 -222.18)"/><path class="cls-3" d="M305.28,296.76c-3.53-19.1,8-36.55,26.93-40.81a32.76,32.76,0,0,1,4.74-.66h0l0,0a.22.22,0,0,1-.09.13c-2,.5-4.1.59-6.11,1.18-14,4.13-22.66,13.3-25.32,27.66-1.9,10.28.79,19.64,7.48,27.67A33.2,33.2,0,0,0,336,324.13c2.74.27,2.73.24,2.75,3s-.33,2.51,2.5,2.51h64.92c.36,0,.72,0,1.08,0,.81.05,1.17-.3,1.15-1.13,0-1.12,0-2.24,0-3.36a1.29,1.29,0,0,1,1.39-1.52,26.11,26.11,0,0,0,23.9-22.52,26.32,26.32,0,0,0-23.55-29.77,25.1,25.1,0,0,0-17.86,4.93c-7.67,5.73-11.35,13.5-10.75,23a25.9,25.9,0,0,0,19.32,23.53,20.86,20.86,0,0,0,5.08.86,1.08,1.08,0,0,1,1.2,1.18c.1,3.71.06,3.31-2.93,3.31h-62c-2,0-2.22-.23-2.17-2.29a1.33,1.33,0,0,1,1.41-1.53,36.53,36.53,0,0,0,11.93-3,34,34,0,0,0,16.95-16.44A32.93,32.93,0,0,0,373.61,292a33.42,33.42,0,0,0-9.52-25.89,33.09,33.09,0,0,0-22.42-10.43,2.08,2.08,0,0,1-1-.22.28.28,0,0,1-.1-.12l.07,0a34.69,34.69,0,0,1,3.86,69c-1.11.16-2.22.27-3.34.35-.56,0-.81.17-.82.83-.06,2.42-.09,2.42,2.31,2.42q31.36,0,62.75,0c1.16,0,1.48-.28,1.43-1.44-.1-2.26,0-2.26-2.1-2.54a26.57,26.57,0,0,1-23-20.77c-3.41-15,7.29-30.22,22.5-32a26.47,26.47,0,0,1,29.57,21.23c3.09,14.51-7.4,29.42-22.09,31.37-.43.06-.86.15-1.3.19-1.68.17-1.68.16-1.68,1.8a25,25,0,0,0,0,2.87c.14,1.14-.34,1.28-1.33,1.28q-33.84,0-67.67,0c-1,0-1.58-.18-1.39-1.34a10.15,10.15,0,0,0,0-1.56c0-2.32,0-2.32-2.27-2.5A34.72,34.72,0,0,1,305.28,296.76Z" transform="translate(-138.52 -222.18)"/><path class="cls-2" d="M283.51,372c-1-.25-1.08.38-1,1.22.09,1.14,1.05.81,1.64.88a13.93,13.93,0,0,1,9.95,5.74,13.1,13.1,0,0,1,2.78,7.64c0,1.18.83.81,1.42.84.86.05.7-.51.6-1.05-.14-.78-.18-1.59-.34-2.36A16.39,16.39,0,0,0,283.51,372ZM264,388.05a18.59,18.59,0,1,1,18.64,18.63A18.52,18.52,0,0,1,264,388.05Z" transform="translate(-138.52 -222.18)"/><path class="cls-3" d="M283.51,372a16.39,16.39,0,0,1,15,12.91c.16.77.2,1.58.34,2.36.1.54.26,1.1-.6,1.05-.59,0-1.38.34-1.42-.84a13.1,13.1,0,0,0-2.78-7.64,13.93,13.93,0,0,0-9.95-5.74c-.59-.07-1.55.26-1.64-.88C282.43,372.36,282.55,371.73,283.51,372Z" transform="translate(-138.52 -222.18)"/><path class="cls-2" d="M295.46,308.22a13.83,13.83,0,1,1-13.86-14A13.81,13.81,0,0,1,295.46,308.22Zm-14.08-11.77c-.57,0-.85.19-.79.74s-.37,1.3.68,1.32a10.67,10.67,0,0,1,10,9.83c.09,1,.53.94,1.22,1,.94,0,.75-.61.76-1.22,0-.08,0-.24,0-.4A12.86,12.86,0,0,0,281.38,296.45Z" transform="translate(-138.52 -222.18)"/><path class="cls-3" d="M281.27,298.51c-1,0-.62-.81-.68-1.32s.22-.77.79-.74a12.86,12.86,0,0,1,11.88,11.23c0,.16,0,.32,0,.4,0,.61.18,1.24-.76,1.22-.69,0-1.13,0-1.22-1A10.67,10.67,0,0,0,281.27,298.51Z" transform="translate(-138.52 -222.18)"/><path class="cls-3" d="M262,388.12a20.59,20.59,0,1,1,20.6,20.57A20.56,20.56,0,0,1,262,388.12Zm20.66-18.57a18.57,18.57,0,1,0,18.55,18.6A18.52,18.52,0,0,0,282.61,369.55Z" transform="translate(-138.52 -222.18)"/><path class="cls-2" d="M238.28,286.9c10,.05,18.72,8.83,18.32,18.55.35,9.81-8.14,18.59-18.5,18.6a18.58,18.58,0,1,1,.18-37.15Zm14,20c.81,0,.93-.45.86-1.1a1.76,1.76,0,0,0,0-.23A16.59,16.59,0,0,0,238,290.41c-.64-.05-1.28-.16-1.32.87s.32,1.31,1.25,1.23a4.77,4.77,0,0,1,1.19.08c6.73,1.13,11.83,6.92,12,13.33C251.09,306.89,251.61,306.89,252.31,306.9Z" transform="translate(-138.52 -222.18)"/><path class="cls-3" d="M240.33,381.57c5.5.19,10.92,5.37,11.43,10.88a4.17,4.17,0,0,0,.07.71c.19.65.15,1.13-.7,1.11-.61,0-1.22.2-1.31-.86a10.59,10.59,0,0,0-9.59-9.86c-.95-.1-1.22-.37-1.16-1.27C239.13,381.22,239.86,381.66,240.33,381.57Z" transform="translate(-138.52 -222.18)"/><path class="cls-2" d="M240.33,381.57c-.47.09-1.2-.35-1.26.71-.06.9.21,1.17,1.16,1.27a10.59,10.59,0,0,1,9.59,9.86c.09,1.06.7.84,1.31.86.85,0,.89-.46.7-1.11a4.17,4.17,0,0,1-.07-.71C251.25,386.94,245.83,381.76,240.33,381.57Zm-.33-2.44a13.84,13.84,0,1,1-.15,27.67,13.84,13.84,0,1,1,.15-27.67Z" transform="translate(-138.52 -222.18)"/><path class="cls-3" d="M238,290.41a16.59,16.59,0,0,1,15.19,15.16,1.76,1.76,0,0,1,0,.23c.07.65,0,1.1-.86,1.1s-1.22,0-1.24-1c-.14-6.41-5.24-12.2-12-13.33a4.77,4.77,0,0,0-1.19-.08c-.93.08-1.29-.27-1.25-1.23S237.34,290.36,238,290.41Z" transform="translate(-138.52 -222.18)"/><path class="cls-3" d="M267.81,308.08a13.83,13.83,0,1,0,13.79-13.81A13.84,13.84,0,0,0,267.81,308.08Zm-11.21-2.63c.4-9.72-8.31-18.5-18.32-18.55a18.58,18.58,0,1,0-.18,37.15C248.46,324,257,315.26,256.6,305.45Zm-36.82,9.28c-3.79-7.77-3.09-15.39,2.35-22.14s12.91-9.2,21.37-6.92c8.31,2.23,13.37,8,14.89,16.42,2.16,12-6.69,23-19,23.94-.52,0-1.31-.26-1.48.36a6.15,6.15,0,0,0,0,2.38c.07.44.62.23.94.23H253c8.8,0,17.6,0,26.4,0,1,0,1.46-.13,1.34-1.27s.34-2.52-.16-3.42-2.07-.56-3.15-.87a16,16,0,1,1,6.24.42c-.74.11-1,.3-1,1.07.06,1.64,0,3.28,0,4.92.05.93-.27,1.11-1.14,1.11-7.44,0-14.88,0-22.32,0s-14.88,0-22.32,0c-.86,0-1.24-.17-1.15-1.11s-.08-1.69,0-2.51c.18-1.21-.38-1.5-1.45-1.71A19.44,19.44,0,0,1,219.78,314.73Z" transform="translate(-138.52 -222.18)"/><path class="cls-3" d="M208.6,311.88c-.35-3.35-2.41-5.07-5.56-5.63-.6-.11-.69-.38-.68-.88,0-.68.47-.61.92-.6,2.87,0,5.9,2.64,6.69,5.78.1.39.16.78.22,1.09.08.58-.1.85-.64.81S208.67,312.57,208.6,311.88Z" transform="translate(-138.52 -222.18)"/><path class="cls-2" d="M203.28,304.77c-.45,0-.91-.08-.92.6,0,.5.08.77.68.88,3.15.56,5.21,2.28,5.56,5.63.07.69.53.54,1,.57s.72-.23.64-.81c-.06-.31-.12-.7-.22-1.09C209.18,307.41,206.15,304.79,203.28,304.77Zm-8.08,7.06a7.78,7.78,0,0,1,7.86-7.83,7.84,7.84,0,1,1,0,15.67A7.71,7.71,0,0,1,195.2,311.83Z" transform="translate(-138.52 -222.18)"/><path class="cls-3" d="M203.42,379a10.6,10.6,0,0,0-3.69-.92c-1-.07-1-.57-1-1.31,0-1,.72-.6,1.08-.7,5.7.18,11.15,4.87,12.58,10.75.22.88.32,1.8.47,2.7.11.72-.18,1-.93,1-.59,0-1.13.12-1.19-.85A11.88,11.88,0,0,0,203.42,379Z" transform="translate(-138.52 -222.18)"/><path class="cls-2" d="M183.36,390.72c0-8.76,7.15-16.17,15.68-16.09a16.07,16.07,0,1,1-15.68,16.09Zm16.45-14.67c-.36.1-1.07-.28-1.08.7,0,.74,0,1.24,1,1.31a10.6,10.6,0,0,1,3.69.92,11.88,11.88,0,0,1,7.32,10.63c.06,1,.6.8,1.19.85.75.06,1-.24.93-1-.15-.9-.25-1.82-.47-2.7C211,380.92,205.51,376.23,199.81,376.05Z" transform="translate(-138.52 -222.18)"/><path class="cls-3" d="M226.08,392.93a13.91,13.91,0,0,0,27.81,0,13.91,13.91,0,0,0-27.81,0ZM199,406.77a16.07,16.07,0,0,0,0-32.14c-8.53-.08-15.68,7.33-15.68,16.09A15.93,15.93,0,0,0,199,406.77Zm-1-36.95c0-1.84.05-3.68,0-5.52,0-.93.28-1.12,1.15-1.12,6.8,0,13.6,0,20.39,0s13.52,0,20.28,0c.87,0,1.16.17,1.14,1.11,0,3.92,0,7.84,0,11.76,0,.78.19,1.09,1,1.19a15.76,15.76,0,0,1,13.89,15c.12,8.33-5.38,15.08-13.36,16.37a15.86,15.86,0,1,1-4.46-31.4c.73-.09,1-.3,1-1.1q-.08-5,0-9.95c0-.83-.28-1-1-1q-18.48,0-37,0c-.78,0-1,.23-1,1q.09,2.7,0,5.4c0,.78.15,1.06,1,1.17a17.9,17.9,0,0,1,15.65,16.28,18.15,18.15,0,0,1-12,18.79,17.68,17.68,0,0,1-23-13.85c-1.6-9.82,4.19-18.72,13.59-20.92.08,0,.15-.05.23-.06.81-.15,2,0,2.35-.51C198.28,371.84,198,370.73,198,369.82Z" transform="translate(-138.52 -222.18)"/><path class="cls-2" d="M154.32,307.05c0-8.65,6.56-16.09,15.59-16.12,8.86,0,15.64,7.37,15.61,16.2a15.6,15.6,0,1,1-31.2-.08Zm15.24-13.31c-1-.08-1.38.16-1.3,1.21s.65.87,1.25.91a10.94,10.94,0,0,1,7,3.12,12.07,12.07,0,0,1,3.91,8.21c.07,1,.64,1,1.36,1,.88,0,.62-.64.68-1.25-.07-.45-.16-1-.26-1.63A14.4,14.4,0,0,0,169.56,293.74Z" transform="translate(-138.52 -222.18)"/><path class="cls-3" d="M168.26,295c-.08-1.05.33-1.29,1.3-1.21a14.4,14.4,0,0,1,12.59,11.54c.1.59.19,1.18.26,1.63-.06.61.2,1.23-.68,1.25-.72,0-1.29,0-1.36-1a12.07,12.07,0,0,0-3.91-8.21,10.94,10.94,0,0,0-7-3.12C168.91,295.82,168.33,295.85,168.26,295Z" transform="translate(-138.52 -222.18)"/><path class="cls-3" d="M167,391.77a7.46,7.46,0,0,1,5.35,6.76c0,.41.05.82-.56.82-.46,0-.84,0-.92-.62A7.51,7.51,0,0,0,170,396a5.1,5.1,0,0,0-3.43-2.74c-.64-.12-1.18-.36-1-1.15S166.49,391.66,167,391.77Z" transform="translate(-138.52 -222.18)"/><path class="cls-2" d="M167,391.77c-.47-.11-1.12-.48-1.36.35s.31,1,1,1.15A5.1,5.1,0,0,1,170,396a7.51,7.51,0,0,1,.85,2.72c.08.64.46.62.92.62.61,0,.57-.41.56-.82A7.46,7.46,0,0,0,167,391.77Zm-1-1.27a7.9,7.9,0,1,1-7.83,7.75A7.89,7.89,0,0,1,166,390.5Z" transform="translate(-138.52 -222.18)"/><path class="cls-3" d="M173.92,398.54a7.9,7.9,0,1,0-8,7.75A7.89,7.89,0,0,0,173.92,398.54Zm-17.88-.2a9.94,9.94,0,1,1,9.89,9.91A9.93,9.93,0,0,1,156,398.34Z" transform="translate(-138.52 -222.18)"/><path class="cls-3" d="M195.2,311.83a7.71,7.71,0,0,0,7.83,7.84,7.84,7.84,0,1,0,0-15.67A7.78,7.78,0,0,0,195.2,311.83Zm-40.88-4.78a15.6,15.6,0,1,0,31.2.08c0-8.83-6.75-16.24-15.61-16.2C160.88,291,154.34,298.4,154.32,307.05Zm1.62-10.93c4.27-5.78,10.21-8.22,17.27-6.82,7.25,1.43,11.84,6.08,13.72,13.18a18,18,0,0,1-14,22.33c-2,.39-1.91.39-2,2.45-.07,1.23.3,1.51,1.5,1.5q14.16-.08,28.32,0c1.2,0,1.47-.35,1.39-1.46-.09-1.55-.06-3.12,0-4.68,0-.73-.18-1-.94-1.11a9.88,9.88,0,1,1,3.92,0c-.87.18-1.08.46-1.06,1.29.06,2.28,0,4.56,0,6.83,0,.94-.28,1.11-1.14,1.1-5.52,0-11,0-16.55,0s-10.88,0-16.32,0c-.9,0-1.17-.21-1.11-1.11.08-1.28,0-2.56,0-3.84,0-.56-.19-.75-.75-.8C154.64,323.63,147.52,307.5,155.94,296.12Z" transform="translate(-138.52 -222.18)"/></svg>