<svg id="Layer_1" data-name="Layer 1" xmlns="http://www.w3.org/2000/svg" viewBox="0 0 242.48 242.48"><defs><style>.cls-1{fill:#2e3192;}.cls-2{fill:#00aeef;}.cls-3{opacity:0;}.cls-4{fill:none;}</style></defs><title>dfs</title><rect class="cls-1" x="385.68" y="271.83" width="28.41" height="2" transform="translate(-358.51 231.41) rotate(-51.95)"/><rect class="cls-1" x="390.13" y="277.52" width="2" height="13" transform="translate(-370.69 228.76) rotate(-51.94)"/><rect class="cls-1" x="437.23" y="258.68" width="2" height="29.43" transform="translate(-372.22 142.13) rotate(-38.28)"/><rect class="cls-1" x="440.85" y="283.94" width="13" height="2" transform="translate(-377.42 150.23) rotate(-38.28)"/><rect class="cls-1" x="349.34" y="320.39" width="28.89" height="2" transform="translate(-410.67 221.19) rotate(-51.9)"/><rect class="cls-1" x="353.87" y="326.26" width="2" height="13" transform="translate(-423.05 218.42) rotate(-51.89)"/><rect class="cls-1" x="476.72" y="310.43" width="2" height="28.79" transform="translate(-396.1 169.62) rotate(-37.48)"/><rect class="cls-1" x="479.98" y="335.24" width="13" height="2" transform="translate(-401.25 177.29) rotate(-37.48)"/><path class="cls-1" d="M431.44,335.58a1.05,1.05,0,0,1-.62-.21,1,1,0,0,1-.16-1.41l19-24a1,1,0,0,1,1.57,1.24l-19,24.05A1,1,0,0,1,431.44,335.58Z" transform="translate(-297.08 -188.17)"/><rect class="cls-1" x="430.44" y="328.08" width="2" height="13" transform="translate(-395.69 277.29) rotate(-51.66)"/><polygon class="cls-2" points="121.72 41.07 104.25 53.76 110.92 74.29 132.51 74.29 139.18 53.76 121.72 41.07"/><polygon class="cls-2" points="83.87 92.88 66.4 105.57 73.07 126.11 94.66 126.11 101.34 105.57 83.87 92.88"/><polygon class="cls-2" points="161.68 92.88 144.22 105.57 150.89 126.11 172.48 126.11 179.15 105.57 161.68 92.88"/><polygon class="cls-2" points="122.85 141.98 105.39 154.67 112.06 175.21 133.65 175.21 140.32 154.67 122.85 141.98"/><polygon class="cls-2" points="200.83 144.22 183.36 156.91 190.03 177.45 211.62 177.45 218.29 156.91 200.83 144.22"/><polygon class="cls-2" points="46.54 139.94 29.07 152.63 35.74 173.16 57.33 173.16 64 152.63 46.54 139.94"/><path class="cls-1" d="M416.88,247.67l-.84,2.55H415l2.75-8.09H419l2.76,8.09h-1.12l-.86-2.55Zm2.65-.81-.79-2.33c-.18-.53-.3-1-.42-1.47h0c-.12.48-.25,1-.41,1.46l-.79,2.34Z" transform="translate(-297.08 -188.17)"/><path class="cls-1" d="M455.64,295.36a16,16,0,0,1,2.22-.16,4.65,4.65,0,0,1,3.28,1,3.74,3.74,0,0,1,1.14,2.91,4.25,4.25,0,0,1-1.17,3.14,5,5,0,0,1-3.57,1.16,17.16,17.16,0,0,1-1.9-.09Zm1.05,7.15a6.32,6.32,0,0,0,1.05.06,3.11,3.11,0,0,0,3.45-3.43c0-1.9-1.07-3.12-3.28-3.12a5.82,5.82,0,0,0-1.22.11Z" transform="translate(-297.08 -188.17)"/><path class="cls-1" d="M345.15,350.08a5.26,5.26,0,0,1-2.14.39,3.77,3.77,0,0,1-4-4.09,4,4,0,0,1,4.22-4.25,4.4,4.4,0,0,1,1.92.36l-.25.85a3.87,3.87,0,0,0-1.64-.33,3,3,0,0,0-3.15,3.33,2.94,2.94,0,0,0,3.11,3.25,4.08,4.08,0,0,0,1.7-.34Z" transform="translate(-297.08 -188.17)"/><path class="cls-1" d="M494.56,346.44h4.35v.87H495.6V350h3.06v.86H495.6v3.66h-1Z" transform="translate(-297.08 -188.17)"/><path class="cls-1" d="M500.22,353.44a2.76,2.76,0,0,0,1.4.42c.76,0,1.12-.38,1.12-.86s-.3-.78-1.08-1.07c-1-.37-1.53-.95-1.53-1.64a1.79,1.79,0,0,1,2-1.71,2.91,2.91,0,0,1,1.43.36l-.27.77a2.25,2.25,0,0,0-1.18-.33c-.63,0-1,.36-1,.79s.34.69,1.1,1c1,.38,1.52.89,1.52,1.75,0,1-.79,1.74-2.17,1.74a3.44,3.44,0,0,1-1.63-.39Z" transform="translate(-297.08 -188.17)"/><path class="cls-1" d="M420.6,347.94h-3.08v2.92H421v.87h-4.46v-8.08h4.28v.87h-3.25v2.56h3.08Z" transform="translate(-297.08 -188.17)"/><path class="cls-1" d="M377.62,294.37a9.84,9.84,0,0,1,1.91-.17,3.35,3.35,0,0,1,2.22.59,1.68,1.68,0,0,1,.67,1.42,1.93,1.93,0,0,1-1.37,1.78v0a2.08,2.08,0,0,1,1.67,2,2.19,2.19,0,0,1-.69,1.62,4.07,4.07,0,0,1-2.79.75,12.11,12.11,0,0,1-1.62-.09Zm1,3.31h.95c1.1,0,1.75-.58,1.75-1.36,0-.95-.72-1.32-1.77-1.32a5.13,5.13,0,0,0-.93.07Zm0,3.87a5.2,5.2,0,0,0,.88.05c1.08,0,2.07-.4,2.07-1.57s-.94-1.56-2.08-1.56h-.87Z" transform="translate(-297.08 -188.17)"/><rect class="cls-2" x="387.58" y="267.42" width="15.42" height="2" transform="translate(-360 215.7) rotate(-50.65)"/><polygon class="cls-2" points="93.23 80.98 93.7 85.75 98.48 85.28 96.65 87.51 91.88 87.98 91.41 83.21 93.23 80.98"/><rect class="cls-2" x="427.72" y="318.64" width="17.32" height="2" transform="translate(-384.52 266.41) rotate(-50.67)"/><polygon class="cls-2" points="133.72 132.94 134.19 137.72 138.96 137.24 137.14 139.47 132.36 139.94 131.89 135.17 133.72 132.94"/><rect class="cls-2" x="351.12" y="317.91" width="15.42" height="2" transform="translate(-412.35 206.15) rotate(-50.67)"/><polygon class="cls-2" points="56.77 131.47 57.24 136.24 62.01 135.77 60.18 138 55.41 138.47 54.94 133.7 56.77 131.47"/><rect class="cls-2" x="475.23" y="324.09" width="2" height="13.58" transform="translate(-399.99 172.16) rotate(-37.7)"/><polygon class="cls-2" points="178.19 147.01 182.95 147.62 183.56 142.86 185.32 145.14 184.71 149.9 179.95 149.29 178.19 147.01"/><polygon class="cls-2" points="182.73 148.97 168.12 129.91 154.02 129.57 139.92 147.58 138.35 146.34 153.07 127.55 169.13 127.94 184.32 147.76 182.73 148.97"/><polygon class="cls-2" points="83.05 173.58 58.66 173.53 58.67 171.53 81.6 171.58 113.31 75.49 127.93 75.49 144.35 96.05 142.78 97.3 126.97 77.49 114.75 77.49 83.05 173.58"/><rect class="cls-2" x="435.46" y="272.85" width="2" height="13.56" transform="translate(-376.29 144.1) rotate(-38.47)"/><polygon class="cls-2" points="138.47 95.76 143.24 96.31 143.78 91.54 145.57 93.8 145.03 98.56 140.26 98.02 138.47 95.76"/><g class="cls-3"><rect class="cls-4" width="242.48" height="242.48"/></g></svg>