<svg id="Layer_1" data-name="Layer 1" xmlns="http://www.w3.org/2000/svg" viewBox="0 0 183.91 183.91"><defs><style>.cls-1{fill:#00aeef;}.cls-2{fill:#2e3192;}.cls-3{opacity:0;}.cls-4{fill:none;}</style></defs><title>Dijkstra</title><rect class="cls-1" x="347.87" y="280.99" width="27.98" height="2" transform="translate(-420.91 125.69) rotate(-45)"/><polygon class="cls-1" points="43.83 64.53 43.84 59.74 39.04 59.74 41.08 57.7 45.87 57.7 45.87 62.5 43.83 64.53"/><rect class="cls-1" x="64.25" y="56.83" width="48.14" height="2"/><polygon class="cls-1" points="108.41 61.22 111.8 57.83 108.41 54.44 111.29 54.44 114.68 57.83 111.29 61.22 108.41 61.22"/><rect class="cls-2" x="64.25" y="114.02" width="48.14" height="2"/><polygon class="cls-2" points="108.41 118.41 111.8 115.02 108.41 111.63 111.29 111.63 114.68 115.02 111.29 118.41 108.41 118.41"/><rect class="cls-2" x="124.23" y="69.26" width="2" height="39.08"/><polygon class="cls-2" points="128.62 73.24 125.23 69.85 121.84 73.24 121.84 70.36 125.23 66.97 128.62 70.36 128.62 73.24"/><rect class="cls-2" x="360.6" y="301.22" width="2" height="28.83" transform="translate(-444.77 135.35) rotate(-45)"/><polygon class="cls-2" points="39.08 112.62 43.88 112.63 43.87 107.83 45.91 109.86 45.91 114.66 41.12 114.66 39.08 112.62"/><rect class="cls-2" x="470.02" y="265.6" width="2" height="27.48" transform="translate(-379.15 229.98) rotate(-48.03)"/><polygon class="cls-2" points="148.51 75.6 153.3 75.35 153.04 70.56 155.18 72.48 155.44 77.27 150.65 77.53 148.51 75.6"/><rect class="cls-1" x="54.95" y="65.29" width="2" height="37.03"/><polygon class="cls-1" points="52.56 98.34 55.95 101.73 59.34 98.34 59.34 101.22 55.95 104.61 52.56 101.22 52.56 98.34"/><polygon class="cls-1" points="25.3 77.8 15.63 77.8 10.8 86.17 15.63 94.54 25.3 94.54 30.13 86.17 25.3 77.8"/><polygon class="cls-1" points="156.34 77.79 165.98 77.79 170.8 86.16 165.98 94.53 156.34 94.53 151.53 86.16 156.34 77.79"/><polygon class="cls-1" points="60.79 106.66 51.12 106.66 46.29 115.02 51.12 123.39 60.79 123.39 65.62 115.02 60.79 106.66"/><polygon class="cls-1" points="130.06 106.66 120.4 106.66 115.57 115.02 120.4 123.39 130.06 123.39 134.89 115.02 130.06 106.66"/><polygon class="cls-1" points="60.79 49.46 51.12 49.46 46.29 57.83 51.12 66.2 60.79 66.2 65.62 57.83 60.79 49.46"/><polygon class="cls-1" points="130.06 49.46 120.4 49.46 115.57 57.83 120.4 66.2 130.06 66.2 134.89 57.83 130.06 49.46"/><path class="cls-2" d="M346.72,300.67l-.7,2.12h-.9l2.29-6.74h1l2.3,6.74h-.93l-.72-2.12Zm2.21-.68-.66-1.94c-.15-.44-.25-.84-.35-1.23h0c-.1.4-.21.81-.34,1.22L346.9,300Z" transform="translate(-327.5 -212.78)"/><path class="cls-2" d="M359.25,281.37l-.84-.9-1.55,1.44-.28-.3-.5-3.51.49-.45,1.93,2.07.47-.44.33.35-.47.44.85.91Zm-1.17-1.26L357,279c-.16-.17-.32-.35-.47-.54l0,0c.08.29.13.51.18.75l.25,1.89h0Z" transform="translate(-327.5 -212.78)"/><path class="cls-2" d="M355.21,320.61l.26-.28h.68c1.6,0,2.39-.06,2.86-.56a.81.81,0,0,0,0-1.26,1.53,1.53,0,0,0-1-.39l.16-.45a2,2,0,0,1,1.25.55,1.27,1.27,0,0,1,.1,1.92c-.57.61-1.48.69-2.82.69h-.5l1.48,1.4-.35.38Z" transform="translate(-327.5 -212.78)"/><path class="cls-2" d="M474.37,272.5h0l-.87-.22.23-.42,1.09.28.38.36-3.09,3.34-.43-.41Z" transform="translate(-327.5 -212.78)"/><path class="cls-2" d="M477,274.94h0l-.87-.22.23-.43,1.09.29.39.36-3.09,3.34-.44-.41Z" transform="translate(-327.5 -212.78)"/><path class="cls-2" d="M415.72,263.23h0l-.79.43-.12-.47,1-.53h.52v4.55h-.59Z" transform="translate(-327.5 -212.78)"/><path class="cls-2" d="M421,264.89c0,1.55-.58,2.4-1.59,2.4s-1.49-.83-1.5-2.34.66-2.37,1.58-2.37S421,263.44,421,264.89Zm-2.48.07c0,1.18.37,1.85.93,1.85s.93-.73.93-1.89-.29-1.86-.92-1.86S418.52,263.72,418.52,265Z" transform="translate(-327.5 -212.78)"/><path class="cls-2" d="M457.13,301.59v-1.24H455V300l2-2.91h.66v2.83h.64v.48h-.64v1.24Zm0-1.72v-1.52c0-.24,0-.48,0-.71h0c-.14.26-.25.46-.38.67l-1.11,1.55h1.49Z" transform="translate(-327.5 -212.78)"/><path class="cls-2" d="M389.49,296.4h-1.74l-.18,1.16.37,0a1.88,1.88,0,0,1,1,.24,1.3,1.3,0,0,1,.66,1.17,1.59,1.59,0,0,1-1.7,1.56,2.18,2.18,0,0,1-1.13-.28l.15-.47a2.06,2.06,0,0,0,1,.25,1,1,0,0,0,1.08-1c0-.59-.4-1-1.31-1a4.87,4.87,0,0,0-.63.05l.3-2.18h2.18Z" transform="translate(-327.5 -212.78)"/><path class="cls-2" d="M414.53,334.41a2,2,0,0,0,1,.29c.79,0,1-.5,1-.88,0-.64-.58-.91-1.17-.91H415v-.47h.35c.45,0,1-.23,1-.77,0-.36-.23-.68-.79-.68a1.7,1.7,0,0,0-.92.3l-.16-.45a2.21,2.21,0,0,1,1.19-.35c.9,0,1.31.53,1.31,1.09a1.13,1.13,0,0,1-.84,1.07h0a1.18,1.18,0,0,1,1,1.17c0,.73-.57,1.37-1.66,1.37a2.26,2.26,0,0,1-1.18-.31Z" transform="translate(-327.5 -212.78)"/><path class="cls-2" d="M380.47,266.87a8.43,8.43,0,0,1,1.59-.14,2.79,2.79,0,0,1,1.85.49,1.41,1.41,0,0,1,.56,1.19,1.6,1.6,0,0,1-1.14,1.48v0a1.74,1.74,0,0,1,1.39,1.69,1.78,1.78,0,0,1-.57,1.34,3.39,3.39,0,0,1-2.33.63,10.17,10.17,0,0,1-1.35-.08Zm.87,2.76h.79c.92,0,1.46-.48,1.46-1.13s-.6-1.1-1.48-1.1a3.73,3.73,0,0,0-.77.06Zm0,3.23a6.32,6.32,0,0,0,.73,0c.9,0,1.73-.33,1.73-1.31s-.79-1.3-1.74-1.3h-.72Z" transform="translate(-327.5 -212.78)"/><path class="cls-2" d="M485.83,294.86h3.63v.73H486.7v2.24h2.55v.72H486.7v3h-.87Z" transform="translate(-327.5 -212.78)"/><path class="cls-2" d="M384.82,331a4.35,4.35,0,0,1-1.78.31,3.14,3.14,0,0,1-3.33-3.4,3.35,3.35,0,0,1,3.52-3.54,3.61,3.61,0,0,1,1.6.3l-.21.71a3.17,3.17,0,0,0-1.36-.28,2.51,2.51,0,0,0-2.63,2.78,2.45,2.45,0,0,0,2.59,2.71,3.48,3.48,0,0,0,1.42-.28Z" transform="translate(-327.5 -212.78)"/><path class="cls-2" d="M450,266.87a12.46,12.46,0,0,1,1.85-.14,3.86,3.86,0,0,1,2.73.84,3.1,3.1,0,0,1,.95,2.42,3.56,3.56,0,0,1-1,2.62,4.2,4.2,0,0,1-3,1,14,14,0,0,1-1.58-.08Zm.87,6a5.49,5.49,0,0,0,.88.05A2.59,2.59,0,0,0,454.6,270a2.4,2.4,0,0,0-2.73-2.6,4.94,4.94,0,0,0-1,.09Z" transform="translate(-327.5 -212.78)"/><path class="cls-2" d="M453.32,327.81H450.7v2.42h2.92V331h-3.79v-6.73h3.64V325H450.7v2.13h2.62Z" transform="translate(-327.5 -212.78)"/><g class="cls-3"><rect class="cls-4" width="183.91" height="183.91"/></g></svg>