<svg id="Layer_1" data-name="Layer 1" xmlns="http://www.w3.org/2000/svg" viewBox="0 0 351.56 351.56"><defs><style>.cls-1{fill:#19a8e0;}.cls-2{fill:#fff;}.cls-3{opacity:0;}.cls-4{fill:#64cdf6;}</style></defs><title>graphs</title><path class="cls-1" d="M177.33,338.72a6,6,0,0,1-1.66-.24l-1.29-.37a6,6,0,1,1,3.31-11.53L179,327a6,6,0,0,1-1.65,11.77Z" transform="translate(-122.87 -192.18)"/><path class="cls-1" d="M189.7,342.27A6,6,0,0,1,188,342l-4.73-1.36a6,6,0,1,1,3.31-11.53l4.73,1.36a6,6,0,0,1-1.65,11.77Z" transform="translate(-122.87 -192.18)"/><path class="cls-1" d="M285.81,369.85a6,6,0,0,1-1.66-.24l-4.73-1.36a6,6,0,0,1,3.31-11.53l4.73,1.36a6,6,0,0,1-1.65,11.77Zm-18.94-5.44a5.92,5.92,0,0,1-1.65-.23l-4.74-1.36a6,6,0,1,1,3.31-11.53l4.74,1.35a6,6,0,0,1-1.66,11.77ZM247.94,359a6,6,0,0,1-1.66-.24l-4.73-1.35a6,6,0,1,1,3.31-11.54l4.73,1.36A6,6,0,0,1,247.94,359ZM229,353.54a6,6,0,0,1-1.66-.23L222.61,352a6,6,0,1,1,3.31-11.53l4.73,1.36A6,6,0,0,1,229,353.54Zm-18.94-5.43a5.93,5.93,0,0,1-1.65-.24l-4.74-1.35A6,6,0,0,1,207,335l4.74,1.36a6,6,0,0,1-1.66,11.77Z" transform="translate(-122.87 -192.18)"/><path class="cls-1" d="M298.26,373.42a6,6,0,0,1-1.66-.24l-1.29-.37a6,6,0,1,1,3.31-11.53l1.29.37a6,6,0,0,1-1.65,11.77Z" transform="translate(-122.87 -192.18)"/><path class="cls-1" d="M299.43,247.83h-.06a6,6,0,0,1-5.94-6.06v-1.35a6,6,0,0,1,12,.12v1.34A6,6,0,0,1,299.43,247.83Z" transform="translate(-122.87 -192.18)"/><path class="cls-1" d="M299.31,260.67h-.06a6,6,0,0,1-5.94-6.05l0-4.92a6,6,0,0,1,12,.11l0,4.92A6,6,0,0,1,299.31,260.67Z" transform="translate(-122.87 -192.18)"/><path class="cls-1" d="M298.38,360.49h-.06a6,6,0,0,1-5.95-6.06l.05-4.91a6,6,0,1,1,12,.11l-.05,4.92A6,6,0,0,1,298.38,360.49Zm.18-19.67h-.06a6,6,0,0,1-5.94-6.05l0-4.92a6,6,0,0,1,6-5.94h.06a6,6,0,0,1,5.94,6l0,4.92A6,6,0,0,1,298.56,340.82Zm.18-19.66h-.05a6,6,0,0,1-5.95-6.06l.05-4.92a6,6,0,0,1,6-5.94h0a6,6,0,0,1,6,6.06l-.05,4.91A6,6,0,0,1,298.74,321.16Zm.19-19.67h-.06a6,6,0,0,1-5.94-6.06l0-4.91a6,6,0,1,1,12,.11l0,4.91A6,6,0,0,1,298.93,301.49Zm.18-19.67h-.06a6,6,0,0,1-5.94-6.05l.05-4.92a6,6,0,0,1,12,.11l-.05,4.92A6,6,0,0,1,299.11,281.82Z" transform="translate(-122.87 -192.18)"/><path class="cls-1" d="M298.25,373.42h-.05a6,6,0,0,1-5.95-6.06l0-1.34a6,6,0,0,1,6-5.95h.06a6,6,0,0,1,5.95,6.06l0,1.34A6,6,0,0,1,298.25,373.42Z" transform="translate(-122.87 -192.18)"/><path class="cls-1" d="M421.86,336.75a6,6,0,0,1-1.7-11.75l1.29-.39a6,6,0,0,1,3.41,11.51l-1.29.38A6,6,0,0,1,421.86,336.75Z" transform="translate(-122.87 -192.18)"/><path class="cls-1" d="M409.22,340.5a6,6,0,0,1-1.71-11.75l4.84-1.44a6,6,0,0,1,3.42,11.51l-4.85,1.43A5.88,5.88,0,0,1,409.22,340.5Z" transform="translate(-122.87 -192.18)"/><path class="cls-1" d="M310.94,369.65a6,6,0,0,1-1.7-11.75l4.84-1.44A6,6,0,1,1,317.49,368l-4.84,1.43A6,6,0,0,1,310.94,369.65Zm19.37-5.74a6,6,0,0,1-1.71-11.75l4.84-1.44a6,6,0,0,1,3.42,11.5L332,363.66A5.88,5.88,0,0,1,330.31,363.91Zm19.36-5.74a6,6,0,0,1-1.7-11.76l4.84-1.43a6,6,0,0,1,3.41,11.5l-4.84,1.44A6,6,0,0,1,349.67,358.17ZM369,352.42a6,6,0,0,1-1.7-11.75l4.84-1.44a6,6,0,0,1,3.41,11.51l-4.84,1.43A6,6,0,0,1,369,352.42Zm19.36-5.74a6,6,0,0,1-1.7-11.76l4.84-1.43a6,6,0,1,1,3.41,11.5l-4.84,1.44A6,6,0,0,1,388.39,346.68Z" transform="translate(-122.87 -192.18)"/><path class="cls-1" d="M298.25,373.42a6,6,0,0,1-1.7-11.75l1.29-.39a6,6,0,0,1,3.41,11.51l-1.29.38A6,6,0,0,1,298.25,373.42Z" transform="translate(-122.87 -192.18)"/><path class="cls-1" d="M376.59,480.82a6,6,0,0,1-4.85-2.46l-.8-1.09a6,6,0,0,1,9.7-7.07l.79,1.09a6,6,0,0,1-4.84,9.53Z" transform="translate(-122.87 -192.18)"/><path class="cls-1" d="M370.9,473a6,6,0,0,1-4.86-2.46l-3-4.17a6,6,0,1,1,9.69-7.07l3,4.16A6,6,0,0,1,370.9,473Z" transform="translate(-122.87 -192.18)"/><path class="cls-1" d="M357.83,455.11a6,6,0,0,1-4.85-2.47l-3-4.16a6,6,0,0,1,9.7-7.07l3,4.16a6,6,0,0,1-4.85,9.54Zm-12.14-16.66a6,6,0,0,1-4.86-2.46l-3-4.17a6,6,0,1,1,9.69-7.07l3,4.16a6,6,0,0,1-4.84,9.54Zm-12.15-16.66a6,6,0,0,1-4.86-2.46l-3-4.17a6,6,0,1,1,9.69-7.07l3,4.17a6,6,0,0,1-4.84,9.53Zm-12.15-16.65a6,6,0,0,1-4.85-2.47l-3-4.16a6,6,0,0,1,9.7-7.08l3,4.17a6,6,0,0,1-4.84,9.54Zm-12.15-16.66a6,6,0,0,1-4.85-2.47l-3-4.16a6,6,0,1,1,9.7-7.07l3,4.16a6,6,0,0,1-4.84,9.54Z" transform="translate(-122.87 -192.18)"/><path class="cls-1" d="M299.05,374.5A6,6,0,0,1,294.2,372l-.79-1.09a6,6,0,1,1,9.69-7.07l.79,1.09a6,6,0,0,1-4.84,9.53Z" transform="translate(-122.87 -192.18)"/><path class="cls-1" d="M224.43,474.59a5.93,5.93,0,0,1-3.53-1.15,6,6,0,0,1-1.32-8.38l.8-1.09a6,6,0,1,1,9.69,7.07l-.79,1.09A6,6,0,0,1,224.43,474.59Z" transform="translate(-122.87 -192.18)"/><path class="cls-1" d="M229.83,467.19a6,6,0,0,1-4.84-9.54l2.86-3.92a6,6,0,1,1,9.69,7.08l-2.86,3.91A6,6,0,0,1,229.83,467.19Z" transform="translate(-122.87 -192.18)"/><path class="cls-1" d="M242.13,450.34a6,6,0,0,1-4.85-9.54l2.86-3.92a6,6,0,1,1,9.7,7.08L247,447.87A6,6,0,0,1,242.13,450.34Zm11.43-15.68a6,6,0,0,1-4.84-9.53l2.86-3.92a6,6,0,1,1,9.69,7.07l-2.86,3.92A6,6,0,0,1,253.56,434.66ZM265,419a6,6,0,0,1-4.85-9.53l2.86-3.92a6,6,0,0,1,9.7,7.07l-2.86,3.92A6,6,0,0,1,265,419Zm11.43-15.67a6,6,0,0,1-4.84-9.54l2.86-3.91a6,6,0,1,1,9.69,7.07l-2.86,3.92A6,6,0,0,1,276.43,403.32Zm11.43-15.67a6,6,0,0,1-4.84-9.54l2.86-3.92a6,6,0,1,1,9.7,7.08l-2.86,3.92A6,6,0,0,1,287.86,387.65Z" transform="translate(-122.87 -192.18)"/><path class="cls-1" d="M297.46,374.5a5.93,5.93,0,0,1-3.53-1.15,6,6,0,0,1-1.32-8.38l.8-1.09A6,6,0,1,1,303.1,371l-.79,1.09A6,6,0,0,1,297.46,374.5Z" transform="translate(-122.87 -192.18)"/><path class="cls-1" d="M298.36,247.27a6,6,0,0,1-3.53-10.85l1.08-.79a6,6,0,0,1,7.06,0l1.09.79a6,6,0,0,1-4.62,10.75A5.64,5.64,0,0,1,298.36,247.27Z" transform="translate(-122.87 -192.18)"/><path class="cls-1" d="M288.35,254.55a6,6,0,0,1-3.54-10.86l3.84-2.78a6,6,0,1,1,7.05,9.71l-3.83,2.78A6,6,0,0,1,288.35,254.55Z" transform="translate(-122.87 -192.18)"/><path class="cls-1" d="M179.91,333.33a6,6,0,0,1-3.53-10.86l3.83-2.78a6,6,0,0,1,7,9.71l-3.83,2.78A5.92,5.92,0,0,1,179.91,333.33Zm15.33-11.14a6,6,0,0,1-3.54-10.85l3.84-2.78a6,6,0,1,1,7.05,9.7l-3.83,2.79A6,6,0,0,1,195.24,322.19Zm15.32-11.13A6,6,0,0,1,207,300.2l3.83-2.78a6,6,0,0,1,7.06,9.71l-3.84,2.78A5.92,5.92,0,0,1,210.56,311.06Zm15.33-11.14a6,6,0,0,1-3.53-10.85l3.83-2.78a6,6,0,1,1,7.05,9.7l-3.83,2.79A6,6,0,0,1,225.89,299.92Zm15.32-11.13a6,6,0,0,1-3.53-10.86l3.83-2.78a6,6,0,0,1,7.06,9.71l-3.83,2.78A6,6,0,0,1,241.21,288.79Zm15.33-11.14A6,6,0,0,1,253,266.8l3.83-2.78a6,6,0,1,1,7.05,9.7l-3.83,2.79A6,6,0,0,1,256.54,277.65Zm15.33-11.13a6,6,0,0,1-3.54-10.86l3.84-2.78a6,6,0,1,1,7.05,9.71l-3.83,2.78A6,6,0,0,1,271.87,266.52Z" transform="translate(-122.87 -192.18)"/><path class="cls-1" d="M176.14,337.65a6,6,0,0,1-5.71-4.15l-.41-1.28a6,6,0,0,1,2.18-6.71l1.08-.79a6.75,6.75,0,1,1,2.86,12.93Z" transform="translate(-122.87 -192.18)"/><path class="cls-1" d="M180,349.42a6,6,0,0,1-5.7-4.15l-1.47-4.51a6,6,0,1,1,11.42-3.7l1.46,4.5a6,6,0,0,1-5.71,7.86Z" transform="translate(-122.87 -192.18)"/><path class="cls-1" d="M221.38,476.89a6,6,0,0,1-5.7-4.15l-1.47-4.5a6,6,0,0,1,11.42-3.71l1.46,4.5a6,6,0,0,1-5.71,7.86Zm-5.85-18a6,6,0,0,1-5.71-4.14l-1.46-4.51a6,6,0,1,1,11.41-3.71l1.46,4.51a6,6,0,0,1-5.7,7.85Zm-5.86-18a6,6,0,0,1-5.7-4.15l-1.47-4.51a6,6,0,1,1,11.42-3.7l1.46,4.5a6,6,0,0,1-5.71,7.86Zm-5.85-18a6,6,0,0,1-5.71-4.15l-1.46-4.5a6,6,0,1,1,11.41-3.71l1.47,4.5a6,6,0,0,1-5.71,7.86Zm-5.86-18a6,6,0,0,1-5.7-4.15l-1.46-4.5a6,6,0,1,1,11.41-3.71l1.46,4.51a6,6,0,0,1-5.71,7.85Zm-5.85-18a6,6,0,0,1-5.7-4.15l-1.47-4.51a6,6,0,1,1,11.42-3.7l1.46,4.5a6,6,0,0,1-5.71,7.86Zm-5.85-18a6,6,0,0,1-5.71-4.15l-1.46-4.5a6,6,0,1,1,11.41-3.71l1.46,4.5a6,6,0,0,1-5.7,7.86Z" transform="translate(-122.87 -192.18)"/><path class="cls-1" d="M224.32,481.8H223a6,6,0,0,1-5.71-4.14l-.41-1.28a6.82,6.82,0,1,1,7.46,5.42Z" transform="translate(-122.87 -192.18)"/><path class="cls-1" d="M236.7,481.8H232a6,6,0,1,1,0-12h4.74a6,6,0,0,1,0,12Z" transform="translate(-122.87 -192.18)"/><path class="cls-1" d="M370.73,481.8H366a6,6,0,0,1,0-12h4.73a6,6,0,0,1,0,12Zm-18.94,0h-4.74a6,6,0,0,1,0-12h4.74a6,6,0,0,1,0,12Zm-19,0h-4.73a6,6,0,0,1,0-12h4.73a6,6,0,0,1,0,12Zm-18.94,0h-4.73a6,6,0,0,1,0-12h4.73a6,6,0,0,1,0,12Zm-18.94,0h-4.74a6,6,0,0,1,0-12H295a6,6,0,0,1,0,12Zm-18.95,0h-4.73a6,6,0,0,1,0-12H276a6,6,0,0,1,0,12Zm-18.94,0h-4.74a6,6,0,1,1,0-12h4.74a6,6,0,0,1,0,12Z" transform="translate(-122.87 -192.18)"/><path class="cls-1" d="M375.9,481.8h-1.34a6.82,6.82,0,1,1,7.46-5.42l-.41,1.28A6,6,0,0,1,375.9,481.8Z" transform="translate(-122.87 -192.18)"/><path class="cls-1" d="M378.68,473.26A6,6,0,0,1,373,465.4l1.46-4.5a6,6,0,0,1,11.42,3.71l-1.47,4.5A6,6,0,0,1,378.68,473.26Z" transform="translate(-122.87 -192.18)"/><path class="cls-1" d="M385,453.89a6,6,0,0,1-5.7-7.86l1.46-4.5a6,6,0,0,1,11.41,3.71l-1.46,4.5A6,6,0,0,1,385,453.89Zm5.86-18a6,6,0,0,1-5.71-7.85l1.46-4.51A6,6,0,0,1,398,427.22l-1.47,4.5A6,6,0,0,1,390.83,435.87Zm5.85-18A6,6,0,0,1,391,410l1.47-4.51a6,6,0,0,1,11.41,3.71l-1.46,4.51A6,6,0,0,1,396.68,417.85Zm5.86-18a6,6,0,0,1-5.71-7.86l1.46-4.5a6,6,0,1,1,11.41,3.7l-1.46,4.51A6,6,0,0,1,402.54,399.84Zm5.85-18a6,6,0,0,1-5.71-7.86l1.47-4.5a6,6,0,0,1,11.41,3.71l-1.47,4.5A6,6,0,0,1,408.39,381.82Zm5.85-18a6,6,0,0,1-5.7-7.85l1.46-4.51a6,6,0,0,1,11.41,3.71L420,359.66A6,6,0,0,1,414.24,363.8Zm5.86-18a6,6,0,0,1-5.71-7.86l1.46-4.5a6,6,0,0,1,11.42,3.71l-1.47,4.5A6,6,0,0,1,420.1,345.79Z" transform="translate(-122.87 -192.18)"/><path class="cls-1" d="M422.74,337.65a6.9,6.9,0,1,1,2.86-12.93l1.08.79a6,6,0,0,1,2.18,6.71l-.41,1.28A6,6,0,0,1,422.74,337.65Z" transform="translate(-122.87 -192.18)"/><path class="cls-1" d="M415.88,331.09a6,6,0,0,1-3.52-1.15l-3.83-2.78a6,6,0,1,1,7.05-9.71l3.84,2.78a6,6,0,0,1-3.54,10.86Z" transform="translate(-122.87 -192.18)"/><path class="cls-1" d="M399.4,319.11a6,6,0,0,1-3.52-1.14l-3.83-2.79a6,6,0,1,1,7.05-9.71l3.84,2.79a6,6,0,0,1-3.54,10.85ZM384.08,308a6,6,0,0,1-3.53-1.15l-3.83-2.78a6,6,0,0,1,7.06-9.71l3.83,2.78A6,6,0,0,1,384.08,308Zm-15.33-11.14a6,6,0,0,1-3.52-1.14l-3.83-2.79a6,6,0,1,1,7.05-9.71l3.83,2.79a6,6,0,0,1-3.53,10.85Zm-15.33-11.13a6,6,0,0,1-3.52-1.15l-3.83-2.78a6,6,0,0,1,7.06-9.71l3.83,2.78a6,6,0,0,1-3.54,10.86ZM338.1,274.57a6,6,0,0,1-3.52-1.14l-3.83-2.79a6,6,0,1,1,7.05-9.71l3.83,2.79a6,6,0,0,1-3.53,10.85Zm-15.33-11.13a6,6,0,0,1-3.52-1.15l-3.83-2.78a6,6,0,1,1,7.05-9.71l3.83,2.78a6,6,0,0,1-3.53,10.86ZM307.45,252.3a6,6,0,0,1-3.52-1.14l-3.84-2.79a6,6,0,0,1,7.06-9.71l3.83,2.79a6,6,0,0,1-3.53,10.85Z" transform="translate(-122.87 -192.18)"/><path class="cls-2" d="M197.25,332.34A21.21,21.21,0,1,1,176,311.13a21.21,21.21,0,0,1,21.21,21.21" transform="translate(-122.87 -192.18)"/><path class="cls-1" d="M176,358.55a26.21,26.21,0,1,1,26.21-26.21A26.23,26.23,0,0,1,176,358.55Zm0-42.41a16.21,16.21,0,1,0,16.21,16.2A16.22,16.22,0,0,0,176,316.14Z" transform="translate(-122.87 -192.18)"/><path class="cls-2" d="M395.83,476a21.21,21.21,0,1,1-21.21-21.21A21.21,21.21,0,0,1,395.83,476" transform="translate(-122.87 -192.18)"/><path class="cls-1" d="M374.62,502.16A26.21,26.21,0,1,1,400.83,476,26.23,26.23,0,0,1,374.62,502.16Zm0-42.42A16.21,16.21,0,1,0,390.83,476,16.22,16.22,0,0,0,374.62,459.74Z" transform="translate(-122.87 -192.18)"/><path class="cls-2" d="M320.65,240.48a21.21,21.21,0,1,1-21.21-21.21,21.22,21.22,0,0,1,21.21,21.21" transform="translate(-122.87 -192.18)"/><path class="cls-1" d="M299.44,266.69a26.21,26.21,0,1,1,26.21-26.21A26.24,26.24,0,0,1,299.44,266.69Zm0-42.42a16.21,16.21,0,1,0,16.21,16.21A16.23,16.23,0,0,0,299.44,224.27Z" transform="translate(-122.87 -192.18)"/><path class="cls-2" d="M444.36,330.37a21.21,21.21,0,1,1-21.2-21.21,21.2,21.2,0,0,1,21.2,21.21" transform="translate(-122.87 -192.18)"/><path class="cls-1" d="M423.16,356.57a26.21,26.21,0,1,1,26.2-26.2A26.23,26.23,0,0,1,423.16,356.57Zm0-42.41a16.21,16.21,0,1,0,16.2,16.21A16.23,16.23,0,0,0,423.16,314.16Z" transform="translate(-122.87 -192.18)"/><path class="cls-2" d="M320.54,367.63a21.21,21.21,0,1,1-21.2-21.21,21.2,21.2,0,0,1,21.2,21.21" transform="translate(-122.87 -192.18)"/><path class="cls-1" d="M299.34,393.83a26.21,26.21,0,1,1,26.2-26.2A26.23,26.23,0,0,1,299.34,393.83Zm0-42.41a16.21,16.21,0,1,0,16.2,16.21A16.23,16.23,0,0,0,299.34,351.42Z" transform="translate(-122.87 -192.18)"/><path class="cls-1" d="M206.45,335.74c-1.37-.34-2.85-.71-4.37-1.16a27.76,27.76,0,0,0-16.59-23.84,2.62,2.62,0,0,0-3,.32,2.88,2.88,0,0,0-3.23-.56,3.18,3.18,0,0,0-.13-.51c-2-5.75-10.37-5.46-14.68-2.63-2.36,1.54-3.74,3.9-5.25,6.2-2.28,3.5-5,3.75-8.93,3.47-3.46-.24-3.44,5.14,0,5.38a17.71,17.71,0,0,0,7.33-.76c-.1.24-.2.48-.29.72s-.47.31-.71.46a16.15,16.15,0,0,1-7.57,2.21c-3.45.16-3.47,5.54,0,5.37a22.4,22.4,0,0,0,7.24-1.47l.07,0a3.23,3.23,0,0,0,.07,1.57,24,24,0,0,1-7,.77c-3.46-.1-3.45,5.28,0,5.38a28.26,28.26,0,0,0,7.38-.77,2.81,2.81,0,0,0,1.07-.05c10.11-2.32,19.94-9.48,20.26-20.14a2.21,2.21,0,0,0,.12.27c.09,3.18.68,6.41,3.3,8.52.51.4,1.43.67,1.86,1.08a4.86,4.86,0,0,1,.36,1.28,11.56,11.56,0,0,0,2.06,4.28c2.64,3.45,6.78,5.76,11.11,7.41,0,.26,0,.53,0,.8a115,115,0,0,1,.17,12.59c-.2,3.46,5.18,3.45,5.37,0a104.92,104.92,0,0,0-.11-11.63c.87.23,1.72.45,2.55.65,3.36.82,4.79-4.37,1.43-5.18m-34.56-23.05a2.7,2.7,0,0,0-.62-.29c-2.47-.79-4.68,1.25-6.41,3.77a2.6,2.6,0,0,0-1.72,1.43.75.75,0,0,0-.13-.06l.25-.33c1.32-1.87,2.28-4.14,4.28-5.41a6.59,6.59,0,0,1,3.42-1,10.26,10.26,0,0,1,2.25.23,2.63,2.63,0,0,0-.55,1.76,3.3,3.3,0,0,0-.77-.07" transform="translate(-122.87 -192.18)"/><path class="cls-1" d="M154.29,337.78c-2.68,2.5-6.1,2.72-9.39,4s-1.82,6.4,1.43,5.18c4.27-1.6,8.29-2.09,11.76-5.34,2.53-2.37-1.28-6.17-3.8-3.8" transform="translate(-122.87 -192.18)"/><path class="cls-1" d="M161.22,343.5a2.77,2.77,0,0,0-3.8,0c.39-.31-.41.27-.49.32-.25.16-.51.3-.77.44s-.45.23-.68.33l-.67.23a2.69,2.69,0,0,0,1.43,5.19,16,16,0,0,0,5-2.71,2.69,2.69,0,0,0,0-3.8" transform="translate(-122.87 -192.18)"/><path class="cls-1" d="M305.05,232.47" transform="translate(-122.87 -192.18)"/><path class="cls-1" d="M311.69,233h-1a3.06,3.06,0,0,0-3.12-2.85,2.61,2.61,0,0,0-2.78,2.85h-1a3.61,3.61,0,0,1,3.78-3.85A4,4,0,0,1,311.69,233Z" transform="translate(-122.87 -192.18)"/><path class="cls-1" d="M319.26,230h-3.09a2.66,2.66,0,0,0-.1-.49,3,3,0,0,0-.26-1.88,6.13,6.13,0,0,0-1.75-2.07,7.87,7.87,0,0,0-1.25-.89,3.82,3.82,0,0,0-2.38-.4,7.24,7.24,0,0,1-3.22-1.77,2.88,2.88,0,0,0-2.38-1.5l-4-.35a2.45,2.45,0,0,0-1.91.8,20.42,20.42,0,0,0-2.07,0,2.53,2.53,0,0,0-1.51.45,2.61,2.61,0,0,0-2-.61,3.33,3.33,0,0,0-1.75.71,2.33,2.33,0,0,0-.54-.21,2.7,2.7,0,0,0-3.3,1.87l-.06.33a2.6,2.6,0,0,0-2.1,1.29q-.27.47-.57.9a2.56,2.56,0,0,1-.16.22l-.29.33a5.51,5.51,0,0,0-.74,1.14,2.78,2.78,0,0,0-1.08,2.43h-.54c-3.46,0-3.47,5.37,0,5.37H302a2.68,2.68,0,0,0,2.27-4,2.59,2.59,0,0,0,.53-.7l0,0a2.5,2.5,0,0,0,.63-.81,2.61,2.61,0,0,0,1.23-.34,3.58,3.58,0,0,0,.48,0,2.71,2.71,0,0,0,.88-.14,3,3,0,0,0,.75.11,2.43,2.43,0,0,1,1.19.57,2.61,2.61,0,0,0,.23.25l.06.07a2.13,2.13,0,0,0,.64.45,3.76,3.76,0,0,0,.16.74,2.63,2.63,0,0,0,2.44,3.58h5.77c3.46,0,3.46-5.38,0-5.38" transform="translate(-122.87 -192.18)"/><path class="cls-1" d="M370.36,496.46c-1.43-.85-3.16-1.39-4.57-2l-.27-.13a2.61,2.61,0,0,0,.17-1c-.1-4.11-.63-8.34-3.42-11.47a10.1,10.1,0,0,0,.61-6.92c-.34-1.33-1.08-3.59-2.18-4.53a.8.8,0,0,0-.08-.16,6.85,6.85,0,0,0,1.23-2.3,12.11,12.11,0,0,0,.42-8.21,2.9,2.9,0,0,0,1-1.14,2.55,2.55,0,0,0,1.34.79,4.4,4.4,0,0,0,2.47-.06,3.37,3.37,0,0,0,.58.54c2.37,1.68,5.07,3.15,8.08,2.52a7.07,7.07,0,0,0,4.77-3.7c-.38,2.19-.57,4.83,1.11,6.32a7.76,7.76,0,0,0,2.94,1.4,12.33,12.33,0,0,0,2.07.45c-.5,1.91-.81,3.67.38,5.8a6.91,6.91,0,0,0,6.42,3.42l.19,0a14.32,14.32,0,0,0,3.77,7.61,2.31,2.31,0,0,0-1.34,1.64l-.34,1.68a2.2,2.2,0,0,0-.69.54,12,12,0,0,0-2.29,4h-.16a2.6,2.6,0,0,0-2.59,2.61c-.19.2-.36.4-.54.6a2.08,2.08,0,0,0-2.66.72,17.62,17.62,0,0,1-1.44,1.63h-.15a3.89,3.89,0,0,0-2.65,1.05c-.94-2.34-5.13-2-5.2,1.07-.1,5.22,5.8,11,10.83,11.69,4.09.53,10-1,11.8-4.73,4.34.53,8.94.3,12.2-3A11.17,11.17,0,0,0,414,490.23l-.28-.5a7.77,7.77,0,0,0,2.44-1.83,9.56,9.56,0,0,0,2.51-6.07,14.77,14.77,0,0,0-2.23-8,28.63,28.63,0,0,0-2.49-3.68c-.53-.68-1.4-1.44-2.06-2.21a14.55,14.55,0,0,0,1.18-2.13,11.48,11.48,0,0,0,.57-3.29,12.42,12.42,0,0,0-1.88-6.81c-2.7-4.26-7.89-6.37-12.8-6.31a15,15,0,0,1-1.63.11l-.39,0c0-.05,0-.14-.15-.29a22.81,22.81,0,0,0-2.09-2.53,10.41,10.41,0,0,0-6.25-2.66,8.82,8.82,0,0,0-8.38,4.86c-1.17-3.31-3.65-5.82-8-5.56a8.38,8.38,0,0,0-6.49,3.85,9.36,9.36,0,0,0-1.28,3.32c-.89-.24-2.18-1-2.8-1.2a14.69,14.69,0,0,0-5.43-.65,11.1,11.1,0,0,0-8.56,4.92c-2.18,3.54-.19,6.26,1.72,9.31.41.66,1.5,2.07,1.43,2.94s-1,1.39-1.82,2c-2,1.49-4,3-6,4.46-2.82,2.11-5,4.49-4.6,8.25s3.2,7,1.89,11c-1.18,3.63-5.1,4.57-7.35,7.36a6.77,6.77,0,0,0,.05,9c2.82,3.05,6.86,3,10.7,2.86a24.78,24.78,0,0,0,4.66-.47,6.92,6.92,0,0,0,4.54,4.83,10,10,0,0,0,6.13.09,11.07,11.07,0,0,0,1.58-.58h0a2.46,2.46,0,0,0,1.92.81,2.8,2.8,0,0,0,.79-.1h.27a2.43,2.43,0,0,0,2-.93,6.78,6.78,0,0,0,1.33-1.18,5.64,5.64,0,0,0,2.74-1.31,4.5,4.5,0,0,0,1.2-1.78,2.11,2.11,0,0,0,.38-.09,5.18,5.18,0,0,0,2.37-1.67,6.37,6.37,0,0,0,1.39-4,9.7,9.7,0,0,0,.34-8.85,2.47,2.47,0,0,0-.82-1M356,474c-.13,1.85-.27,3.85-1.77,5.12a1.52,1.52,0,0,0-.32.35,6,6,0,0,0-1.25-2.41,3,3,0,0,0-.56-4.93,13.13,13.13,0,0,0,2.89-2.64,5.87,5.87,0,0,0,1.15,3.83,3,3,0,0,0-.14.68m1.12-8.66a7.78,7.78,0,0,1-1.1,1.89,5.51,5.51,0,0,0,0-2,9.55,9.55,0,0,0-.45-1.69,5.78,5.78,0,0,0,1.9-.31,7.19,7.19,0,0,1-.37,2.1m1.69,24.78-.3-.3a18.68,18.68,0,0,1,.92-2.6,12.63,12.63,0,0,1,.84,4.08,15.06,15.06,0,0,1-1.46-1.18m11.54-35a2.39,2.39,0,0,0-.63-.33l-.09-.75a6.38,6.38,0,0,0,.47-.9l.06.05,2.76,1.69a2.65,2.65,0,0,0,2.6,0c0,.08,0,.16,0,.23a2.66,2.66,0,0,0,.18,1.13c-1.13,1.95-4.09-.28-5.33-1.16m10.87,1.13a2.22,2.22,0,0,0-.34-1.07v-.08a3.07,3.07,0,0,0,1.77-.16,2.84,2.84,0,0,0,.17.49,2.21,2.21,0,0,0-1.6.82m11.38,10.3-.39-.16a3.67,3.67,0,0,0-.34-3.23,4,4,0,0,0-3.34-1.58,5.66,5.66,0,0,1-2.57-.45c-.6-.46-.29-1.16-.05-2.36a2.77,2.77,0,0,0,0-1c1.67.72,3.43,1.16,5.13,1.76a1.73,1.73,0,0,0,.14.31,35,35,0,0,1,3.4,8.34l.12.45a6.06,6.06,0,0,0-2.13-2.05" transform="translate(-122.87 -192.18)"/><path class="cls-1" d="M444.41,325.66c-.61-.2-1.24-.39-1.87-.58a3.05,3.05,0,0,0-1-2.41l-.1-.27c0-.06.08-.1.12-.15,1.68-2.33-.54-5.22-2-7a14.31,14.31,0,0,0-1.63-1.67,9.46,9.46,0,1,0-11.35-4,1.8,1.8,0,0,0-.35.24,2.6,2.6,0,0,0-4.49,0,.81.81,0,0,0-.12.14,2.52,2.52,0,0,0-2.18.15c-2,1.1-4,2.15-5.88,3.33-1.68,1-3.21,2.93-5.13,3.44a2.44,2.44,0,0,0-1.9,2.26l-1.77,0c-2.55-.06-3.22,2.85-2,4.41-1.34,1.66-.74,4.69,1.86,4.36,5.5-.68,10.82-2.22,15.27-5.65a21.56,21.56,0,0,0,5.19-5.46,11.08,11.08,0,0,0,3.06,7.41,2.53,2.53,0,0,0,.82,1.17c2.79,3.79,8.19,5.95,12.55,6.81a2.66,2.66,0,0,0,2.85-1.2,2.77,2.77,0,0,0,.11-5.27" transform="translate(-122.87 -192.18)"/><path class="cls-1" d="M319.58,360.72c-.86-.38-1.87-.74-2.88-1.13a3.21,3.21,0,0,0-.29-1.76,28.48,28.48,0,0,0-2.53-4.95l-.19-.22a15.36,15.36,0,0,0-.73-1.61,2.55,2.55,0,0,0-2.06-1.3,2.9,2.9,0,0,0-3.34-.51,2.66,2.66,0,0,0-3.71-1.46,2.67,2.67,0,0,0-3.2-1.66l-1,.25a2.41,2.41,0,0,0-1.79,1.6,3.11,3.11,0,0,0-1.55.61l-.9.72a2.73,2.73,0,0,0-1,.21c-3.81,1.55-7.78,3.16-10.6,6.27-1.6,1.77-3.77,5.15-3.45,7.89a21,21,0,0,1-2.26-.06c-3.45-.28-3.43,5.1,0,5.38s7.07-.52,10.47-1.22a35.38,35.38,0,0,0,9.54-3.24,17.87,17.87,0,0,0,8.31-8.93c0,.07,0,.14.05.2,0,6.66,5.3,10.6,11.71,11a2.42,2.42,0,0,0,2.54-3.06,2.18,2.18,0,0,0-1.17-3" transform="translate(-122.87 -192.18)"/><path class="cls-2" d="M245.64,468.59a21.21,21.21,0,1,1-21.21-21.2,21.2,21.2,0,0,1,21.21,21.2" transform="translate(-122.87 -192.18)"/><path class="cls-1" d="M224.43,494.8a26.21,26.21,0,1,1,26.21-26.21A26.24,26.24,0,0,1,224.43,494.8Zm0-42.41a16.21,16.21,0,1,0,16.21,16.2A16.22,16.22,0,0,0,224.43,452.39Z" transform="translate(-122.87 -192.18)"/><path class="cls-1" d="M230.05,460.58" transform="translate(-122.87 -192.18)"/><path class="cls-1" d="M236.69,461.08h-1a3.06,3.06,0,0,0-3.12-2.85,2.62,2.62,0,0,0-2.79,2.85h-1a3.62,3.62,0,0,1,3.79-3.85A4.06,4.06,0,0,1,236.69,461.08Z" transform="translate(-122.87 -192.18)"/><path class="cls-1" d="M244.25,458.12h-3.09a2.77,2.77,0,0,0-.1-.5,3,3,0,0,0-.26-1.88,6.13,6.13,0,0,0-1.75-2.07,8.56,8.56,0,0,0-1.25-.89,3.81,3.81,0,0,0-2.38-.4,2.48,2.48,0,0,0-1.37-.49,2.61,2.61,0,0,0-1.85-1.28,2.83,2.83,0,0,0-2.38-1.49l-4-.36a2.43,2.43,0,0,0-1.91.81,20.38,20.38,0,0,0-2.07,0,2.58,2.58,0,0,0-1.51.46,2.6,2.6,0,0,0-2-.62,3.33,3.33,0,0,0-1.75.71,2.17,2.17,0,0,0-.54-.21,2.7,2.7,0,0,0-3.3,1.88l-.06.32a2.6,2.6,0,0,0-2.1,1.29,10.5,10.5,0,0,1-.57.9,2.56,2.56,0,0,1-.16.22l-.28.33a5.58,5.58,0,0,0-.75,1.14,2.8,2.8,0,0,0-1.08,2.43h-.54c-3.46,0-3.47,5.38,0,5.38H227a2.69,2.69,0,0,0,2.27-4,2.28,2.28,0,0,0,.53-.7l0,0a2.43,2.43,0,0,0,.63-.8,2.61,2.61,0,0,0,1.23-.35,3.74,3.74,0,0,0,.49,0,2.65,2.65,0,0,0,.87-.14,2.56,2.56,0,0,0,.75.11,2.71,2.71,0,0,0,.68.22,2.3,2.3,0,0,0,.51.35,2.73,2.73,0,0,0,.23.25l.07.07a1.91,1.91,0,0,0,.64.45,6.73,6.73,0,0,0,2.59,4.32h5.77c3.46,0,3.47-5.37,0-5.37" transform="translate(-122.87 -192.18)"/><path class="cls-1" d="M255.18,490.59a2.7,2.7,0,0,0-1.8-2.25,8.38,8.38,0,0,1-5.4-7.7c-.21-3.89.1-7.88.17-11.78,0-3.46-5.33-3.46-5.38,0-.07,4.33-.83,9.41,0,13.84a2.11,2.11,0,0,0-.38.17,6.9,6.9,0,0,0-3.36,3.36h-.2a2.58,2.58,0,0,0-2.58,3,38.46,38.46,0,0,1-6.46,1.15c-2.06.19-4.12.32-6.17.5a2.52,2.52,0,0,0-1.83-.66c-2.34.05-6.08.83-8-.63a25.52,25.52,0,0,1-2.81-2.62,5.43,5.43,0,0,0-4.2-3.9c0-.13,0-.26.07-.39a2.87,2.87,0,0,0-1.71-3.08,28.16,28.16,0,0,0,.85-10.14c-.32-3.42-5.7-3.45-5.37,0a24.07,24.07,0,0,1-1,9.76,10.88,10.88,0,0,1-5,6.56h-.07c-2.08.38-2.34,2.47-1.46,3.89a2.6,2.6,0,0,0,2.81,1.43.89.89,0,0,1,.24.17c.3.28.65.49.94.79a6.26,6.26,0,0,1,1.43,2.37c.57,1.73.2,3.63.52,5.42a3.11,3.11,0,0,0,.19,1.63,2.47,2.47,0,0,0,2.27,1.93,2.65,2.65,0,0,0,.92.15,2.46,2.46,0,0,0,2-.93,2.64,2.64,0,0,0,.85-1.29c.67-2.15,1.47-4.48,4.23-3.75A5.21,5.21,0,0,1,213.3,502c.26,2.9,4.42,3.79,5.28.72,1.28-4.57,10.23-7.93,10.46-1,.1,2.94,4.53,3.75,5.28.71.53-2.17,1.92-4.59,4.42-4.76,2.88-.19,3.32,2.13,3.91,4.35a2.7,2.7,0,0,0,3.3,1.88c2.57-1,2.29-2.85,3-5.16a8.94,8.94,0,0,1,4-5,2.68,2.68,0,0,0,2.28-3.11" transform="translate(-122.87 -192.18)"/><g class="cls-3"><rect class="cls-4" width="351.56" height="351.56"/></g></svg>