<svg id="Layer_1" data-name="Layer 1" xmlns="http://www.w3.org/2000/svg" xmlns:xlink="http://www.w3.org/1999/xlink" viewBox="0 0 313.89 313.89"><defs><style>.cls-1{fill:none;}.cls-2{clip-path:url(#clip-path);}.cls-3{fill:#262262;}.cls-4{fill:#4fc7f2;}.cls-5{fill:#40afd6;}.cls-6{fill:#2bc3f1;}.cls-7{fill:#88d6f6;}.cls-8{fill:#5c82c2;}.cls-9{fill:#443996;}.cls-10{fill:#64cdf6;opacity:0;}</style><clipPath id="clip-path" transform="translate(-137.63 -320.11)"><rect class="cls-1" x="146.99" y="207.89" width="301.29" height="426.11"/></clipPath></defs><title>insertionsort</title><g class="cls-2"><path class="cls-1" d="M273.62,499.55c0,19.2-20.3,34.77-45.34,34.77s-45.34-15.57-45.34-34.77" transform="translate(-137.63 -320.11)"/><path class="cls-3" d="M228.28,534.81c-25.28,0-45.84-15.81-45.84-35.26h1c0,18.89,20.11,34.26,44.84,34.26s44.84-15.37,44.84-34.26h1C274.12,519,253.56,534.81,228.28,534.81Z" transform="translate(-137.63 -320.11)"/><path class="cls-3" d="M205.66,513.56c-12.83,0-23.27-6.28-23.27-14h1c0,7.17,10,13,22.27,13s22.28-5.84,22.28-13h1C228.94,507.28,218.5,513.56,205.66,513.56Z" transform="translate(-137.63 -320.11)"/><rect class="cls-4" x="113.4" y="133.81" width="45.19" height="45.19"/><rect class="cls-5" x="68.22" y="122.13" width="45.19" height="56.86"/><rect class="cls-6" x="23.03" y="109.99" width="45.19" height="69.01"/><rect class="cls-7" x="158.59" y="99.13" width="45.19" height="79.86"/><rect class="cls-8" x="203.78" y="91.12" width="45.19" height="87.87"/><rect class="cls-9" x="248.96" y="85.43" width="45.19" height="93.56"/><path class="cls-1" d="M273.62,415.06c0-8.56-10.11-15.51-22.59-15.51s-22.59,6.95-22.59,15.51" transform="translate(-137.63 -320.11)"/><path class="cls-3" d="M274.12,415.06h-1c0-8.27-9.91-15-22.09-15s-22.09,6.74-22.09,15h-1c0-8.83,10.36-16,23.09-16S274.12,406.23,274.12,415.06Z" transform="translate(-137.63 -320.11)"/><path class="cls-1" d="M228.44,415.06c0-8.56-10.12-15.51-22.6-15.51s-22.59,6.95-22.59,15.51" transform="translate(-137.63 -320.11)"/><path class="cls-3" d="M228.94,415.06h-1c0-8.27-9.91-15-22.1-15s-22.09,6.74-22.09,15h-1c0-8.83,10.36-16,23.09-16S228.94,406.23,228.94,415.06Z" transform="translate(-137.63 -320.11)"/></g><path class="cls-9" d="M205.43,502.6h0l-1.59.85-.23-.94,2-1.06h1.06v9.1h-1.2Z" transform="translate(-137.63 -320.11)"/><path class="cls-9" d="M227.74,530.81v-.75l1-.94c2.32-2.21,3.37-3.39,3.39-4.76a1.62,1.62,0,0,0-1.81-1.78,3.11,3.11,0,0,0-1.93.77l-.39-.87a4,4,0,0,1,2.57-.92,2.56,2.56,0,0,1,2.79,2.64c0,1.68-1.22,3-3.14,4.89l-.72.67v0h4.09v1Z" transform="translate(-137.63 -320.11)"/><path class="cls-9" d="M203.05,409.74a4.2,4.2,0,0,0,2,.57c1.58,0,2.07-1,2.06-1.76,0-1.28-1.16-1.82-2.35-1.82h-.69v-.93h.69c.89,0,2-.46,2-1.54,0-.73-.46-1.37-1.6-1.37a3.33,3.33,0,0,0-1.82.6l-.32-.9a4.31,4.31,0,0,1,2.38-.7c1.79,0,2.6,1.07,2.6,2.18a2.27,2.27,0,0,1-1.68,2.14v0a2.36,2.36,0,0,1,2,2.34c0,1.45-1.13,2.73-3.32,2.73a4.55,4.55,0,0,1-2.36-.62Z" transform="translate(-137.63 -320.11)"/><path class="cls-9" d="M252.65,411.15v-2.48h-4.23v-.81l4.06-5.81h1.33v5.66h1.27v1h-1.27v2.48Zm0-3.44v-3c0-.48,0-.95,0-1.43h0c-.28.53-.51.92-.76,1.34l-2.23,3.1v0Z" transform="translate(-137.63 -320.11)"/><rect class="cls-10" width="313.89" height="313.89"/></svg>