<svg id="Layer_1" data-name="Layer 1" xmlns="http://www.w3.org/2000/svg" xmlns:xlink="http://www.w3.org/1999/xlink" viewBox="0 0 272.54 272.54"><defs><style>.cls-1{fill:none;}.cls-2{fill:#58b947;}.cls-3{clip-path:url(#clip-path);}.cls-4{fill:#00aeef;}.cls-5{fill:#fff;}.cls-6{fill:#ef4c6e;}.cls-7{opacity:0;}</style><clipPath id="clip-path" transform="translate(-281.39 -224.52)"><rect class="cls-1" width="841.89" height="595.28"/></clipPath></defs><title>kruskal</title><rect class="cls-2" x="452.58" y="238.1" width="3" height="115.22" transform="translate(-127.37 522.41) rotate(-89.45)"/><rect class="cls-2" x="362.15" y="244.19" width="3" height="71.58" transform="translate(-319.57 277.19) rotate(-66.48)"/><rect class="cls-2" x="326.49" y="310.2" width="74.33" height="3" transform="translate(-385.16 -17.31) rotate(-28)"/><rect class="cls-2" x="393.1" y="277.87" width="69.21" height="3" transform="translate(-359.99 -13.27) rotate(-25.49)"/><rect class="cls-2" x="426.21" y="275.93" width="3" height="71.55" transform="translate(-334.36 308.64) rotate(-60.82)"/><rect class="cls-2" x="453.69" y="310.21" width="63.24" height="3" transform="translate(-372.82 94.85) rotate(-33.47)"/><rect class="cls-2" x="483.81" y="249.08" width="3" height="60.57" transform="translate(-277.99 340.05) rotate(-60.54)"/><rect class="cls-2" x="47.94" y="46.77" width="3" height="57.86"/><g class="cls-3"><path class="cls-4" d="M472.6,265.7A13.66,13.66,0,1,1,458.94,252,13.67,13.67,0,0,1,472.6,265.7" transform="translate(-281.39 -224.52)"/><path class="cls-4" d="M410.13,294.26a13.66,13.66,0,1,1-13.66-13.66,13.66,13.66,0,0,1,13.66,13.66" transform="translate(-281.39 -224.52)"/><path class="cls-4" d="M472.6,329.15a13.66,13.66,0,1,1-13.66-13.66,13.67,13.67,0,0,1,13.66,13.66" transform="translate(-281.39 -224.52)"/><path class="cls-4" d="M344.49,329.15a13.66,13.66,0,1,1-13.66-13.66,13.66,13.66,0,0,1,13.66,13.66" transform="translate(-281.39 -224.52)"/><path class="cls-4" d="M525.34,294.26a13.66,13.66,0,1,1-13.66-13.66,13.65,13.65,0,0,1,13.66,13.66" transform="translate(-281.39 -224.52)"/></g><path class="cls-5" d="M457.17,260.46a14.33,14.33,0,0,1,2.22-.17,4.62,4.62,0,0,1,3.27,1,3.71,3.71,0,0,1,1.14,2.9,4.28,4.28,0,0,1-1.16,3.14,5,5,0,0,1-3.58,1.16,17,17,0,0,1-1.89-.09Zm1,7.15a7.69,7.69,0,0,0,1.06.06,3.11,3.11,0,0,0,3.44-3.44c0-1.9-1.07-3.11-3.28-3.11a6,6,0,0,0-1.22.1Z" transform="translate(-281.39 -224.52)"/><path class="cls-2" d="M321,300.22V298.1h-3.63v-.7l3.48-5H322v4.85h1.09v.83H322v2.12Zm0-3v-2.6q0-.62,0-1.23h0c-.24.46-.43.8-.65,1.16l-1.91,2.65v0Z" transform="translate(-281.39 -224.52)"/><path class="cls-5" d="M328.55,325.05a10.82,10.82,0,0,1,1.91-.16,3.41,3.41,0,0,1,2.22.58,1.69,1.69,0,0,1,.67,1.43,1.94,1.94,0,0,1-1.37,1.78v0a2.08,2.08,0,0,1,1.67,2,2.19,2.19,0,0,1-.69,1.62,4.07,4.07,0,0,1-2.79.75,11.75,11.75,0,0,1-1.62-.1Zm1,3.31h1c1.11,0,1.75-.57,1.75-1.35,0-.95-.72-1.32-1.77-1.32a5.13,5.13,0,0,0-.93.07Zm0,3.88a6.52,6.52,0,0,0,.88.05c1.08,0,2.07-.4,2.07-1.58s-.94-1.56-2.08-1.56h-.87Z" transform="translate(-281.39 -224.52)"/><path class="cls-2" d="M366.67,322.13v-.59l.76-.74c1.82-1.74,2.65-2.66,2.66-3.74a1.28,1.28,0,0,0-1.42-1.4,2.41,2.41,0,0,0-1.52.61l-.31-.68a3.15,3.15,0,0,1,2-.73,2,2,0,0,1,2.19,2.08c0,1.32-1,2.39-2.47,3.84l-.57.53v0h3.21v.8Z" transform="translate(-281.39 -224.52)"/><path class="cls-5" d="M513.89,294.37h-3.14v2.91h3.5v.88H509.7v-8.09h4.37V291h-3.32v2.55h3.14Z" transform="translate(-281.39 -224.52)"/><path class="cls-2" d="M488.36,275.51a3.41,3.41,0,0,0,1.72.5c1.36,0,1.78-.87,1.76-1.52,0-1.09-1-1.56-2-1.56h-.59v-.79h.59c.77,0,1.74-.39,1.74-1.32,0-.62-.4-1.17-1.37-1.17a2.89,2.89,0,0,0-1.56.51l-.27-.76a3.69,3.69,0,0,1,2-.6c1.53,0,2.23.91,2.23,1.86a1.94,1.94,0,0,1-1.44,1.83v0a2,2,0,0,1,1.74,2c0,1.25-1,2.34-2.85,2.34a4,4,0,0,1-2-.53Z" transform="translate(-281.39 -224.52)"/><path class="cls-2" d="M488.36,318.58a3.52,3.52,0,0,0,1.72.49c1.36,0,1.78-.86,1.76-1.51,0-1.09-1-1.56-2-1.56h-.59v-.79h.59c.77,0,1.74-.39,1.74-1.32,0-.62-.4-1.17-1.37-1.17a2.89,2.89,0,0,0-1.56.51l-.27-.77a3.69,3.69,0,0,1,2-.6c1.53,0,2.23.92,2.23,1.86a1.94,1.94,0,0,1-1.44,1.84v0a2,2,0,0,1,1.74,2c0,1.24-1,2.33-2.85,2.33a4,4,0,0,1-2-.52Z" transform="translate(-281.39 -224.52)"/><path class="cls-5" d="M399.85,297.57a5.2,5.2,0,0,1-2.13.38,3.78,3.78,0,0,1-4-4.09,4,4,0,0,1,4.22-4.24,4.22,4.22,0,0,1,1.92.36l-.25.85a3.8,3.8,0,0,0-1.63-.34,3,3,0,0,0-3.15,3.34,2.94,2.94,0,0,0,3.1,3.25,4.26,4.26,0,0,0,1.71-.34Z" transform="translate(-281.39 -224.52)"/><path class="cls-2" d="M426.28,273.49A3.53,3.53,0,0,0,428,274c1.35,0,1.77-.87,1.76-1.51,0-1.1-1-1.56-2-1.56h-.58v-.79h.58c.77,0,1.74-.4,1.74-1.32,0-.63-.39-1.18-1.36-1.18a2.83,2.83,0,0,0-1.56.52l-.28-.77a3.71,3.71,0,0,1,2-.6c1.54,0,2.23.91,2.23,1.86a1.93,1.93,0,0,1-1.44,1.83v0a2,2,0,0,1,1.74,2c0,1.25-1,2.34-2.84,2.34a4,4,0,0,1-2-.53Z" transform="translate(-281.39 -224.52)"/><path class="cls-2" d="M460.07,306.17v-2.12h-3.62v-.7l3.48-5h1.13v4.84h1.1v.83h-1.1v2.12Zm0-2.95v-2.6c0-.41,0-.82,0-1.22h0c-.24.45-.43.79-.65,1.15l-1.91,2.65v0Z" transform="translate(-281.39 -224.52)"/><path class="cls-2" d="M423.34,322.13v-.65l.83-.8c2-1.89,2.89-2.9,2.9-4.08a1.39,1.39,0,0,0-1.55-1.52,2.63,2.63,0,0,0-1.65.66l-.34-.74a3.41,3.41,0,0,1,2.21-.8,2.2,2.2,0,0,1,2.39,2.27c0,1.44-1.05,2.6-2.69,4.19l-.63.57v0h3.51v.87Z" transform="translate(-281.39 -224.52)"/><path class="cls-5" d="M457.18,323.11h4.35V324h-3.31v2.69h3.06v.86h-3.06v3.66h-1Z" transform="translate(-281.39 -224.52)"/><g class="cls-3"><path class="cls-4" d="M344.49,265.7A13.66,13.66,0,1,1,330.83,252a13.66,13.66,0,0,1,13.66,13.66" transform="translate(-281.39 -224.52)"/></g><path class="cls-2" d="M368.87,276.73V274.6h-3.62v-.69l3.48-5h1.14v4.85H371v.82h-1.09v2.13Zm0-3v-2.61c0-.4,0-.81,0-1.22h0c-.24.46-.43.79-.65,1.15l-1.9,2.65v0Z" transform="translate(-281.39 -224.52)"/><path class="cls-5" d="M330.54,265.2l-.84,2.54h-1.08l2.75-8.08h1.26l2.76,8.08h-1.12l-.86-2.54Zm2.65-.82-.79-2.33c-.18-.52-.3-1-.42-1.47h0c-.12.48-.25,1-.41,1.46l-.79,2.34Z" transform="translate(-281.39 -224.52)"/><rect class="cls-6" x="328.02" y="422.2" width="74.33" height="3" transform="translate(-437.56 -3.48) rotate(-28)"/><rect class="cls-6" x="427.74" y="387.92" width="3" height="71.55" transform="translate(-431.36 367.36) rotate(-60.82)"/><rect class="cls-6" x="455.22" y="422.2" width="63.24" height="3" transform="translate(-434.33 114.27) rotate(-33.47)"/><rect class="cls-6" x="485.34" y="361.07" width="3" height="60.57" transform="translate(-374.72 398.31) rotate(-60.54)"/><rect class="cls-6" x="49.47" y="158.76" width="3" height="57.86"/><path class="cls-4" d="M474.13,377.69A13.66,13.66,0,1,1,460.47,364a13.67,13.67,0,0,1,13.66,13.66" transform="translate(-281.39 -224.52)"/><path class="cls-4" d="M411.66,406.25A13.66,13.66,0,1,1,398,392.59a13.65,13.65,0,0,1,13.66,13.66" transform="translate(-281.39 -224.52)"/><path class="cls-4" d="M474.13,441.14a13.66,13.66,0,1,1-13.66-13.66,13.67,13.67,0,0,1,13.66,13.66" transform="translate(-281.39 -224.52)"/><path class="cls-4" d="M346,441.14a13.66,13.66,0,1,1-13.66-13.66A13.66,13.66,0,0,1,346,441.14" transform="translate(-281.39 -224.52)"/><path class="cls-4" d="M526.88,406.25a13.66,13.66,0,1,1-13.66-13.66,13.66,13.66,0,0,1,13.66,13.66" transform="translate(-281.39 -224.52)"/><path class="cls-5" d="M458.7,372.45a14.33,14.33,0,0,1,2.22-.17,4.62,4.62,0,0,1,3.27,1,3.71,3.71,0,0,1,1.14,2.9,4.28,4.28,0,0,1-1.16,3.14,5,5,0,0,1-3.58,1.17,16.72,16.72,0,0,1-1.89-.1Zm1,7.15a7.79,7.79,0,0,0,1.06.06,3.11,3.11,0,0,0,3.44-3.43c0-1.91-1.07-3.12-3.27-3.12a6,6,0,0,0-1.23.11Z" transform="translate(-281.39 -224.52)"/><path class="cls-6" d="M322.51,412.21v-2.12h-3.62v-.7l3.48-5h1.13v4.85h1.1v.83h-1.1v2.12Zm0-2.95v-2.6q0-.62,0-1.23h0c-.24.46-.43.8-.65,1.16L320,409.24v0Z" transform="translate(-281.39 -224.52)"/><path class="cls-5" d="M330.08,437.06a9.84,9.84,0,0,1,1.91-.17,3.35,3.35,0,0,1,2.22.59,1.68,1.68,0,0,1,.67,1.42,1.93,1.93,0,0,1-1.37,1.78v0a2.08,2.08,0,0,1,1.67,2,2.22,2.22,0,0,1-.68,1.62,4.12,4.12,0,0,1-2.8.75,12.11,12.11,0,0,1-1.62-.09Zm1.05,3.31h.94c1.11,0,1.75-.58,1.75-1.36,0-.95-.72-1.32-1.77-1.32a4.9,4.9,0,0,0-.92.07Zm0,3.87a5,5,0,0,0,.87.05c1.08,0,2.08-.4,2.08-1.57s-.95-1.56-2.09-1.56h-.86Z" transform="translate(-281.39 -224.52)"/><path class="cls-6" d="M368.24,434.14v-.65l.83-.81c2-1.89,2.89-2.9,2.9-4.07a1.39,1.39,0,0,0-1.54-1.53,2.66,2.66,0,0,0-1.66.66l-.34-.74a3.41,3.41,0,0,1,2.21-.79,2.19,2.19,0,0,1,2.39,2.26c0,1.44-1,2.61-2.69,4.19l-.62.58v0h3.5v.88Z" transform="translate(-281.39 -224.52)"/><path class="cls-5" d="M515.42,406.37h-3.14v2.91h3.5v.88h-4.55v-8.09h4.37V403h-3.32v2.56h3.14Z" transform="translate(-281.39 -224.52)"/><path class="cls-6" d="M489.89,387.52a3.52,3.52,0,0,0,1.72.49c1.36,0,1.78-.87,1.77-1.51,0-1.1-1-1.56-2-1.56h-.59v-.79h.59c.77,0,1.74-.4,1.74-1.32,0-.63-.39-1.18-1.37-1.18a2.89,2.89,0,0,0-1.56.52l-.27-.77a3.71,3.71,0,0,1,2-.6c1.53,0,2.23.91,2.23,1.86a1.93,1.93,0,0,1-1.44,1.83v0a2,2,0,0,1,1.74,2c0,1.25-1,2.34-2.84,2.34a4,4,0,0,1-2-.53Z" transform="translate(-281.39 -224.52)"/><path class="cls-6" d="M489.89,430.58a3.42,3.42,0,0,0,1.72.49c1.36,0,1.78-.86,1.77-1.51,0-1.09-1-1.56-2-1.56h-.59v-.79h.59c.77,0,1.74-.39,1.74-1.32,0-.62-.39-1.17-1.37-1.17a2.89,2.89,0,0,0-1.56.51l-.27-.76a3.71,3.71,0,0,1,2-.6c1.53,0,2.23.91,2.23,1.86a1.94,1.94,0,0,1-1.44,1.83v0a2,2,0,0,1,1.74,2c0,1.24-1,2.34-2.84,2.34a4,4,0,0,1-2-.53Z" transform="translate(-281.39 -224.52)"/><path class="cls-5" d="M401.38,409.57a5.2,5.2,0,0,1-2.13.38,3.78,3.78,0,0,1-4-4.09,4,4,0,0,1,4.23-4.24,4.29,4.29,0,0,1,1.92.36l-.26.85a3.8,3.8,0,0,0-1.63-.34,3,3,0,0,0-3.15,3.34,2.94,2.94,0,0,0,3.1,3.25,4.1,4.1,0,0,0,1.71-.34Z" transform="translate(-281.39 -224.52)"/><path class="cls-6" d="M424.87,434.14v-.65l.83-.81c2-1.89,2.89-2.9,2.9-4.07a1.4,1.4,0,0,0-1.55-1.53,2.66,2.66,0,0,0-1.65.66l-.34-.74a3.41,3.41,0,0,1,2.21-.79,2.19,2.19,0,0,1,2.39,2.26c0,1.44-1.05,2.61-2.69,4.19l-.62.58v0h3.5v.88Z" transform="translate(-281.39 -224.52)"/><path class="cls-5" d="M458.71,435.11h4.35V436h-3.31v2.68h3.06v.87h-3.06v3.65h-1Z" transform="translate(-281.39 -224.52)"/><g class="cls-3"><path class="cls-4" d="M346,377.69A13.66,13.66,0,1,1,332.36,364,13.66,13.66,0,0,1,346,377.69" transform="translate(-281.39 -224.52)"/></g><path class="cls-5" d="M332.07,377.19l-.84,2.54h-1.08l2.75-8.08h1.26l2.76,8.08H335.8l-.86-2.54Zm2.65-.82-.79-2.32c-.18-.53-.3-1-.42-1.48h0c-.12.48-.25,1-.41,1.47l-.79,2.33Z" transform="translate(-281.39 -224.52)"/><g class="cls-7"><rect class="cls-1" width="272.54" height="272.54"/></g></svg>