<svg id="Layer_1" data-name="Layer 1" xmlns="http://www.w3.org/2000/svg" viewBox="0 0 313.89 313.89"><defs><style>.cls-1{fill:#05aae5;}.cls-2{fill:#59d1f1;}.cls-3{fill:#5cd2f1;}.cls-4{fill:#15afe7;}.cls-5{fill:#17b0e7;}.cls-6{fill:#13aee7;}.cls-7{fill:#1bb1e8;}.cls-8{fill:none;}.cls-9{fill:#36bbea;}.cls-10{fill:#1fb3e8;}.cls-11{fill:#68d5f2;}.cls-12{fill:#fcefd9;}.cls-13{fill:#5dd2f0;}.cls-14{fill:#59d2fe;opacity:0;}</style></defs><title>logodsa</title><path class="cls-1" d="M315.82,412.88c-9.1,5.33-18.45,9.62-29.31,10.34-26.2,1.74-50.4-15.08-57.33-40.29a55.38,55.38,0,0,1,93.59-52.68c17,17.95,20,43.79,7.78,65.59a43.35,43.35,0,0,0-1.75,4.07Zm-33.77-5.8a38.89,38.89,0,0,0,39.76-38.31c.37-21.26-17.25-39.34-38.63-39.64a39.4,39.4,0,0,0-39.75,38.5A39,39,0,0,0,282.05,407.08Z" transform="translate(-137.71 -266.4)"/><path class="cls-2" d="M315.82,412.88l13-13,21.43,20.74L336.9,434Z" transform="translate(-137.71 -266.4)"/><path class="cls-3" d="M356.2,426.72c4.31,4.17,8.72,8.23,12.88,12.53,3.92,4.06,4,9.07.61,13.05a9,9,0,0,1-13,1.17c-4.6-4-8.55-8.72-12.78-13.14Q350.07,433.52,356.2,426.72Z" transform="translate(-137.71 -266.4)"/><path class="cls-4" d="M411.21,506.05c0,6.35.13,12.48-.1,18.6-.06,1.42-1.35,2.79-2.07,4.18-.63-1.34-1.72-2.65-1.83-4-.57-7.06-1.21-14.14-1.21-21.21,0-6.9.63-13.81,1.25-20.69a4.18,4.18,0,0,1,2.47-2.93c6.7-1.66,12.66,2.39,13.15,9.3.29,4.2-.78,8.48-.89,12.73-.05,2,1,4,1,6.06q.25,9.24,0,18.48c0,1-1.16,2-1.78,3-.72-1.11-2-2.18-2.08-3.32-.24-4.65-.09-9.32-.11-14C419.07,505.33,418.84,505.13,411.21,506.05Zm.15-3.57c2.95-1.2,6.76-1.86,6.88-2.94a40.12,40.12,0,0,0-.68-13c-.31-1.42-3.5-2.19-6.2-3.73Z" transform="translate(-137.71 -266.4)"/><path class="cls-5" d="M191.06,523.88c-1.17,1.39-2.12,3.58-3.57,4a36.06,36.06,0,0,1-10.88,1.35c-.53,0-1.32-4.31-1.34-6.63-.14-11.77-.19-23.55,0-35.32,0-2.44.91-6.57,2.26-7,3.91-1.14,8.4-1,11.12,3.14a38.32,38.32,0,0,1,2.47,5.4Zm-11.62,1.65c4.14.85,7.45-.16,7.57-4.33.31-10.6.23-21.23-.22-31.82-.16-3.78-2.55-6.48-7.35-5.05Z" transform="translate(-137.71 -266.4)"/><path class="cls-6" d="M222.7,516.2H218c-.55,3.91-1,7.69-1.68,11.4-.21,1-1.4,1.89-2.14,2.83-.6-1.17-1.84-2.4-1.71-3.48q2.49-21.5,5.38-42.94c.17-1.25,1.29-2.37,2-3.55.83,1.21,2.21,2.33,2.41,3.64q3.36,21.69,6.32,43.44c.16,1.14-.85,2.44-1.31,3.67-.87-1-2.27-1.82-2.52-2.93C223.82,524.42,223.36,520.46,222.7,516.2Zm-4.4-4.64c4.54,0,4.6-.38,1.44-10.9C219.28,504.16,218.81,507.66,218.3,511.56Z" transform="translate(-137.71 -266.4)"/><path class="cls-6" d="M328.6,516.2h-4.51a21.08,21.08,0,0,0-.79,2.76c-.41,2.8-.54,5.65-1.18,8.39-.27,1.14-1.55,2-2.37,3-.52-1.24-1.58-2.53-1.46-3.7.95-8.87,2.14-17.72,3.25-26.58.68-5.45,1.25-10.91,2.12-16.32.2-1.2,1.44-2.24,2.19-3.35.75,1.12,2,2.17,2.16,3.37q3.35,21.94,6.32,43.94c.15,1.07-1,2.31-1.51,3.47-.83-1.05-2.16-2-2.4-3.15C329.62,524.35,329.23,520.55,328.6,516.2Zm-4.49-4.75c4.49.3,4.84-2.38,1.54-11.65C325.08,504.13,324.62,507.6,324.11,511.45Z" transform="translate(-137.71 -266.4)"/><path class="cls-6" d="M297.92,502.61c0-5.49-.15-11,.08-16.47.07-1.67,1.17-3.3,1.8-5,.71,1.6,2,3.19,2.05,4.8.19,10,.09,20,.09,29.94,0,1.33-.41,2.88.13,3.94,1.09,2.13,2.38,5.2,4.19,5.7,3.68,1,4.2-2.73,4.27-5.21.29-10.8.13-21.62.42-32.42.06-2.26,1.31-4.49,2-6.73.65,2.33,1.8,4.65,1.85,7,.22,9.31.13,18.63.06,27.94a36.5,36.5,0,0,1-.7,6.92c-.8,3.89-2.76,6.8-7.26,6.86a8.15,8.15,0,0,1-8.64-7.37c-.57-4.26-.29-8.63-.36-12.95C297.89,507.26,297.92,504.93,297.92,502.61Z" transform="translate(-137.71 -266.4)"/><path class="cls-6" d="M258.88,504.8c1.05-6.8,2-13.63,3.24-20.39.29-1.57,1.78-2.93,2.72-4.39.42,1.57,1.37,3.21,1.17,4.69q-2.75,20-5.9,40c-.22,1.4-1.42,2.64-2.17,3.95-.78-1.26-2.08-2.46-2.25-3.81q-2.59-20.55-4.77-41.16c-.12-1.16.89-2.44,1.38-3.66.87,1.16,2.33,2.25,2.51,3.51,1,7,1.71,14.08,2.52,21.13Z" transform="translate(-137.71 -266.4)"/><path class="cls-7" d="M393,484.22v16.56l7,2.93-7,3.57v18.55c2.88,0,5.52-.17,8.11.08,1.06.11,2,1.14,3,1.75-1.06.73-2.07,2-3.2,2.1-2.79.31-5.65,0-8.46.14-3,.19-4.2-1.08-4.14-4,.11-5.49,0-11,0-16.46,0-8.26.08-16.52,0-24.77-.05-3.12.89-4.68,4.25-4.47,3,.19,6-.08,9,.15.89.07,1.69,1.16,2.54,1.78-.89.71-1.72,1.94-2.67,2A83.54,83.54,0,0,1,393,484.22Z" transform="translate(-137.71 -266.4)"/><path class="cls-4" d="M291.45,517.21a49.44,49.44,0,0,0-2.53-6.84c-3.09-5.71-6.83-11.09-9.49-17a15.51,15.51,0,0,1-.54-9.47c1-4.17,6.25-6,10.21-4.39,4.12,1.69,6.48,6.91,4.78,10.81a2.47,2.47,0,0,1-1.71,1.37c-.62,0-1.35-.7-1.86-1.25-.28-.31-.08-1-.29-1.43a35.25,35.25,0,0,0-3.24-5.88c-.24-.3-3.51.78-3.63,1.51-.41,2.42-.78,5.33.21,7.4,2.63,5.54,6.49,10.53,8.86,16.17a29,29,0,0,1,2.35,13.32c-.22,2.53-3.45,5.91-6.05,6.79-2.36.81-6.72-.38-8.33-2.28-1.82-2.15-1.63-6-2.12-9.22-.06-.4,1.05-1.35,1.66-1.38s1.37.67,1.89,1.22a2.29,2.29,0,0,1,.25,1.44c0,3.28-.13,6.91,4.48,6.69S291.05,520.93,291.45,517.21Z" transform="translate(-137.71 -266.4)"/><path class="cls-4" d="M192.19,486.33c1.28-1.83,2.26-4,3.9-5.42a7.44,7.44,0,0,1,9.69-.5c3.61,2.45,3.64,6.11,3.12,9.85a2.26,2.26,0,0,1-1.62,1.45,2.76,2.76,0,0,1-1.91-1.17c-.35-.46-.1-1.32-.35-1.91-.78-1.84-1.35-3.94-2.68-5.28-.51-.51-3.79.4-4.12,1.29-.74,2-1.21,4.73-.37,6.47,2.75,5.69,6.45,10.92,9.17,16.61a37.91,37.91,0,0,1,2.87,10.83c.72,4.87-1.45,8.51-6.22,10.08-4.38,1.45-7.9-.55-10.81-5.71a22.83,22.83,0,0,1,.1-4.46,11.79,11.79,0,0,1,1.73-3.07c.73,1.07,1.52,2.11,2.15,3.23.22.38.06,1,0,1.48,0,3,1.47,5.29,4.35,4.61,1.82-.43,4.38-3,4.43-4.61a24.91,24.91,0,0,0-2.11-10.39C200.06,501.79,196,494.11,192.19,486.33Z" transform="translate(-137.71 -266.4)"/><path class="cls-4" d="M378.53,484c-3.34,0-6.67.13-10-.08-.85-.06-1.63-1.16-2.44-1.79.79-.68,1.55-1.92,2.37-2a103.94,103.94,0,0,1,13,0c3.49.27,2.35,2.81,1.71,4.9q-5.42,17.65-10.78,35.31c-.48,1.57-.88,3.16-1.53,5.49,3.68,0,6.93-.16,10.15.09,1,.08,1.91,1.25,2.86,1.91-1,.67-1.93,1.34-2.92,2-.11.08-.32,0-.49,0-18.75-.2-15.52,2.15-11.06-13.6,2.94-10.4,6.24-20.69,9.37-31C378.82,485.07,378.72,484.89,378.53,484Z" transform="translate(-137.71 -266.4)"/><path class="cls-8" d="M192.19,486.33c3.82,7.78,7.87,15.46,11.37,23.38a24.91,24.91,0,0,1,2.11,10.39c0,1.65-2.61,4.18-4.43,4.61-2.88.68-4.4-1.61-4.35-4.61,0-.5.17-1.1,0-1.48-.63-1.12-1.42-2.16-2.15-3.23a11.79,11.79,0,0,0-1.73,3.07,22.83,22.83,0,0,0-.1,4.46l-1.8,1,.09-35Z" transform="translate(-137.71 -266.4)"/><path class="cls-7" d="M340,529.92c-.17-2-.4-3.43-.4-4.89,0-13.29-.09-26.58.07-39.86,0-1.66,1.27-3.3,1.94-4.95.74,1.61,2.08,3.21,2.11,4.83.18,11.62.1,23.25.1,34.88v6A65.73,65.73,0,0,1,351,526c.87.11,1.62,1.21,2.42,1.86-.77.68-1.5,1.9-2.31,2C347.51,530,343.89,529.92,340,529.92Z" transform="translate(-137.71 -266.4)"/><path class="cls-9" d="M270.28,504.72c0-6.81-.11-13.63.11-20.43,0-1.18,1.54-2.31,2.37-3.46.66,1.15,1.9,2.29,1.91,3.44.13,14,.15,27.92,0,41.87,0,1.2-1.56,2.38-2.39,3.56-.66-1.18-1.86-2.35-1.89-3.54C270.19,519,270.28,511.87,270.28,504.72Z" transform="translate(-137.71 -266.4)"/><path class="cls-10" d="M362.57,505.69c0,6.65.12,13.31-.09,19.95,0,1.36-1.24,2.69-1.92,4-.76-1.24-2.17-2.47-2.18-3.72q-.24-20.7,0-41.39c0-1.24,1.38-2.47,2.13-3.7.69,1.3,1.93,2.58,2,3.89C362.68,491.73,362.57,498.71,362.57,505.69Z" transform="translate(-137.71 -266.4)"/><path class="cls-1" d="M356.2,426.72q-6.12,6.81-12.26,13.61l-7-6.34,13.33-13.34Z" transform="translate(-137.71 -266.4)"/><path class="cls-11" d="M245.28,431.92c-1.33,0-2.79.34-3.95-.1a3.84,3.84,0,0,1-2-2.57c-.1-.62,1.15-2,1.93-2.1a19.09,19.09,0,0,1,6.44-.07c1.43.28,2.65,1.6,4,2.46a34.57,34.57,0,0,1-3.9,2.36,6.48,6.48,0,0,1-2.46.06Z" transform="translate(-137.71 -266.4)"/><path class="cls-11" d="M307.76,441c1.15,0,2.45-.33,3.41.09s1.82,1.64,2.71,2.5c-1,.8-1.82,2.1-2.88,2.29a16.85,16.85,0,0,1-6.37,0c-1.17-.26-2.06-1.79-3.07-2.74a18.2,18.2,0,0,1,3.26-2,9,9,0,0,1,2.94-.06Z" transform="translate(-137.71 -266.4)"/><path class="cls-11" d="M342.54,323.93c-1.35-3.82-.18-5.17,3.21-4.94,2,.14,4-.21,5.91.16a3.32,3.32,0,0,1,2.13,2.38,3.27,3.27,0,0,1-2.2,2.29C348.67,324.11,345.71,323.93,342.54,323.93Z" transform="translate(-137.71 -266.4)"/><path class="cls-11" d="M365,395.76c-1.32,0-2.78.36-3.91-.11a3.75,3.75,0,0,1-1.88-2.65c-.08-.64,1.15-1.95,1.92-2.06a21.13,21.13,0,0,1,6.4,0c1.26.22,2.36,1.4,3.53,2.15a30.38,30.38,0,0,1-3.62,2.64C366.76,396,365.78,395.75,365,395.76Z" transform="translate(-137.71 -266.4)"/><path class="cls-11" d="M234,433l-6.81-3.23c1.19-.91,2.27-2.34,3.59-2.62C233.87,426.45,235.49,427.76,234,433Z" transform="translate(-137.71 -266.4)"/><path class="cls-11" d="M333.56,325.54,330,321.66c1.23-.88,2.4-2.33,3.7-2.46,1.05-.1,2.25,1.41,3.39,2.21Z" transform="translate(-137.71 -266.4)"/><path class="cls-11" d="M347.81,390l6.29,3c-1,.91-1.91,2.38-3.06,2.62C348,396.33,346.14,395.22,347.81,390Z" transform="translate(-137.71 -266.4)"/><path class="cls-11" d="M297.37,445.84h-7.48c.36-1.72.23-3.88,1.06-4.36a5.78,5.78,0,0,1,4.73-.11C296.58,441.8,296.69,443.87,297.37,445.84Z" transform="translate(-137.71 -266.4)"/><path class="cls-8" d="M411.36,502.48V482.79c2.7,1.54,5.89,2.31,6.2,3.73a40.12,40.12,0,0,1,.68,13C418.12,500.62,414.31,501.28,411.36,502.48Z" transform="translate(-137.71 -266.4)"/><path class="cls-8" d="M179.44,525.53v-41.2c4.8-1.43,7.19,1.27,7.35,5.05.45,10.59.53,21.22.22,31.82C186.89,525.37,183.58,526.38,179.44,525.53Z" transform="translate(-137.71 -266.4)"/><path class="cls-8" d="M218.3,511.56c.51-3.9,1-7.4,1.44-10.9C222.9,511.18,222.84,511.6,218.3,511.56Z" transform="translate(-137.71 -266.4)"/><path class="cls-8" d="M324.11,511.45c.51-3.85,1-7.32,1.54-11.65C329,509.07,328.6,511.75,324.11,511.45Z" transform="translate(-137.71 -266.4)"/><path class="cls-12" d="M283,350.77c9,.64,18.15,2.07,25.3,9,6.82,6.57,6.11,15.92-1.38,21.62-13.15,10-35.45,10-48.66.09-8.1-6.11-7.94-17.39.38-23.32C265.76,353,273.9,351.1,283,350.77Zm9.2,18.59a9.42,9.42,0,0,0-9.55-9.36,10.2,10.2,0,0,0-9.42,9.84,9.55,9.55,0,0,0,9.9,9.13C288.72,378.87,292.27,375.11,292.18,369.36Z" transform="translate(-137.71 -266.4)"/><path class="cls-13" d="M292.18,369.36c.09,5.75-3.46,9.51-9.07,9.61a9.55,9.55,0,0,1-9.9-9.13,10.2,10.2,0,0,1,9.42-9.84A9.42,9.42,0,0,1,292.18,369.36Z" transform="translate(-137.71 -266.4)"/><rect class="cls-14" width="313.89" height="313.89"/></svg>