<svg id="Layer_1" data-name="Layer 1" xmlns="http://www.w3.org/2000/svg" viewBox="0 0 179.63 179.63"><defs><style>.cls-1{fill:#05aae5;}.cls-2{fill:#59d1f1;}.cls-3{fill:#5cd2f1;}.cls-4{fill:#68d5f2;}.cls-5{fill:#fcefd9;}.cls-6{fill:#5dd2f0;}.cls-7{fill:#59d2fe;opacity:0;}</style></defs><title>logodsa_noname</title><path class="cls-1" d="M315.82,412.88c-9.1,5.33-18.45,9.62-29.31,10.34-26.2,1.74-50.4-15.08-57.33-40.29a55.38,55.38,0,0,1,93.59-52.68c17,17.95,20,43.79,7.78,65.59a43.35,43.35,0,0,0-1.75,4.07Zm-33.77-5.8a38.89,38.89,0,0,0,39.76-38.31c.37-21.26-17.25-39.34-38.63-39.64a39.4,39.4,0,0,0-39.75,38.5A39,39,0,0,0,282.05,407.08Z" transform="translate(-203.81 -294.72)"/><path class="cls-2" d="M315.82,412.88l13-13,21.43,20.74L336.9,434Z" transform="translate(-203.81 -294.72)"/><path class="cls-3" d="M356.2,426.72c4.31,4.17,8.72,8.23,12.88,12.53,3.92,4.06,4,9.07.61,13.05a9,9,0,0,1-13,1.17c-4.6-4-8.55-8.72-12.78-13.14Q350.07,433.52,356.2,426.72Z" transform="translate(-203.81 -294.72)"/><path class="cls-1" d="M356.2,426.72q-6.12,6.81-12.26,13.61l-7-6.34,13.33-13.34Z" transform="translate(-203.81 -294.72)"/><path class="cls-4" d="M245.28,431.92c-1.33,0-2.79.34-3.95-.1a3.84,3.84,0,0,1-2-2.57c-.1-.62,1.15-2,1.93-2.1a19.09,19.09,0,0,1,6.44-.07c1.43.28,2.65,1.6,4,2.46a34.57,34.57,0,0,1-3.9,2.36,6.48,6.48,0,0,1-2.46.06Z" transform="translate(-203.81 -294.72)"/><path class="cls-4" d="M307.76,441c1.15,0,2.45-.33,3.41.09s1.82,1.64,2.71,2.5c-1,.8-1.82,2.1-2.88,2.29a16.85,16.85,0,0,1-6.37,0c-1.17-.26-2.06-1.79-3.07-2.74a18.2,18.2,0,0,1,3.26-2,9,9,0,0,1,2.94-.06Z" transform="translate(-203.81 -294.72)"/><path class="cls-4" d="M342.54,323.93c-1.35-3.82-.18-5.17,3.21-4.94,2,.14,4-.21,5.91.16a3.32,3.32,0,0,1,2.13,2.38,3.27,3.27,0,0,1-2.2,2.29C348.67,324.11,345.71,323.93,342.54,323.93Z" transform="translate(-203.81 -294.72)"/><path class="cls-4" d="M365,395.76c-1.32,0-2.78.36-3.91-.11a3.75,3.75,0,0,1-1.88-2.65c-.08-.64,1.15-1.95,1.92-2.06a21.13,21.13,0,0,1,6.4,0c1.26.22,2.36,1.4,3.53,2.15a30.38,30.38,0,0,1-3.62,2.64C366.76,396,365.78,395.75,365,395.76Z" transform="translate(-203.81 -294.72)"/><path class="cls-4" d="M234,433l-6.81-3.23c1.19-.91,2.27-2.34,3.59-2.62C233.87,426.45,235.49,427.76,234,433Z" transform="translate(-203.81 -294.72)"/><path class="cls-4" d="M333.56,325.54,330,321.66c1.23-.88,2.4-2.33,3.7-2.46,1.05-.1,2.25,1.41,3.39,2.21Z" transform="translate(-203.81 -294.72)"/><path class="cls-4" d="M347.81,390l6.29,3c-1,.91-1.91,2.38-3.06,2.62C348,396.33,346.14,395.22,347.81,390Z" transform="translate(-203.81 -294.72)"/><path class="cls-4" d="M297.37,445.84h-7.48c.36-1.72.23-3.88,1.06-4.36a5.78,5.78,0,0,1,4.73-.11C296.58,441.8,296.69,443.87,297.37,445.84Z" transform="translate(-203.81 -294.72)"/><path class="cls-5" d="M283,350.77c9,.64,18.15,2.07,25.3,9,6.82,6.57,6.11,15.92-1.38,21.62-13.15,10-35.45,10-48.66.09-8.1-6.11-7.94-17.39.38-23.32C265.76,353,273.9,351.1,283,350.77Zm9.2,18.59a9.42,9.42,0,0,0-9.55-9.36,10.2,10.2,0,0,0-9.42,9.84,9.55,9.55,0,0,0,9.9,9.13C288.72,378.87,292.27,375.11,292.18,369.36Z" transform="translate(-203.81 -294.72)"/><path class="cls-6" d="M292.18,369.36c.09,5.75-3.46,9.51-9.07,9.61a9.55,9.55,0,0,1-9.9-9.13,10.2,10.2,0,0,1,9.42-9.84A9.42,9.42,0,0,1,292.18,369.36Z" transform="translate(-203.81 -294.72)"/><rect class="cls-7" width="179.63" height="179.63"/></svg>