<svg id="Layer_1" data-name="Layer 1" xmlns="http://www.w3.org/2000/svg" xmlns:xlink="http://www.w3.org/1999/xlink" viewBox="0 0 313.89 313.89"><defs><style>.cls-1{fill:none;}.cls-2{fill:#63cdf6;}.cls-3{fill:#19a8e0;}.cls-4{clip-path:url(#clip-path);}.cls-5{fill:#262262;}.cls-6{fill:#2f3f99;}.cls-7{fill:#67cef6;}.cls-8{fill:#443996;}.cls-9{fill:#2e3192;}.cls-10{opacity:0;}.cls-11{fill:#64cdf6;}</style><clipPath id="clip-path" transform="translate(-140.52 -341.11)"><rect class="cls-1" x="132.14" y="186.89" width="330.99" height="468.11"/></clipPath></defs><title>mergesort</title><rect class="cls-2" x="55.97" y="65.64" width="49.64" height="49.64"/><rect class="cls-2" x="107.4" y="52.82" width="49.64" height="62.46"/><rect class="cls-3" x="210.66" y="130.33" width="49.64" height="75.81"/><rect class="cls-2" x="158.7" y="118.4" width="49.64" height="87.73"/><g class="cls-4"><path class="cls-1" d="M374.77,454.29c0-9.4-11.12-17-24.82-17s-24.82,7.63-24.82,17" transform="translate(-140.52 -341.11)"/><path class="cls-5" d="M375.27,454.29h-1c0-9.11-10.91-16.53-24.32-16.53s-24.32,7.42-24.32,16.53h-1c0-9.67,11.35-17.53,25.32-17.53S375.27,444.62,375.27,454.29Z" transform="translate(-140.52 -341.11)"/><polygon class="cls-6" points="184.61 115.28 187.5 111.09 181.72 111.09 184.61 115.28"/><polygon class="cls-7" points="184.61 114.08 186.23 111.73 182.98 111.73 184.61 114.08"/><polygon class="cls-6" points="234.25 115.28 237.14 111.09 231.35 111.09 234.25 115.28"/><polygon class="cls-7" points="234.25 114.08 235.87 111.73 232.62 111.73 234.25 114.08"/><polygon class="cls-8" points="83.59 84.05 79.32 87.89 80.95 94.1 86.24 94.1 87.87 87.89 83.59 84.05"/><polygon class="cls-8" points="132.22 72.97 126.94 76.81 128.96 83.03 135.49 83.03 137.51 76.81 132.22 72.97"/><polygon class="cls-8" points="235.48 151.05 230.19 154.89 232.21 161.11 238.75 161.11 240.76 154.89 235.48 151.05"/><polygon class="cls-8" points="235.48 163.87 230.19 167.71 232.21 173.92 238.75 173.92 240.76 167.71 235.48 163.87"/><polygon class="cls-8" points="235.48 176.68 230.19 180.52 232.21 186.74 238.75 186.74 240.76 180.52 235.48 176.68"/><polygon class="cls-8" points="184.61 151.05 179.32 154.89 181.34 161.11 187.88 161.11 189.89 154.89 184.61 151.05"/><polygon class="cls-8" points="184.61 137.71 179.32 141.55 181.34 147.76 187.88 147.76 189.89 141.55 184.61 137.71"/><polygon class="cls-8" points="184.61 164.4 179.32 168.24 181.34 174.45 187.88 174.45 189.89 168.24 184.61 164.4"/><polygon class="cls-8" points="184.61 177.74 179.32 181.58 181.34 187.8 187.88 187.8 189.89 181.58 184.61 177.74"/><polygon class="cls-8" points="132.22 86.1 126.94 89.94 128.96 96.15 135.49 96.15 137.51 89.94 132.22 86.1"/><path class="cls-9" d="M402.77,563.1H297.14V457.47H402.77Zm-104.63-1H401.77V458.47H298.14Z" transform="translate(-140.52 -341.11)"/></g><path class="cls-8" d="M344,548.86v11.87h-2.7v-8l-1.08,8h-1.91l-1.13-7.83v7.83H334.5V548.86h4c.12.72.24,1.56.37,2.53l.43,3,.71-5.54Z" transform="translate(-140.52 -341.11)"/><path class="cls-8" d="M345.26,548.86h5.14v2.38h-2.06v2.25h1.93v2.26h-1.93v2.6h2.27v2.38h-5.35Z" transform="translate(-140.52 -341.11)"/><path class="cls-8" d="M351.5,548.86h2.18a16.94,16.94,0,0,1,3,.17,2.06,2.06,0,0,1,1.26.86,4,4,0,0,1,.48,2.21A3.42,3.42,0,0,1,358,554a1.83,1.83,0,0,1-1.36.58,2.38,2.38,0,0,1,1.24.6,1.85,1.85,0,0,1,.39.7,11.76,11.76,0,0,1,.07,1.76v3.13h-2.86v-3.94a2.7,2.7,0,0,0-.15-1.18c-.1-.16-.36-.23-.79-.23v5.35H351.5Zm3.08,2v2.64a1.41,1.41,0,0,0,.73-.14q.21-.15.21-.93v-.65a1,1,0,0,0-.2-.74A1.14,1.14,0,0,0,354.58,550.89Z" transform="translate(-140.52 -341.11)"/><path class="cls-8" d="M366.66,553.23h-3.09v-1.08a6,6,0,0,0-.08-1.27.4.4,0,0,0-.42-.26.39.39,0,0,0-.39.22,3.57,3.57,0,0,0-.1,1.13v5.7a3.37,3.37,0,0,0,.1,1.05.4.4,0,0,0,.41.25.44.44,0,0,0,.46-.29,3.35,3.35,0,0,0,.12-1.11v-1.41h-.62v-1.8h3.61v6.37h-1.94l-.28-.85a2.11,2.11,0,0,1-.8.82,2.18,2.18,0,0,1-1.13.28,3,3,0,0,1-1.46-.38,2.75,2.75,0,0,1-1-.93,3,3,0,0,1-.44-1.17,13.78,13.78,0,0,1-.09-1.84v-3.52a12,12,0,0,1,.18-2.47,2.59,2.59,0,0,1,1.06-1.42,3.72,3.72,0,0,1,2.24-.64,4.17,4.17,0,0,1,2.25.56,2.61,2.61,0,0,1,1.17,1.32,7.08,7.08,0,0,1,.27,2.23Z" transform="translate(-140.52 -341.11)"/><path class="cls-8" d="M367.86,548.86H373v2.38h-2.06v2.25h1.93v2.26h-1.93v2.6h2.27v2.38h-5.35Z" transform="translate(-140.52 -341.11)"/><g class="cls-10"><rect class="cls-11" width="313.89" height="313.89"/></g></svg>