<svg id="Layer_1" data-name="Layer 1" xmlns="http://www.w3.org/2000/svg" viewBox="0 0 277.48 277.48"><defs><style>.cls-1{fill:#e087b8;}.cls-2{fill:#6bbe45;}.cls-3{fill:#fff;}.cls-4{fill:#eeea59;}.cls-5{fill:#d28929;}.cls-6{opacity:0;}.cls-7{fill:none;}</style></defs><title>prim</title><rect class="cls-1" x="378.26" y="270.15" width="3" height="115.22" transform="matrix(0.01, -1, 1, 0.01, -159.16, 454.64)"/><rect class="cls-1" x="287.83" y="276.24" width="3" height="71.58" transform="translate(-319.75 203.11) rotate(-66.48)"/><rect class="cls-1" x="252.16" y="342.25" width="74.33" height="3" transform="translate(-335.04 -73.64) rotate(-28)"/><rect class="cls-1" x="318.78" y="309.92" width="69.21" height="3" transform="translate(-307.16 -67.26) rotate(-25.5)"/><rect class="cls-1" x="351.88" y="307.98" width="3" height="71.55" transform="translate(-326.56 234.98) rotate(-60.82)"/><rect class="cls-1" x="379.37" y="342.25" width="63.24" height="3" transform="translate(-328.97 34.12) rotate(-33.49)"/><rect class="cls-1" x="409.49" y="281.13" width="3" height="60.57" transform="translate(-269.8 266.43) rotate(-60.54)"/><rect class="cls-1" x="47.49" y="53.62" width="3" height="57.86"/><path class="cls-2" d="M398.28,297.75a13.66,13.66,0,1,1-13.66-13.66,13.67,13.67,0,0,1,13.66,13.66" transform="translate(-207.52 -249.71)"/><path class="cls-2" d="M335.81,326.31a13.66,13.66,0,1,1-13.66-13.66,13.66,13.66,0,0,1,13.66,13.66" transform="translate(-207.52 -249.71)"/><path class="cls-2" d="M398.28,361.2a13.66,13.66,0,1,1-13.66-13.66,13.66,13.66,0,0,1,13.66,13.66" transform="translate(-207.52 -249.71)"/><path class="cls-2" d="M270.17,361.2a13.66,13.66,0,1,1-13.66-13.66,13.66,13.66,0,0,1,13.66,13.66" transform="translate(-207.52 -249.71)"/><path class="cls-2" d="M451,326.31a13.66,13.66,0,1,1-13.66-13.66A13.65,13.65,0,0,1,451,326.31" transform="translate(-207.52 -249.71)"/><path class="cls-3" d="M382.85,292.51a14.3,14.3,0,0,1,2.21-.17,4.65,4.65,0,0,1,3.28,1,3.71,3.71,0,0,1,1.14,2.9,4.25,4.25,0,0,1-1.17,3.14,4.94,4.94,0,0,1-3.57,1.16,16.84,16.84,0,0,1-1.89-.09Zm1,7.14a6.32,6.32,0,0,0,1.05.06,3.11,3.11,0,0,0,3.45-3.42c0-1.91-1.07-3.12-3.28-3.12a6,6,0,0,0-1.22.1Z" transform="translate(-207.52 -249.71)"/><path class="cls-1" d="M246.66,332.27v-2.12H243v-.7l3.48-5h1.14v4.85h1.09v.83h-1.09v2.12Zm0-2.95v-2.6q0-.62,0-1.23h0c-.24.46-.44.79-.65,1.15l-1.91,2.65v0Z" transform="translate(-207.52 -249.71)"/><path class="cls-3" d="M254.23,357.1a10.52,10.52,0,0,1,1.91-.17,3.3,3.3,0,0,1,2.21.59A1.7,1.7,0,0,1,259,359a1.92,1.92,0,0,1-1.37,1.77v0a2.08,2.08,0,0,1,1.67,2,2.15,2.15,0,0,1-.69,1.61,4,4,0,0,1-2.79.76,11.75,11.75,0,0,1-1.62-.1Zm1,3.31h1c1.1,0,1.75-.57,1.75-1.35,0-.95-.72-1.32-1.77-1.32a4.33,4.33,0,0,0-.93.07Zm0,3.88a6.83,6.83,0,0,0,.88,0c1.08,0,2.07-.39,2.07-1.57s-.94-1.56-2.08-1.56h-.87Z" transform="translate(-207.52 -249.71)"/><path class="cls-1" d="M292.39,354.18v-.65l.83-.8c2-1.89,2.89-2.9,2.9-4.08a1.39,1.39,0,0,0-1.55-1.52,2.63,2.63,0,0,0-1.65.66l-.34-.74a3.41,3.41,0,0,1,2.21-.8,2.19,2.19,0,0,1,2.38,2.27c0,1.44-1,2.6-2.68,4.19l-.63.57v0h3.51v.87Z" transform="translate(-207.52 -249.71)"/><path class="cls-3" d="M439.57,326.42h-3.15v2.91h3.51v.88h-4.55v-8.09h4.37V323h-3.33v2.55h3.15Z" transform="translate(-207.52 -249.71)"/><path class="cls-1" d="M414,307.56a3.57,3.57,0,0,0,1.73.49c1.36,0,1.78-.86,1.76-1.51,0-1.09-1-1.56-2-1.56h-.59v-.79h.59c.77,0,1.74-.39,1.74-1.32,0-.62-.4-1.17-1.37-1.17a2.89,2.89,0,0,0-1.56.51l-.27-.77a3.74,3.74,0,0,1,2-.59c1.54,0,2.23.91,2.23,1.85a1.94,1.94,0,0,1-1.43,1.84v0a2,2,0,0,1,1.73,2c0,1.24-1,2.33-2.84,2.33a4,4,0,0,1-2-.52Z" transform="translate(-207.52 -249.71)"/><path class="cls-1" d="M414,350.63a3.57,3.57,0,0,0,1.73.49c1.36,0,1.78-.86,1.76-1.51,0-1.09-1-1.56-2-1.56h-.59v-.79h.59c.77,0,1.74-.4,1.74-1.32,0-.62-.4-1.17-1.37-1.17a2.89,2.89,0,0,0-1.56.51l-.27-.77a3.65,3.65,0,0,1,2-.6c1.54,0,2.23.91,2.23,1.86a1.94,1.94,0,0,1-1.43,1.84v0a2,2,0,0,1,1.73,2c0,1.25-1,2.34-2.84,2.34a4,4,0,0,1-2-.52Z" transform="translate(-207.52 -249.71)"/><path class="cls-3" d="M325.53,329.62a5.2,5.2,0,0,1-2.13.38,3.78,3.78,0,0,1-4-4.09,4,4,0,0,1,4.22-4.24,4.22,4.22,0,0,1,1.92.36l-.25.85a3.84,3.84,0,0,0-1.63-.34,3,3,0,0,0-3.16,3.34,2.94,2.94,0,0,0,3.11,3.25,4.21,4.21,0,0,0,1.7-.34Z" transform="translate(-207.52 -249.71)"/><path class="cls-1" d="M352,305.53a3.41,3.41,0,0,0,1.72.5c1.36,0,1.78-.87,1.77-1.51,0-1.1-1-1.56-2-1.56h-.59v-.8h.59c.77,0,1.74-.39,1.74-1.31,0-.63-.39-1.18-1.37-1.18a2.82,2.82,0,0,0-1.55.52l-.28-.77a3.71,3.71,0,0,1,2-.6c1.53,0,2.23.91,2.23,1.86a1.94,1.94,0,0,1-1.44,1.83v0a2,2,0,0,1,1.74,2c0,1.25-1,2.34-2.84,2.34a4,4,0,0,1-2-.53Z" transform="translate(-207.52 -249.71)"/><path class="cls-1" d="M385.75,338.22V336.1h-3.62v-.7l3.47-5h1.14v4.84h1.09v.83h-1.09v2.12Zm0-3v-2.6q0-.62,0-1.23h0c-.24.46-.43.8-.65,1.16l-1.91,2.65v0Z" transform="translate(-207.52 -249.71)"/><path class="cls-1" d="M349,354.18v-.65l.82-.8c2-1.89,2.9-2.9,2.91-4.08a1.39,1.39,0,0,0-1.55-1.52,2.66,2.66,0,0,0-1.66.66l-.33-.74a3.41,3.41,0,0,1,2.21-.8,2.19,2.19,0,0,1,2.38,2.27c0,1.44-1,2.6-2.68,4.19l-.63.57v0H354v.87Z" transform="translate(-207.52 -249.71)"/><path class="cls-3" d="M382.86,355.16h4.35V356H383.9v2.69H387v.86H383.9v3.66h-1Z" transform="translate(-207.52 -249.71)"/><path class="cls-2" d="M270.17,297.75a13.66,13.66,0,1,1-13.66-13.66,13.67,13.67,0,0,1,13.66,13.66" transform="translate(-207.52 -249.71)"/><path class="cls-1" d="M294.55,308.78v-2.13h-3.62V306l3.47-5h1.14v4.85h1.09v.82h-1.09v2.13Zm0-2.95v-2.61c0-.4,0-.81,0-1.22h0c-.24.46-.43.79-.65,1.15L292,305.8v0Z" transform="translate(-207.52 -249.71)"/><path class="cls-3" d="M256.22,297.25l-.84,2.54H254.3l2.75-8.09h1.26l2.76,8.09H260l-.86-2.54Zm2.65-.82-.79-2.33c-.18-.52-.3-1-.42-1.47h0c-.12.48-.26,1-.41,1.46l-.79,2.34Z" transform="translate(-207.52 -249.71)"/><rect class="cls-4" x="253.7" y="453.85" width="74.33" height="3" transform="translate(-387.25 -59.86) rotate(-28)"/><rect class="cls-4" x="320.31" y="421.52" width="69.21" height="3" transform="translate(-355.05 -55.73) rotate(-25.5)"/><rect class="cls-4" x="353.41" y="419.58" width="3" height="71.55" transform="translate(-423.21 293.5) rotate(-60.82)"/><rect class="cls-4" x="380.9" y="453.85" width="63.24" height="3" transform="translate(-390.29 53.49) rotate(-33.49)"/><rect class="cls-4" x="49.02" y="165.22" width="3" height="57.86"/><path class="cls-5" d="M399.81,409.35a13.66,13.66,0,1,1-13.66-13.66,13.67,13.67,0,0,1,13.66,13.66" transform="translate(-207.52 -249.71)"/><path class="cls-5" d="M337.34,437.91a13.66,13.66,0,1,1-13.66-13.66,13.66,13.66,0,0,1,13.66,13.66" transform="translate(-207.52 -249.71)"/><path class="cls-5" d="M399.81,472.8a13.66,13.66,0,1,1-13.66-13.66,13.67,13.67,0,0,1,13.66,13.66" transform="translate(-207.52 -249.71)"/><path class="cls-5" d="M271.7,472.8A13.66,13.66,0,1,1,258,459.14,13.66,13.66,0,0,1,271.7,472.8" transform="translate(-207.52 -249.71)"/><path class="cls-5" d="M452.55,437.91a13.66,13.66,0,1,1-13.66-13.66,13.65,13.65,0,0,1,13.66,13.66" transform="translate(-207.52 -249.71)"/><path class="cls-3" d="M384.38,404.11a14.33,14.33,0,0,1,2.22-.17,4.64,4.64,0,0,1,3.27,1,3.71,3.71,0,0,1,1.14,2.9,4.28,4.28,0,0,1-1.16,3.14,5,5,0,0,1-3.58,1.16,16.84,16.84,0,0,1-1.89-.09Zm1,7.15a7.69,7.69,0,0,0,1.06.06,3.11,3.11,0,0,0,3.44-3.43c0-1.91-1.07-3.12-3.28-3.12a6.87,6.87,0,0,0-1.22.1Z" transform="translate(-207.52 -249.71)"/><path class="cls-4" d="M248.19,443.87v-2.12h-3.63v-.7l3.48-5h1.14v4.85h1.09v.83h-1.09v2.12Zm0-2.95v-2.6q0-.61,0-1.23h0c-.24.46-.44.8-.65,1.15l-1.91,2.66v0Z" transform="translate(-207.52 -249.71)"/><path class="cls-3" d="M255.76,468.7a10.7,10.7,0,0,1,1.91-.17,3.35,3.35,0,0,1,2.22.59,1.69,1.69,0,0,1,.67,1.43,1.92,1.92,0,0,1-1.37,1.77v0a2.08,2.08,0,0,1,1.67,2,2.15,2.15,0,0,1-.69,1.61,4,4,0,0,1-2.79.76,11.75,11.75,0,0,1-1.62-.1Zm1,3.31h.95c1.1,0,1.75-.57,1.75-1.35,0-1-.72-1.32-1.77-1.32a4.33,4.33,0,0,0-.93.07Zm0,3.88a6.52,6.52,0,0,0,.88.05c1.08,0,2.07-.4,2.07-1.58s-.94-1.56-2.08-1.56h-.87Z" transform="translate(-207.52 -249.71)"/><path class="cls-4" d="M293.92,465.78v-.65l.83-.8c2-1.89,2.89-2.9,2.9-4.08a1.39,1.39,0,0,0-1.55-1.52,2.66,2.66,0,0,0-1.65.66l-.34-.74a3.41,3.41,0,0,1,2.21-.8,2.2,2.2,0,0,1,2.39,2.27c0,1.44-1,2.6-2.69,4.19l-.62.57v0h3.5v.87Z" transform="translate(-207.52 -249.71)"/><path class="cls-3" d="M441.1,438H438v2.91h3.5v.88h-4.55v-8.09h4.37v.88H438v2.55h3.14Z" transform="translate(-207.52 -249.71)"/><path class="cls-4" d="M415.56,462.23a3.57,3.57,0,0,0,1.73.49c1.36,0,1.78-.86,1.76-1.51,0-1.09-1-1.56-2-1.56h-.59v-.79H417c.77,0,1.74-.4,1.74-1.32,0-.62-.4-1.17-1.37-1.17a2.89,2.89,0,0,0-1.56.51l-.27-.77a3.69,3.69,0,0,1,2-.6c1.53,0,2.23.92,2.23,1.86a1.94,1.94,0,0,1-1.44,1.84v0a2,2,0,0,1,1.74,2c0,1.25-1,2.34-2.85,2.34a4,4,0,0,1-2-.52Z" transform="translate(-207.52 -249.71)"/><path class="cls-3" d="M327.06,441.22a5.2,5.2,0,0,1-2.13.38,3.78,3.78,0,0,1-4-4.09,4,4,0,0,1,4.22-4.24,4.22,4.22,0,0,1,1.92.36l-.25.85a3.8,3.8,0,0,0-1.63-.34,3,3,0,0,0-3.15,3.34,2.94,2.94,0,0,0,3.1,3.25,4.26,4.26,0,0,0,1.71-.34Z" transform="translate(-207.52 -249.71)"/><path class="cls-4" d="M353.49,417.14a3.53,3.53,0,0,0,1.73.49c1.35,0,1.77-.87,1.76-1.51,0-1.1-1-1.56-2-1.56h-.58v-.79H355c.77,0,1.74-.4,1.74-1.32,0-.63-.39-1.18-1.36-1.18a2.83,2.83,0,0,0-1.56.52l-.28-.77a3.71,3.71,0,0,1,2-.6c1.53,0,2.23.91,2.23,1.86a1.93,1.93,0,0,1-1.44,1.83v0a2,2,0,0,1,1.74,2c0,1.25-1,2.34-2.84,2.34a4,4,0,0,1-2-.53Z" transform="translate(-207.52 -249.71)"/><path class="cls-4" d="M350.55,465.78v-.65l.83-.8c2-1.89,2.89-2.9,2.9-4.08a1.39,1.39,0,0,0-1.55-1.52,2.63,2.63,0,0,0-1.65.66l-.34-.74a3.41,3.41,0,0,1,2.21-.8,2.19,2.19,0,0,1,2.38,2.27c0,1.44-1,2.6-2.68,4.19l-.63.57v0h3.51v.87Z" transform="translate(-207.52 -249.71)"/><path class="cls-3" d="M384.39,466.76h4.35v.87h-3.31v2.69h3.06v.86h-3.06v3.66h-1Z" transform="translate(-207.52 -249.71)"/><path class="cls-5" d="M271.7,409.35A13.66,13.66,0,1,1,258,395.69a13.66,13.66,0,0,1,13.66,13.66" transform="translate(-207.52 -249.71)"/><path class="cls-3" d="M257.75,408.85l-.84,2.54h-1.08l2.75-8.08h1.26l2.76,8.08h-1.12l-.86-2.54Zm2.65-.82-.79-2.32c-.18-.53-.3-1-.42-1.48h0c-.12.48-.26,1-.41,1.46L258,408Z" transform="translate(-207.52 -249.71)"/><g class="cls-6"><rect class="cls-7" width="277.48" height="277.48"/></g></svg>