<svg id="Layer_1" data-name="Layer 1" xmlns="http://www.w3.org/2000/svg" viewBox="0 0 313.89 313.89"><defs><style>.cls-1{fill:#63cdf6;}.cls-2{fill:#443996;}.cls-3{fill:#19a8e0;}.cls-4{fill:#2b3990;}.cls-5{opacity:0;}.cls-6{fill:#64cdf6;}</style></defs><title>quicksort</title><rect class="cls-1" x="139.63" y="156.05" width="38.95" height="50.88"/><rect class="cls-1" x="100.27" y="167.98" width="38.95" height="38.95"/><rect class="cls-1" x="60.94" y="162.45" width="38.95" height="44.13"/><rect class="cls-2" x="179.09" y="146.89" width="38.95" height="60.23"/><rect class="cls-1" x="218.04" y="134.21" width="38.95" height="72.69"/><rect class="cls-1" x="257.5" y="141.44" width="38.95" height="65.68"/><rect class="cls-1" x="21.38" y="149.31" width="38.95" height="57.11"/><polygon class="cls-3" points="159.11 177.68 154.71 185.3 163.51 185.3 159.11 177.68"/><polygon class="cls-3" points="41.08 179.14 36.68 186.76 45.48 186.76 41.08 179.14"/><polygon class="cls-3" points="40.9 168.98 36.49 176.6 45.3 176.6 40.9 168.98"/><polygon class="cls-3" points="198.57 162.93 194.17 170.56 202.97 170.56 198.57 162.93"/><polygon class="cls-3" points="198.57 172.83 194.17 180.45 202.97 180.45 198.57 172.83"/><polygon class="cls-3" points="198.57 182.63 194.17 190.25 202.97 190.25 198.57 182.63"/><polygon class="cls-3" points="276.98 185.33 272.58 192.95 281.38 192.95 276.98 185.33"/><polygon class="cls-3" points="276.98 155.79 272.58 163.41 281.38 163.41 276.98 155.79"/><polygon class="cls-3" points="276.98 165.68 272.58 173.31 281.38 173.31 276.98 165.68"/><polygon class="cls-3" points="276.98 175.48 272.58 183.1 281.38 183.1 276.98 175.48"/><polygon class="cls-3" points="237.3 186.54 232.9 194.16 241.7 194.16 237.3 186.54"/><polygon class="cls-3" points="237.36 176.49 232.96 184.11 241.76 184.11 237.36 176.49"/><polygon class="cls-3" points="237.36 146.95 232.96 154.57 241.76 154.57 237.36 146.95"/><polygon class="cls-3" points="237.36 156.85 232.96 164.47 241.76 164.47 237.36 156.85"/><polygon class="cls-3" points="237.36 166.65 232.96 174.27 241.76 174.27 237.36 166.65"/><polygon class="cls-3" points="80.09 188.56 84.5 180.94 75.69 180.94 80.09 188.56"/><polygon class="cls-3" points="119.78 197.33 124.18 189.71 115.38 189.71 119.78 197.33"/><polygon class="cls-3" points="119.71 187.84 124.11 180.21 115.31 180.21 119.71 187.84"/><path class="cls-4" d="M318.05,466H159.33V384.83H318.05Zm-157.71-1H317v-79.1H160.34Z" transform="translate(-138.45 -258.32)"/><path class="cls-4" d="M436.05,465.83H356v-81h80.06Zm-79.05-1h78v-79H357Z" transform="translate(-138.45 -258.32)"/><path class="cls-2" d="M163.71,391.73h2.84a6.79,6.79,0,0,1,1.78.18,2.07,2.07,0,0,1,.93.52,1.87,1.87,0,0,1,.42.83,7.81,7.81,0,0,1,.11,1.51v.94a4.06,4.06,0,0,1-.21,1.52,1.53,1.53,0,0,1-.79.73,3.72,3.72,0,0,1-1.5.25h-.76v4.37h-2.82Zm2.82,1.86v2.76h.21a.65.65,0,0,0,.54-.2,1.38,1.38,0,0,0,.15-.79v-.89a.7.7,0,0,0-.9-.89Z" transform="translate(-138.45 -258.32)"/><path class="cls-2" d="M173.42,391.73v10.85H170.6V391.73Z" transform="translate(-138.45 -258.32)"/><path class="cls-2" d="M181.26,391.73l-1.43,10.85h-4.29l-1.63-10.85h3q.51,4.49.74,7.59c.14-2.09.3-3.95.46-5.57l.2-2Z" transform="translate(-138.45 -258.32)"/><path class="cls-2" d="M188.19,398.08c0,1.09,0,1.87-.08,2.32a2.6,2.6,0,0,1-1.58,2.11,4,4,0,0,1-1.61.3,4.05,4.05,0,0,1-1.56-.29,2.58,2.58,0,0,1-1.12-.85,2.53,2.53,0,0,1-.5-1.24c-.05-.45-.08-1.23-.08-2.35v-1.85a21.11,21.11,0,0,1,.08-2.32,2.56,2.56,0,0,1,.48-1.24,2.62,2.62,0,0,1,1.09-.87,4,4,0,0,1,1.61-.3,4.11,4.11,0,0,1,1.57.29,2.55,2.55,0,0,1,1.11.85,2.59,2.59,0,0,1,.51,1.24c0,.45.08,1.23.08,2.35Zm-2.82-3.56a3.13,3.13,0,0,0-.09-1,.33.33,0,0,0-.34-.21.4.4,0,0,0-.34.17,2.36,2.36,0,0,0-.12,1v5.07a4.94,4.94,0,0,0,.08,1.16.33.33,0,0,0,.36.22.35.35,0,0,0,.37-.25,5.64,5.64,0,0,0,.08-1.21Z" transform="translate(-138.45 -258.32)"/><path class="cls-2" d="M194.92,391.73v2.17h-1.67v8.68h-2.82V393.9h-1.67v-2.17Z" transform="translate(-138.45 -258.32)"/><path class="cls-3" d="M256.19,397.48c0,.26-.07.51-.1.77s0,.5-.06.74,0,.47,0,.68,0,.41,0,.58,0,.43,0,.6,0,.3,0,.42,0,.2.06.27a.35.35,0,0,0,.09.16.24.24,0,0,0,.12.07l.15,0a1.48,1.48,0,0,0,.35-.05,3.57,3.57,0,0,0,.38-.14l.06.18a2,2,0,0,1-.3.19,3.54,3.54,0,0,1-.39.19,3,3,0,0,1-.39.13,1.1,1.1,0,0,1-.33,0h-.17a.25.25,0,0,1-.14-.08.36.36,0,0,1-.11-.17,1.14,1.14,0,0,1-.08-.32,3.23,3.23,0,0,1,0-.5c0-.21,0-.45,0-.73V400c0-.21,0-.44,0-.68s0-.5,0-.77,0-.55,0-.83a.25.25,0,0,1,0-.16.48.48,0,0,1,.11-.09l.13,0h.14A.87.87,0,0,1,256.19,397.48ZM255.9,396a.46.46,0,0,1-.21-.05.65.65,0,0,1-.16-.13.51.51,0,0,1-.09-.18.52.52,0,0,1,0-.21.67.67,0,0,1,0-.26.6.6,0,0,1,.14-.2.66.66,0,0,1,.17-.12.72.72,0,0,1,.19,0,.46.46,0,0,1,.21.05.33.33,0,0,1,.15.11.42.42,0,0,1,.1.17.46.46,0,0,1,0,.21.62.62,0,0,1,0,.23.7.7,0,0,1-.11.21.65.65,0,0,1-.18.15A.43.43,0,0,1,255.9,396Z" transform="translate(-138.45 -258.32)"/><path class="cls-3" d="M258.34,393.4c-.06.25-.1.51-.14.77s-.07.52-.09.78h.58l.29,0s0,0,0,.06a.11.11,0,0,1,0,.05.1.1,0,0,1-.07.11.58.58,0,0,1-.21,0l-.29,0-.35,0,0,.41c0,.13,0,.26,0,.37s0,.23,0,.33v.26a2.24,2.24,0,0,0,0,.38.66.66,0,0,0,.08.27.34.34,0,0,0,.15.18.43.43,0,0,0,.24.06.66.66,0,0,0,.23,0,1.17,1.17,0,0,0,.3-.12.31.31,0,0,1,.06.13l-.24.15-.25.11a1,1,0,0,1-.23.07.76.76,0,0,1-.21,0,.6.6,0,0,1-.24-.05.5.5,0,0,1-.19-.17,1,1,0,0,1-.12-.33,2.55,2.55,0,0,1,0-.52v-.37c0-.13,0-.25,0-.38s0-.26,0-.39,0-.25,0-.38h-.29l-.22,0a0,0,0,0,1,0,0s0-.05,0-.08l.11-.06.17,0,.22,0c0-.27.06-.53.1-.77s.07-.46.1-.65a.2.2,0,0,1,0-.08s0,0,.06-.06l.07,0h.2Z" transform="translate(-138.45 -258.32)"/><path class="cls-3" d="M259.86,396.59a6,6,0,0,1,.32-.84,3.42,3.42,0,0,1,.35-.56,1.24,1.24,0,0,1,.35-.31.68.68,0,0,1,.33-.09.52.52,0,0,1,.21,0,.46.46,0,0,1,.18.13.82.82,0,0,1,.13.23,1.06,1.06,0,0,1,0,.33v.16c0,.06,0,.14,0,.22a2.11,2.11,0,0,0,0,.26l0,.27c0,.09,0,.18,0,.25a1.62,1.62,0,0,0,0,.21,1.85,1.85,0,0,0,0,.25.53.53,0,0,0,.05.15.14.14,0,0,0,.07.08l.12,0,.21,0,.22-.08,0,.1a.61.61,0,0,1-.18.11l-.22.11-.24.08-.2,0a.29.29,0,0,1-.17,0,.35.35,0,0,1-.09-.16,1.2,1.2,0,0,1,0-.23,2.44,2.44,0,0,1,0-.28c0-.12,0-.24,0-.37l0-.38,0-.32a2.27,2.27,0,0,0,0-.24.56.56,0,0,0-.08-.32.27.27,0,0,0-.23-.11.45.45,0,0,0-.24.09,1.66,1.66,0,0,0-.25.27,3.33,3.33,0,0,0-.24.39c-.07.15-.14.32-.2.49a3.58,3.58,0,0,0-.16.56,3.68,3.68,0,0,0-.07.58l-.42.05h0c0-.15,0-.32,0-.5l0-.59,0-.66c0-.22,0-.45,0-.69s0-.47,0-.71,0-.47,0-.7l0-.69c0-.22,0-.43,0-.63a.24.24,0,0,1,0-.09.18.18,0,0,1,.07-.05l.09,0h.1a.61.61,0,0,1,.25.06c0,.27-.06.51-.08.73s0,.43-.06.62,0,.37-.05.53,0,.32,0,.47,0,.3,0,.44l0,.44,0,.46c0,.16,0,.33,0,.52Z" transform="translate(-138.45 -258.32)"/><path class="cls-3" d="M294.64,397.05c0,.33,0,.67,0,1s0,.71,0,1.07,0,.71-.06,1.07,0,.7-.09,1-.09.67-.15,1-.13.62-.21.9a3.42,3.42,0,0,1-.4,1,2.8,2.8,0,0,1-.54.62,2,2,0,0,1-.6.33,1.89,1.89,0,0,1-.6.1,1.73,1.73,0,0,1-.47-.06,1.15,1.15,0,0,1-.37-.16.7.7,0,0,1-.25-.23.56.56,0,0,1-.08-.27.35.35,0,0,1,0-.17.48.48,0,0,1,.11-.15.46.46,0,0,1,.16-.11.41.41,0,0,1,.19-.05,1.19,1.19,0,0,0,.46.5,1.12,1.12,0,0,0,.56.15,1.15,1.15,0,0,0,.41-.08,1,1,0,0,0,.35-.26,2.33,2.33,0,0,0,.4-.88,9.24,9.24,0,0,0,.22-1.47c0-.58.09-1.26.1-2s0-1.66,0-2.63a.25.25,0,0,1,0-.15.28.28,0,0,1,.1-.09.37.37,0,0,1,.14,0l.14,0A.88.88,0,0,1,294.64,397.05Zm-.36-1.51a.36.36,0,0,1-.21-.05.37.37,0,0,1-.15-.13.4.4,0,0,1-.1-.18.76.76,0,0,1,0-.21.59.59,0,0,1,0-.27.5.5,0,0,1,.13-.19.66.66,0,0,1,.17-.12.43.43,0,0,1,.19,0,.45.45,0,0,1,.2,0,.61.61,0,0,1,.16.12.69.69,0,0,1,.1.17.66.66,0,0,1,0,.21.66.66,0,0,1,0,.23.53.53,0,0,1-.11.21.61.61,0,0,1-.17.15A.43.43,0,0,1,294.28,395.54Z" transform="translate(-138.45 -258.32)"/><g class="cls-5"><rect class="cls-6" width="313.89" height="313.89"/></g><path class="cls-3" d="M296.63,393c-.06.24-.1.5-.14.76s-.07.53-.1.78H297a1.12,1.12,0,0,0,.29,0,.25.25,0,0,1,0,.07.43.43,0,0,1,0,.05.12.12,0,0,1-.08.11l-.2,0h-.29l-.35,0,0,.41,0,.37c0,.12,0,.23,0,.33v.26a2.12,2.12,0,0,0,0,.37,1,1,0,0,0,.07.28.42.42,0,0,0,.15.17.49.49,0,0,0,.25.06l.23,0,.3-.12a.26.26,0,0,1,.06.13,2,2,0,0,1-.25.14l-.24.12-.23.07-.21,0a.47.47,0,0,1-.24-.05.43.43,0,0,1-.19-.17,1.07,1.07,0,0,1-.12-.32,2.66,2.66,0,0,1,0-.53v-.36c0-.13,0-.26,0-.39s0-.25,0-.38,0-.26,0-.38h-.29l-.22,0s0,0,0,0a.09.09,0,0,1,0-.08.3.3,0,0,1,.11-.07l.17-.05.22,0c0-.28.06-.53.1-.78s.06-.45.1-.64a.19.19,0,0,1,0-.09.1.1,0,0,1,.06-.05l.07,0h.08l.12,0Z" transform="translate(-138.45 -258.32)"/><path class="cls-3" d="M298.15,396.15a5.37,5.37,0,0,1,.32-.83,2.58,2.58,0,0,1,.35-.56,1.2,1.2,0,0,1,.34-.31.66.66,0,0,1,.34-.1.78.78,0,0,1,.21,0,1,1,0,0,1,.18.13.71.71,0,0,1,.12.23,1,1,0,0,1,.05.33,1,1,0,0,1,0,.16c0,.07,0,.14,0,.23l0,.26a2.45,2.45,0,0,1,0,.27c0,.09,0,.17,0,.25v.2a1.7,1.7,0,0,0,0,.25.39.39,0,0,0,0,.15.15.15,0,0,0,.08.08l.12,0,.21,0a.83.83,0,0,0,.22-.08l0,.11-.18.11-.22.11-.24.08-.21,0a.21.21,0,0,1-.16-.06.38.38,0,0,1-.09-.15.79.79,0,0,1,0-.23,2.53,2.53,0,0,1,0-.28c0-.12,0-.25,0-.38l0-.37q0-.18,0-.33c0-.09,0-.17,0-.23a.57.57,0,0,0-.08-.33.3.3,0,0,0-.23-.11.42.42,0,0,0-.24.1,1.25,1.25,0,0,0-.25.26,3.52,3.52,0,0,0-.24.4,3.14,3.14,0,0,0-.21.49,4.94,4.94,0,0,0-.15.55c0,.2-.06.39-.08.58l-.41.05h0c0-.15,0-.32,0-.51s0-.38,0-.59l0-.65c0-.23,0-.46,0-.69s0-.47,0-.71l0-.71c0-.23,0-.46,0-.68s0-.44,0-.64a.11.11,0,0,1,0-.08.18.18,0,0,1,.07-.05.19.19,0,0,1,.09,0h.1a.63.63,0,0,1,.25.07c0,.26-.06.51-.08.73s-.05.43-.06.62,0,.36-.06.53,0,.32,0,.47l0,.44,0,.44c0,.14,0,.3,0,.46s0,.33,0,.51Z" transform="translate(-138.45 -258.32)"/></svg>