<svg id="Layer_1" data-name="Layer 1" xmlns="http://www.w3.org/2000/svg" viewBox="0 0 281.87 281.87"><defs><style>.cls-1{fill:#fff;opacity:0;}.cls-2{fill:none;}.cls-3{fill:#59d2fe;}.cls-4{fill:#01a9e6;}.cls-5{fill:#443996;}.cls-6{fill:#bf1f2f;}</style></defs><title>selectionsort</title><rect class="cls-1" width="281.87" height="281.87"/><path class="cls-2" d="M410.07,378.55c0-1-.19-1.29-1.23-1.29V377h18.72c.9,0,1.1.2,1.1,1.1q0,25.91,0,51.81h-.21V402.56a5.41,5.41,0,0,0-5.73-5.7H409.05v-.41c.23,0,.45-.17.72-.45,1.75-1.8,3.52-3.6,5.34-5.34.61-.57.6-.9,0-1.5s-.92-.59-1.48,0c-1.09,1.19-2.27,2.28-3.6,3.6C410.05,387.82,410,383.19,410.07,378.55Z" transform="translate(-154.26 -309.97)"/><path class="cls-3" d="M401.52,416c2.17-2.24,4.42-4.4,6.58-6.65.69-.71,1.07-.86,1.84,0,2.14,2.27,4.38,4.44,6.6,6.63.23.22.41.74.83.49a7.24,7.24,0,0,0,1.2-1.06c-.24-.28-.4-.5-.58-.69-2.77-2.78-5.56-5.53-8.29-8.33-.62-.64-1-.52-1.53,0q-4,4.11-8.12,8.16c-.52.51-.66.82-.05,1.4S400.9,416.64,401.52,416Zm6.62-4.77q-4,4.08-8,8.08c-.55.54-.72.86-.07,1.49s1,.55,1.52,0c2.23-2.29,4.51-4.53,6.77-6.79.22-.22.47-.42.73-.65.27.25.51.45.73.68,2.26,2.26,4.55,4.49,6.77,6.79.59.61.89.46,1.4,0s.57-.79,0-1.32c-2.77-2.71-5.52-5.45-8.22-8.23C409.1,410.53,408.74,410.61,408.14,411.23Zm0,4.77c-2.71,2.77-5.47,5.5-8.19,8.26-.2.2-.66.38-.44.74a10.68,10.68,0,0,0,1.1,1.32c.38-.33.63-.52.85-.73,2.23-2.23,4.5-4.43,6.68-6.72.72-.75,1.08-.66,1.75,0,2.19,2.28,4.47,4.46,6.67,6.73.56.59.85.42,1.31-.06s.71-.72.1-1.32c-2.81-2.73-5.57-5.5-8.31-8.31C409.09,415.33,408.74,415.42,408.18,416Zm20.25-13.44V429.9a5.38,5.38,0,0,1-5.59,5.72q-13.8.06-27.58,0c-3.45,0-5.67-2.36-5.69-6.06-.06-8.88,0-17.75,0-26.63a5.75,5.75,0,0,1,6.28-6.11c4.39.17,8.79,0,13.19,0H422.7A5.41,5.41,0,0,1,428.43,402.56Z" transform="translate(-154.26 -309.97)"/><path class="cls-4" d="M408.32,414c-2.26,2.26-4.54,4.5-6.77,6.79-.57.59-.9.64-1.52,0s-.48-.95.07-1.49q4.06-4,8-8.08c.6-.62,1-.7,1.61,0,2.7,2.78,5.45,5.52,8.22,8.23.55.53.5.81,0,1.32s-.81.65-1.4,0c-2.22-2.3-4.51-4.53-6.77-6.79-.22-.23-.46-.43-.73-.68C408.79,413.55,408.54,413.75,408.32,414Z" transform="translate(-154.26 -309.97)"/><path class="cls-4" d="M401.52,416c-.62.64-.94.51-1.52,0s-.47-.89.05-1.4q4.09-4.05,8.12-8.16c.56-.57.91-.69,1.53,0,2.73,2.8,5.52,5.55,8.29,8.33.18.19.34.41.58.69a7.24,7.24,0,0,1-1.2,1.06c-.42.25-.6-.27-.83-.49-2.22-2.19-4.46-4.36-6.6-6.63-.77-.82-1.15-.67-1.84,0C405.94,411.6,403.69,413.76,401.52,416Z" transform="translate(-154.26 -309.97)"/><path class="cls-4" d="M408.18,418.87c-2.18,2.29-4.45,4.49-6.68,6.72-.22.21-.47.4-.85.73a10.68,10.68,0,0,1-1.1-1.32c-.22-.36.24-.54.44-.74,2.72-2.76,5.48-5.49,8.19-8.26.56-.58.91-.67,1.52-.05,2.74,2.81,5.5,5.58,8.31,8.31.61.6.33.87-.1,1.32s-.75.65-1.31.06c-2.2-2.27-4.48-4.45-6.67-6.73C409.26,418.21,408.9,418.12,408.18,418.87Z" transform="translate(-154.26 -309.97)"/><path class="cls-4" d="M386.33,380.53a2.44,2.44,0,0,1,3,.86c.47.9.24,1.6-.9,2.69,1.44.87,1.84,2,1.12,3.1a3.5,3.5,0,0,1-4.15.76.44.44,0,0,1-.18-.6c.12-.34.35-.23.58-.16a3.26,3.26,0,0,0,1.75.21,1.37,1.37,0,0,0,1.26-1.37,1.33,1.33,0,0,0-1.12-1.36,7.53,7.53,0,0,0-1-.16c-.27,0-.58,0-.59-.39s.33-.34.59-.39a3.56,3.56,0,0,0,1-.27,1.09,1.09,0,0,0,.66-1.27,1.11,1.11,0,0,0-1.09-.94c-.27,0-.56.1-.82.06s-.85.72-1.08,0S385.94,380.64,386.33,380.53Z" transform="translate(-154.26 -309.97)"/><path class="cls-5" d="M363.58,394.94q.06-8.26,0-16.55c0-.9.22-1.12,1.12-1.12q22.08,0,44.14,0c1,0,1.24.33,1.23,1.29-.05,4.64,0,9.27,0,14.23,1.33-1.32,2.51-2.41,3.6-3.6.56-.61.88-.63,1.48,0s.59.93,0,1.5c-1.82,1.74-3.59,3.54-5.34,5.34-.27.28-.49.45-.72.45a1,1,0,0,1-.66-.39c-1.79-1.88-3.62-3.72-5.51-5.51-.67-.63-.36-.92.11-1.39s.74-.71,1.31-.08c1.11,1.23,2.32,2.38,3.74,3.83,0-4.53,0-8.65,0-12.77,0-.71-.26-.85-.9-.85q-20.34,0-40.67,0c-.89,0-.93.42-.93,1.09,0,4.84,0,9.68,0,14.52,0,.71,0,1.17-1,1.16S363.58,395.74,363.58,394.94Z" transform="translate(-154.26 -309.97)"/><path class="cls-2" d="M389.3,381.39a2.44,2.44,0,0,0-3-.86c-.39.11-1.15,0-.92.76s.7-.05,1.08,0,.55-.09.82-.06a1.11,1.11,0,0,1,1.09.94,1.09,1.09,0,0,1-.66,1.27,3.56,3.56,0,0,1-1,.27c-.26,0-.59-.05-.59.39s.32.36.59.39a7.53,7.53,0,0,1,1,.16,1.33,1.33,0,0,1,1.12,1.36,1.37,1.37,0,0,1-1.26,1.37,3.26,3.26,0,0,1-1.75-.21c-.23-.07-.46-.18-.58.16a.44.44,0,0,0,.18.6,3.5,3.5,0,0,0,4.15-.76c.72-1.12.32-2.23-1.12-3.1C389.54,383,389.77,382.29,389.3,381.39Zm-24.62,54.26,13.61,0c3.51,0,5.73-2.34,5.74-5.85,0-9-.08-18,0-27a5.86,5.86,0,0,0-6-6c-4.47.17-8.95,0-13.43,0v-.81c1,0,1-.45,1-1.16,0-4.84,0-9.68,0-14.52,0-.67,0-1.09.93-1.09q20.34,0,40.67,0c.64,0,.91.14.9.85,0,4.12,0,8.24,0,12.77-1.42-1.45-2.63-2.6-3.74-3.83-.57-.63-.86-.38-1.31.08s-.78.76-.11,1.39c1.89,1.79,3.72,3.63,5.51,5.51a1,1,0,0,0,.66.39v.41h0c-4.4,0-8.8.13-13.19,0a5.75,5.75,0,0,0-6.28,6.11c0,8.88-.05,17.75,0,26.63,0,3.7,2.24,6.05,5.69,6.06q13.78.06,27.58,0a5.38,5.38,0,0,0,5.59-5.72h.21q0,17.66,0,35.31c0,.9-.2,1.1-1.1,1.1H364.44V466c.89,0,1.15-.24,1.14-1.18-.05-4.88,0-9.76,0-14.64,0-4,0-7.92,0-11.88,0-.67-.09-1-.89-1Z" transform="translate(-154.26 -309.97)"/><path class="cls-3" d="M355.59,411.65c2.86,2.78,5.67,5.62,8.48,8.47.45.45.72.56,1.22,0,2.82-2.89,5.68-5.73,8.53-8.59l.48-.53a3.7,3.7,0,0,0-1-1.17c-.42-.39-.64.06-.87.28-2.33,2.31-4.66,4.61-6.94,7-.58.59-.89.64-1.49,0-2.25-2.33-4.58-4.58-6.83-6.9-.55-.56-.9-.59-1.43,0S354.93,411,355.59,411.65Zm8.09,10.47c-2.16-2.3-4.45-4.46-6.65-6.72-.56-.57-.9-.44-1.34.07s-.85.67-.18,1.32c2.91,2.84,5.76,5.74,8.64,8.62.17.16.35.3.56.47.27-.25.51-.45.73-.68,2.74-2.74,5.45-5.5,8.21-8.21.57-.57.67-.89.05-1.5s-1-.54-1.53,0c-2.14,2.2-4.37,4.32-6.48,6.55C364.92,422.88,364.51,423,363.68,422.12ZM378,396.82a5.86,5.86,0,0,1,6,6c-.12,9,0,18,0,27,0,3.51-2.23,5.83-5.74,5.85l-13.61,0q-6.87,0-13.73,0a5.53,5.53,0,0,1-5.79-5.83q0-13.56,0-27.1a5.55,5.55,0,0,1,5.89-5.84H364.6C369.08,396.86,373.56,397,378,396.82Z" transform="translate(-154.26 -309.97)"/><path class="cls-4" d="M364,417.14c.6.61.91.56,1.49,0,2.28-2.35,4.61-4.65,6.94-7,.23-.22.45-.67.87-.28a3.7,3.7,0,0,1,1,1.17l-.48.53c-2.85,2.86-5.71,5.7-8.53,8.59-.5.52-.77.41-1.22,0-2.81-2.85-5.62-5.69-8.48-8.47-.66-.65-.33-.92.11-1.41s.88-.56,1.43,0C359.38,412.56,361.71,414.81,364,417.14Z" transform="translate(-154.26 -309.97)"/><path class="cls-4" d="M364.15,425.41c-2.88-2.88-5.73-5.78-8.64-8.62-.67-.65-.18-.91.18-1.32s.78-.64,1.34-.07c2.2,2.26,4.49,4.42,6.65,6.72.83.89,1.24.76,2,0,2.11-2.23,4.34-4.35,6.48-6.55.57-.58.92-.65,1.53,0s.52.93-.05,1.5c-2.76,2.71-5.47,5.47-8.21,8.21-.22.23-.46.43-.73.68C364.5,425.71,364.32,425.57,364.15,425.41Z" transform="translate(-154.26 -309.97)"/><path class="cls-3" d="M329.19,422.12c-2.85-2.86-5.72-5.7-8.54-8.58-.52-.53-.79-.37-1.22.07-2.75,2.79-5.5,5.57-8.29,8.32-.59.57-.52.89,0,1.42s.8.69,1.4.06c2.25-2.32,4.58-4.57,6.83-6.89.59-.6.93-.59,1.51,0,2.28,2.35,4.62,4.65,6.94,7,.2.2.36.62.77.34s.83-.61,1.26-.94C329.5,422.47,329.35,422.28,329.19,422.12Zm-8.26-10.87c2.16,2.24,4.39,4.42,6.6,6.61.24.25.43.58.85.65a3.58,3.58,0,0,0,1.19-1.13c.25-.37-.21-.54-.41-.74-2.76-2.78-5.54-5.53-8.27-8.32-.61-.63-.95-.55-1.52,0-2.7,2.77-5.44,5.51-8.19,8.23-.51.51-.68.84-.06,1.43s1,.57,1.55,0c2.2-2.26,4.47-4.45,6.66-6.72C319.94,410.65,320.29,410.57,320.93,411.25Zm18.7-8.68q0,13.68,0,27.35a5.4,5.4,0,0,1-5.63,5.7q-13.72.06-27.46,0a5.53,5.53,0,0,1-5.78-5.85q-.06-13.56,0-27.11a5.53,5.53,0,0,1,5.91-5.81h27.23A5.44,5.44,0,0,1,339.63,402.57Z" transform="translate(-154.26 -309.97)"/><path class="cls-4" d="M327.53,417.86c-2.21-2.19-4.44-4.37-6.6-6.61-.64-.68-1-.6-1.6,0-2.19,2.27-4.46,4.46-6.66,6.72-.58.59-.94.6-1.55,0s-.45-.92.06-1.43c2.75-2.72,5.49-5.46,8.19-8.23.57-.58.91-.66,1.52,0,2.73,2.79,5.51,5.54,8.27,8.32.2.2.66.37.41.74a3.58,3.58,0,0,1-1.19,1.13C328,418.44,327.77,418.11,327.53,417.86Z" transform="translate(-154.26 -309.97)"/><path class="cls-4" d="M320.65,413.54c2.82,2.88,5.69,5.72,8.54,8.58.16.16.31.35.68.76-.43.33-.84.65-1.26.94s-.57-.14-.77-.34c-2.32-2.3-4.66-4.6-6.94-7-.58-.6-.92-.61-1.51,0-2.25,2.32-4.58,4.57-6.83,6.89-.6.63-.89.43-1.4-.06s-.61-.85,0-1.42c2.79-2.75,5.54-5.53,8.29-8.32C319.86,413.17,320.13,413,320.65,413.54Z" transform="translate(-154.26 -309.97)"/><path class="cls-3" d="M295.2,402.82v26.86a5.56,5.56,0,0,1-5.89,5.95c-4.52,0-9,0-13.55,0s-8.8-.11-13.19,0a5.92,5.92,0,0,1-6.29-6.25c.11-8.84,0-17.67,0-26.5,0-3.77,2.28-6.06,6-6.06h26.86C292.93,396.86,295.2,399.12,295.2,402.82Zm-10.4,9.5c.63-.63.5-1,0-1.53s-.89-.48-1.41,0c-2.24,2.29-4.54,4.51-6.76,6.81-.64.66-1,.64-1.61,0-2.22-2.3-4.53-4.53-6.76-6.82-.53-.54-.84-.62-1.41,0s-.63.91,0,1.52c2.77,2.71,5.5,5.47,8.24,8.21.25.25.46.57.85.64a1.35,1.35,0,0,0,.76-.56C279.21,417.7,282.07,415.07,284.8,412.32Z" transform="translate(-154.26 -309.97)"/><path class="cls-4" d="M275.76,456.47c0,1.95,0,3.91,0,5.87,0,.34.21.84-.49.83s-.49-.5-.5-.84c0-2,0-3.92,0-5.83-.63-.32-1.06.77-1.41.11s.55-.8.95-1C275.56,454.88,275.76,455,275.76,456.47Z" transform="translate(-154.26 -309.97)"/><path class="cls-4" d="M275,417.65c.62.64,1,.66,1.61,0,2.22-2.3,4.52-4.52,6.76-6.81.52-.53.83-.66,1.41,0s.67.9,0,1.53c-2.73,2.75-5.59,5.38-8.15,8.29a1.35,1.35,0,0,1-.76.56c-.39-.07-.6-.39-.85-.64-2.74-2.74-5.47-5.5-8.24-8.21-.62-.61-.56-.94,0-1.52s.88-.51,1.41,0C270.45,413.12,272.76,415.35,275,417.65Z" transform="translate(-154.26 -309.97)"/><path class="cls-4" d="M255.55,440.91a2.71,2.71,0,0,1,0,3.24,18,18,0,0,1-2.7,3h2.84c.36,0,.63.07.62.52s-.31.4-.59.4h-3.83c-.22,0-.5.09-.57-.26a.67.67,0,0,1,.25-.63c.68-.68,1.38-1.34,2-2a9.39,9.39,0,0,0,1.09-1.42,1.77,1.77,0,0,0,0-2.22c-.58-.65-1.36-.49-2.12-.25-.27.08-.57.63-.86,0s.3-.66.6-.8A2.77,2.77,0,0,1,255.55,440.91Z" transform="translate(-154.26 -309.97)"/><path class="cls-3" d="M231.14,435.83c-.38-.32-.84-.18-1.27-.18-4,0-7.91,0-11.87,0s-6.08-2.25-6.08-6.12c0-8.92.07-17.84,0-26.75a5.92,5.92,0,0,1,6-5.95c9,.13,18,0,27,0,3.67,0,6,2.3,6,6q0,13.38,0,26.75c0,3.74-2.31,6-6.08,6-4,0-7.92,0-11.87,0-.43,0-.89-.14-1.27.18Zm9.09-15.47c.47-.5.71-.78.07-1.4q-4.17-4.06-8.22-8.23c-.7-.73-1.14-.64-1.72,0s-1.38,1.55-2.11,2.29c-2,2-4,4-6,6-.23.24-.65.47-.27.88a2.57,2.57,0,0,0,1.12.93c.23-.21.47-.41.69-.63,2.21-2.21,4.45-4.38,6.6-6.64.69-.72,1-.74,1.75,0,2.18,2.29,4.47,4.47,6.67,6.73C239.35,420.93,239.69,420.94,240.23,420.36Z" transform="translate(-154.26 -309.97)"/><path class="cls-6" d="M231.14,435.83h.44A.31.31,0,0,1,231.14,435.83Z" transform="translate(-154.26 -309.97)"/><path class="cls-5" d="M233.73,448.88q19.86,0,39.7,0c1,0,1.44-.18,1.4-1.33-.09-3.12,0-6.24-.05-9.36,0-.73.19-1,.94-.95s1.07.09,1.06,1c0,3.92,0,7.83,0,11.75,0,.75-.23.94-1,.94q-22.24,0-44.49,0c-.82,0-1-.27-1-1,0-3.35,0-6.7,0-10.39-1.3,1.3-2.45,2.38-3.5,3.53-.56.61-.88.54-1.4,0s-.72-.79-.07-1.4c2-1.88,3.84-3.84,5.75-5.77a.31.31,0,0,0,.44,0c1.91,1.93,3.79,3.89,5.75,5.77.65.62.41.92-.08,1.4s-.79.76-1.38.09c-1.05-1.19-2.2-2.28-3.55-3.66,0,3.19,0,6.05,0,8.9,0,.42.18.57.57.55Z" transform="translate(-154.26 -309.97)"/><path class="cls-4" d="M228.25,413.07c.73-.74,1.44-1.5,2.11-2.29s1-.78,1.72,0q4,4.17,8.22,8.23c.64.62.4.9-.07,1.4s-.88.57-1.44,0c-2.2-2.26-4.49-4.44-6.67-6.73-.7-.73-1.06-.71-1.75,0-2.15,2.26-4.39,4.43-6.6,6.64-.22.22-.46.42-.69.63A2.57,2.57,0,0,1,222,420c-.38-.41,0-.64.27-.88C224.23,417.09,226.25,415.09,228.25,413.07Z" transform="translate(-154.26 -309.97)"/><path class="cls-2" d="M275.26,463.17c.7,0,.49-.49.49-.83,0-2,0-3.92,0-5.87,0-1.44-.2-1.59-1.46-.89-.4.23-1.37.23-.95,1s.78-.43,1.41-.11c0,1.91,0,3.87,0,5.83C274.77,462.67,274.57,463.17,275.26,463.17Zm87.19.78q-86.58,0-173.14,0c-.9,0-1.22-.17-1.21-1.16,0-7.4,0-14.8,0-22.2,0-.28-.16-.63.29-.95,1.1,1.14,2.24,2.26,3.3,3.45.55.63.85.4,1.3-.08s.81-.74.12-1.4c-2-1.87-3.85-3.84-5.76-5.77.38-.33.84-.19,1.26-.19,3.92,0,7.84,0,11.76,0,3.68,0,6-2.34,6-6q0-13.38,0-26.76a5.58,5.58,0,0,0-6-6c-9,0-17.92.1-26.88-.05a6,6,0,0,0-6.06,6.1H167q0-12.41,0-24.82c0-.9.2-1.1,1.1-1.1q120.36,0,240.72,0v.27q-22.06.06-44.14,0c-.9,0-1.13.22-1.12,1.12q.06,8.28,0,16.55c0,.8.13,1.09,1,1.11v.81H351.05a5.55,5.55,0,0,0-5.89,5.84q0,13.55,0,27.1a5.53,5.53,0,0,0,5.79,5.83q6.85,0,13.73,0v1.6c-.94,0-1.1.3-1.1,1.16,0,8.12,0,16.24,0,24.36C363.63,463.7,363.39,464,362.45,464Zm-86.69-28.31c4.51,0,9,0,13.55,0a5.56,5.56,0,0,0,5.89-5.95V402.82c0-3.7-2.27-6-6-6H262.35c-3.75,0-6,2.29-6,6.06,0,8.83.07,17.66,0,26.5a5.92,5.92,0,0,0,6.29,6.25C267,435.53,271.36,435.64,275.76,435.64Zm-2.33,13.26q-19.85,0-39.7,0h-.84c-.39,0-.57-.13-.57-.55,0-2.85,0-5.71,0-8.9,1.35,1.38,2.5,2.47,3.55,3.66.59.67.91.39,1.38-.09s.73-.78.08-1.4c-2-1.88-3.84-3.84-5.75-5.77.38-.32.84-.18,1.27-.18,4,0,7.91,0,11.87,0,3.77,0,6.07-2.3,6.08-6q0-13.38,0-26.75c0-3.69-2.31-6-6-6-9,0-18,.09-27,0a5.92,5.92,0,0,0-6,5.95c.11,8.91,0,17.83,0,26.75,0,3.87,2.21,6.1,6.08,6.12s7.92,0,11.87,0c.43,0,.89-.14,1.27.18-1.91,1.93-3.79,3.89-5.75,5.77-.65.61-.39.9.07,1.4s.84.63,1.4,0c1-1.15,2.2-2.23,3.5-3.53,0,3.69,0,7,0,10.39,0,.76.17,1,1,1q22.24,0,44.49,0c.73,0,1-.19,1-.94,0-3.92,0-7.83,0-11.75,0-.87-.36-.93-1.06-1s-1,.22-.94.95c0,3.12,0,6.24.05,9.36C274.87,448.72,274.46,448.9,273.43,448.9Zm-17.74-.85c.28,0,.57,0,.59-.4s-.26-.52-.62-.52h-2.84a18,18,0,0,0,2.7-3,2.71,2.71,0,0,0,0-3.24,2.77,2.77,0,0,0-3.31-.45c-.3.14-.89.19-.6.8s.59.05.86,0c.76-.24,1.54-.4,2.12.25a1.77,1.77,0,0,1,0,2.22,9.39,9.39,0,0,1-1.09,1.42c-.65.7-1.35,1.36-2,2a.67.67,0,0,0-.25.63c.07.35.35.26.57.26Zm83.94-18.13q0-13.68,0-27.35a5.44,5.44,0,0,0-5.72-5.71H306.68a5.53,5.53,0,0,0-5.91,5.81q-.07,13.56,0,27.11a5.53,5.53,0,0,0,5.78,5.85q13.74,0,27.46,0A5.4,5.4,0,0,0,339.63,429.92Z" transform="translate(-154.26 -309.97)"/><path class="cls-6" d="M186.91,435.75l.47.09A.31.31,0,0,1,186.91,435.75Z" transform="translate(-154.26 -309.97)"/><path class="cls-5" d="M363.62,462.77c0-8.12,0-16.24,0-24.36,0-.86.16-1.19,1.1-1.16s.9.34.89,1c0,4,0,7.92,0,11.88,0,4.88,0,9.76,0,14.64,0,.94-.25,1.18-1.14,1.18h-.06c-7.31,0-14.63,0-21.95,0H187.64c-1.73,0-1.53.18-1.53-1.54V439.84l-.36-.25c-1.07,1.16-2.18,2.3-3.2,3.5-.57.67-.88.3-1.32-.12s-.71-.75-.09-1.33c1.62-1.54,3.18-3.15,4.76-4.74.36-.36.68-.76,1-1.15a.31.31,0,0,0,.47.09c1.91,1.93,3.79,3.9,5.76,5.77.69.66.32.93-.12,1.4s-.75.71-1.3.08c-1.06-1.19-2.2-2.31-3.3-3.45-.45.32-.29.67-.29.95,0,7.4,0,14.8,0,22.2,0,1,.31,1.16,1.21,1.16q86.57,0,173.14,0C363.39,464,363.63,463.7,363.62,462.77Z" transform="translate(-154.26 -309.97)"/><path class="cls-3" d="M186.91,435.75a2.82,2.82,0,0,0-1.29-.11h-12c-3.91,0-6.12-2.22-6.13-6.09,0-8.88.09-17.76,0-26.64a6,6,0,0,1,6.06-6.1c9,.15,17.92.05,26.88.05a5.58,5.58,0,0,1,6,6q0,13.38,0,26.76c0,3.68-2.29,6-6,6-3.92,0-7.84,0-11.76,0-.42,0-.88-.14-1.26.19Zm-7.56-22.19c2.25-2.33,4.58-4.58,6.84-6.9.53-.54.81-.5,1.31,0,2.29,2.35,4.62,4.66,6.95,7,.2.19.37.66.75.36a3.26,3.26,0,0,0,1.13-1.27c-.18-.21-.35-.43-.54-.62-2.77-2.77-5.55-5.53-8.3-8.33-.52-.53-.79-.53-1.31,0-2.74,2.8-5.5,5.59-8.3,8.33-.61.6-.43.92.06,1.44S178.78,414.14,179.35,413.56Zm6.83-5c-2.74,2.8-5.5,5.59-8.3,8.33-.61.6-.43.92.06,1.44s.84.59,1.41,0c2.25-2.32,4.58-4.58,6.84-6.9.53-.54.8-.51,1.31,0,2.29,2.35,4.62,4.66,6.95,7,.2.19.37.66.75.36a3.26,3.26,0,0,0,1.13-1.27c-.18-.21-.35-.43-.54-.62-2.77-2.77-5.55-5.53-8.3-8.33C187,408.05,186.7,408.05,186.18,408.58Zm-.11,4.9q-4,4.13-8.12,8.17c-.62.6-.57.94,0,1.52s.88.51,1.4,0c2.21-2.27,4.48-4.46,6.68-6.73.6-.62.92-.72,1.57,0,2.24,2.34,4.56,4.61,6.86,6.89.2.19.38.66.76.32a3,3,0,0,0,1.09-1.27c-.21-.24-.41-.48-.63-.71-2.72-2.71-5.45-5.41-8.13-8.16C186.94,412.8,186.63,412.91,186.07,413.48Zm.28,4.54q-4.31,4.35-8.63,8.68c-.22.23-.51.47-.17.8a3.39,3.39,0,0,0,1.35,1.08,6,6,0,0,1,.53-.72c2.2-2.22,4.44-4.39,6.59-6.64.68-.71,1-.62,1.66,0,2.23,2.3,4.53,4.52,6.76,6.81.52.54.83.44,1.22-.06s1-.66.3-1.34q-4.35-4.29-8.65-8.65C186.93,417.63,186.71,417.66,186.35,418Z" transform="translate(-154.26 -309.97)"/><path class="cls-4" d="M186,421.22c-2.15,2.25-4.39,4.42-6.59,6.64a6,6,0,0,0-.53.72,3.39,3.39,0,0,1-1.35-1.08c-.34-.33-.05-.57.17-.8q4.32-4.33,8.63-8.68c.36-.36.58-.39,1,0q4.31,4.35,8.65,8.65c.69.68,0,.94-.3,1.34s-.7.6-1.22.06c-2.23-2.29-4.53-4.51-6.76-6.81C187.06,420.6,186.7,420.51,186,421.22Z" transform="translate(-154.26 -309.97)"/><path class="cls-4" d="M186,416.41c-2.2,2.27-4.47,4.46-6.68,6.73-.52.54-.83.62-1.4,0s-.63-.92,0-1.52q4.11-4,8.12-8.17c.56-.57.87-.68,1.49,0,2.68,2.75,5.41,5.45,8.13,8.16.22.23.42.47.63.71a3,3,0,0,1-1.09,1.27c-.38.34-.56-.13-.76-.32-2.3-2.28-4.62-4.55-6.86-6.89C187,415.69,186.64,415.79,186,416.41Z" transform="translate(-154.26 -309.97)"/><path class="cls-4" d="M186.19,406.66c-2.26,2.32-4.59,4.57-6.84,6.9-.57.58-.88.55-1.41,0s-.67-.84-.06-1.44c2.8-2.74,5.56-5.53,8.3-8.33.52-.53.79-.53,1.31,0,2.75,2.8,5.53,5.56,8.3,8.33.19.19.36.41.54.62A3.26,3.26,0,0,1,195.2,414c-.38.3-.55-.17-.75-.36-2.33-2.31-4.66-4.62-6.95-7C187,406.16,186.72,406.12,186.19,406.66Z" transform="translate(-154.26 -309.97)"/><path class="cls-4" d="M186.19,411.46c-2.26,2.32-4.59,4.58-6.84,6.9-.57.58-.88.55-1.41,0s-.67-.84-.06-1.44c2.8-2.74,5.56-5.53,8.3-8.33.52-.53.79-.53,1.31,0,2.75,2.8,5.53,5.56,8.3,8.33.19.19.36.41.54.62a3.26,3.26,0,0,1-1.13,1.27c-.38.3-.55-.17-.75-.36-2.33-2.31-4.66-4.62-6.95-7C187,411,186.72,410.92,186.19,411.46Z" transform="translate(-154.26 -309.97)"/><path class="cls-2" d="M342.43,465.94c7.32,0,14.64,0,21.95,0h.06v.34H297.72q-64.8,0-129.6,0c-.9,0-1.1-.2-1.1-1.1q0-31.15,0-62.3h.42c.13,8.88,0,17.76,0,26.64,0,3.87,2.22,6.07,6.13,6.09h12a2.82,2.82,0,0,1,1.29.11c-.33.39-.65.79-1,1.15-1.58,1.59-3.14,3.2-4.76,4.74-.62.58-.38.88.09,1.33s.75.79,1.32.12c1-1.2,2.13-2.34,3.2-3.5l.36.25V464.4c0,1.72-.2,1.54,1.53,1.54Z" transform="translate(-154.26 -309.97)"/></svg>