<svg id="Layer_1" data-name="Layer 1" xmlns="http://www.w3.org/2000/svg" viewBox="0 0 426.94 426.94"><defs><style>.cls-1{fill:#19a8e0;}.cls-2{fill:#fff;}.cls-3{opacity:0;}.cls-4{fill:#64cdf6;}</style></defs><title>sorting</title><path class="cls-1" d="M435.85,331.74a6,6,0,0,1-.65-12l1.57-.18a6,6,0,0,1,1.31,11.93l-1.57.18Q436.18,331.74,435.85,331.74Z" transform="translate(-75.78 -182.02)"/><path class="cls-1" d="M405.38,335.1a6,6,0,0,1-.65-12l.55-.06A6,6,0,0,1,406.59,335l-.55.06C405.82,335.08,405.6,335.1,405.38,335.1Zm15.77-1.74a6,6,0,0,1-.65-12l5.08-.56a6,6,0,1,1,1.31,11.92l-5.07.56A5.12,5.12,0,0,1,421.15,333.36Z" transform="translate(-75.78 -182.02)"/><path class="cls-1" d="M136,364.76a6,6,0,0,1-.65-12l.74-.08a6,6,0,0,1,1.31,11.93l-.73.08C136.42,364.74,136.2,364.76,136,364.76Zm16-1.76a6,6,0,0,1-.65-12l5.07-.55a6,6,0,0,1,1.32,11.92l-5.08.56A4.87,4.87,0,0,1,151.94,363Zm20.29-2.24a6,6,0,0,1-.65-12l5.08-.56A6,6,0,0,1,178,360.17l-5.07.56C172.68,360.75,172.45,360.76,172.23,360.76Zm20.3-2.23a6,6,0,0,1-.65-12L197,346a6,6,0,1,1,1.31,11.92l-5.08.56A4.87,4.87,0,0,1,192.53,358.53Zm20.3-2.23a6,6,0,0,1-.65-12l5.07-.56a6,6,0,0,1,1.32,11.93l-5.08.56C213.27,356.28,213.05,356.3,212.83,356.3Zm20.29-2.24a6,6,0,0,1-.65-12l5.08-.56a6,6,0,0,1,1.31,11.93l-5.07.55A5.12,5.12,0,0,1,233.12,354.06Zm20.3-2.23a6,6,0,0,1-.65-12l5.07-.56a6,6,0,1,1,1.32,11.93l-5.08.56C253.86,351.81,253.64,351.83,253.42,351.83Zm20.3-2.24a6,6,0,0,1-.65-12l5.07-.56A6,6,0,0,1,279.45,349l-5.07.56ZM294,347.36a6,6,0,0,1-.65-12l5.08-.56a6,6,0,0,1,1.31,11.93l-5.07.56A5.12,5.12,0,0,1,294,347.36Zm20.3-2.24a6,6,0,0,1-.65-12l5.07-.56a6,6,0,0,1,1.32,11.93l-5.08.56Q314.64,345.12,314.31,345.12Zm20.29-2.23a6,6,0,0,1-.64-12l5.07-.55a6,6,0,1,1,1.31,11.92l-5.07.56A5,5,0,0,1,334.6,342.89Zm20.3-2.24a6,6,0,0,1-.65-12l5.08-.56a6,6,0,0,1,1.31,11.93l-5.07.56Zm20.3-2.23a6,6,0,0,1-.65-12l5.07-.55a6,6,0,0,1,1.32,11.92l-5.08.56A4.87,4.87,0,0,1,375.2,338.42Zm20.29-2.24a6,6,0,0,1-.64-12l5.07-.56a6,6,0,0,1,1.31,11.93l-5.07.56C395.94,336.17,395.71,336.18,395.49,336.18Z" transform="translate(-75.78 -182.02)"/><path class="cls-1" d="M129.6,365.46a6,6,0,0,1-.65-12l1.57-.17a6,6,0,0,1,1.32,11.93l-1.57.17A5.12,5.12,0,0,1,129.6,365.46Z" transform="translate(-75.78 -182.02)"/><path class="cls-2" d="M310.44,398.08a21.19,21.19,0,1,1-21.19-21.2,21.19,21.19,0,0,1,21.19,21.2" transform="translate(-75.78 -182.02)"/><path class="cls-1" d="M289.25,424.27a26.2,26.2,0,1,1,26.19-26.19A26.22,26.22,0,0,1,289.25,424.27Zm0-42.39a16.2,16.2,0,1,0,16.19,16.2A16.21,16.21,0,0,0,289.25,381.88Z" transform="translate(-75.78 -182.02)"/><path class="cls-2" d="M452.4,387.16A21.19,21.19,0,1,1,431.21,366a21.19,21.19,0,0,1,21.19,21.2" transform="translate(-75.78 -182.02)"/><path class="cls-1" d="M431.21,413.35a26.2,26.2,0,1,1,26.19-26.19A26.21,26.21,0,0,1,431.21,413.35Zm0-42.39a16.2,16.2,0,1,0,16.19,16.2A16.21,16.21,0,0,0,431.21,371Z" transform="translate(-75.78 -182.02)"/><path class="cls-2" d="M149.51,395.48a21.19,21.19,0,1,1-21.19-21.19,21.19,21.19,0,0,1,21.19,21.19" transform="translate(-75.78 -182.02)"/><path class="cls-1" d="M128.32,421.68a26.2,26.2,0,1,1,26.19-26.2A26.22,26.22,0,0,1,128.32,421.68Zm0-42.39a16.2,16.2,0,1,0,16.19,16.19A16.21,16.21,0,0,0,128.32,379.29Z" transform="translate(-75.78 -182.02)"/><path class="cls-2" d="M252.5,397.62a21.19,21.19,0,1,1-21.19-21.19,21.19,21.19,0,0,1,21.19,21.19" transform="translate(-75.78 -182.02)"/><path class="cls-1" d="M231.31,423.81a26.19,26.19,0,1,1,26.19-26.19A26.22,26.22,0,0,1,231.31,423.81Zm0-42.38a16.19,16.19,0,1,0,16.19,16.19A16.2,16.2,0,0,0,231.31,381.43Z" transform="translate(-75.78 -182.02)"/><path class="cls-2" d="M202.08,395.68a21.19,21.19,0,1,1-21.19-21.19,21.19,21.19,0,0,1,21.19,21.19" transform="translate(-75.78 -182.02)"/><path class="cls-1" d="M180.89,421.87a26.19,26.19,0,1,1,26.19-26.19A26.22,26.22,0,0,1,180.89,421.87Zm0-42.38a16.19,16.19,0,1,0,16.19,16.19A16.2,16.2,0,0,0,180.89,379.49Z" transform="translate(-75.78 -182.02)"/><path class="cls-1" d="M319.63,401.47c-1.36-.34-2.84-.71-4.35-1.16a27.79,27.79,0,0,0-16.58-23.82,2.62,2.62,0,0,0-3,.32,2.88,2.88,0,0,0-3.23-.56,3.18,3.18,0,0,0-.13-.51c-2-5.74-10.36-5.45-14.67-2.63-2.35,1.54-3.74,3.9-5.24,6.2-2.29,3.49-5,3.74-8.93,3.47-3.45-.25-3.44,5.13,0,5.37a17.71,17.71,0,0,0,7.33-.76c-.1.24-.2.48-.29.72s-.47.31-.71.46a16,16,0,0,1-7.57,2.2c-3.44.17-3.46,5.54,0,5.38a22.15,22.15,0,0,0,7.24-1.48l.07,0a3.1,3.1,0,0,0,.07,1.57,24,24,0,0,1-7,.78c-3.46-.11-3.46,5.27,0,5.37a28.23,28.23,0,0,0,7.37-.77,2.75,2.75,0,0,0,1.06,0c10.11-2.32,19.93-9.47,20.25-20.12l.12.27c.09,3.17.68,6.4,3.3,8.51.5.4,1.43.67,1.86,1.07a5.42,5.42,0,0,1,.36,1.28,11.54,11.54,0,0,0,2.05,4.28c2.64,3.45,6.78,5.76,11.11,7.4,0,.27,0,.54,0,.81a112.33,112.33,0,0,1,.17,12.58c-.19,3.45,5.18,3.44,5.37,0a104.94,104.94,0,0,0-.11-11.63c.87.24,1.72.46,2.54.66,3.36.81,4.8-4.37,1.43-5.18m-34.52-23a2.78,2.78,0,0,0-.63-.29c-2.46-.79-4.67,1.24-6.4,3.76a2.65,2.65,0,0,0-1.72,1.43l-.13-.06.25-.32c1.32-1.87,2.28-4.15,4.27-5.42a6.7,6.7,0,0,1,3.43-1,10.18,10.18,0,0,1,2.24.23,2.67,2.67,0,0,0-.55,1.76,3.21,3.21,0,0,0-.76-.07" transform="translate(-75.78 -182.02)"/><path class="cls-1" d="M267.51,403.5c-2.67,2.51-6.08,2.73-9.37,4s-1.82,6.4,1.43,5.18c4.26-1.6,8.28-2.09,11.74-5.34,2.53-2.37-1.27-6.16-3.8-3.8" transform="translate(-75.78 -182.02)"/><path class="cls-1" d="M274.44,409.22a2.77,2.77,0,0,0-3.8,0c.39-.3-.41.27-.49.32-.25.16-.5.31-.76.45l-.68.32-.67.24a2.69,2.69,0,0,0,1.43,5.18,15.93,15.93,0,0,0,5-2.71,2.69,2.69,0,0,0,0-3.8" transform="translate(-75.78 -182.02)"/><path class="cls-1" d="M133.93,387.48" transform="translate(-75.78 -182.02)"/><path class="cls-1" d="M140.57,388h-1a3.05,3.05,0,0,0-3.12-2.84,2.61,2.61,0,0,0-2.78,2.84h-1a3.61,3.61,0,0,1,3.78-3.84A4.06,4.06,0,0,1,140.57,388Z" transform="translate(-75.78 -182.02)"/><path class="cls-1" d="M148.13,385H145a2.84,2.84,0,0,0-.1-.49,3,3,0,0,0-.27-1.87,6,6,0,0,0-1.74-2.07,7.93,7.93,0,0,0-1.25-.9,4,4,0,0,0-2.38-.4,2.56,2.56,0,0,0-1.37-.49,2.62,2.62,0,0,0-1.85-1.28,2.85,2.85,0,0,0-2.37-1.49l-4-.35a2.45,2.45,0,0,0-1.91.8c-.68-.06-1.38,0-2.07,0a2.65,2.65,0,0,0-1.51.46,2.59,2.59,0,0,0-2-.61,3.27,3.27,0,0,0-1.74.71,2.9,2.9,0,0,0-.54-.22,2.72,2.72,0,0,0-3.3,1.88l-.06.32a2.64,2.64,0,0,0-2.1,1.29c-.18.31-.36.61-.56.9l-.17.22c-.09.11-.19.22-.28.34a5.27,5.27,0,0,0-.75,1.13,2.8,2.8,0,0,0-1.08,2.43h-.54c-3.46,0-3.46,5.37,0,5.37h19.75a2.69,2.69,0,0,0,2.27-4,2.81,2.81,0,0,0,.53-.7l0-.05a2.46,2.46,0,0,0,.64-.8,2.73,2.73,0,0,0,1.23-.35,3.58,3.58,0,0,0,.48,0,2.65,2.65,0,0,0,.87-.14,2.56,2.56,0,0,0,.75.11,2.85,2.85,0,0,0,.68.22,2.3,2.3,0,0,0,.51.35,2.73,2.73,0,0,0,.23.25l.07.07a1.91,1.91,0,0,0,.64.45,2.72,2.72,0,0,0,.16.74,2.62,2.62,0,0,0,2.43,3.58h5.77c3.45,0,3.46-5.38,0-5.38" transform="translate(-75.78 -182.02)"/><path class="cls-1" d="M427,407.64c-1.44-.84-3.16-1.38-4.57-2l-.27-.13a2.56,2.56,0,0,0,.17-1c-.1-4.11-.63-8.35-3.41-11.47a10.15,10.15,0,0,0,.6-6.92c-.34-1.32-1.07-3.58-2.17-4.52,0-.06-.06-.11-.08-.16a7.22,7.22,0,0,0,1.23-2.3,12.17,12.17,0,0,0,.41-8.21,2.73,2.73,0,0,0,.95-1.13,2.55,2.55,0,0,0,1.34.79,4.4,4.4,0,0,0,2.47-.06,3.37,3.37,0,0,0,.58.54c2.37,1.67,5.07,3.15,8.07,2.51a7.06,7.06,0,0,0,4.77-3.69c-.39,2.19-.58,4.83,1.11,6.32a7.87,7.87,0,0,0,2.93,1.4,14.69,14.69,0,0,0,2.07.45c-.5,1.9-.81,3.66.38,5.79a6.9,6.9,0,0,0,6.42,3.41l.18,0a14.38,14.38,0,0,0,3.78,7.6,2.31,2.31,0,0,0-1.34,1.64l-.35,1.68a2.16,2.16,0,0,0-.68.54,11.69,11.69,0,0,0-2.29,4h-.17a2.6,2.6,0,0,0-2.58,2.61c-.19.2-.36.4-.53.61a2.08,2.08,0,0,0-2.67.71,16.26,16.26,0,0,1-1.44,1.63h-.14a3.94,3.94,0,0,0-2.66,1.05c-.93-2.34-5.12-2-5.19,1.07-.1,5.21,5.8,11,10.82,11.67,4.09.54,10-.95,11.79-4.72,4.34.53,8.94.3,12.19-3a11.14,11.14,0,0,0,1.84-12.81c-.08-.15-.17-.33-.28-.51a7.6,7.6,0,0,0,2.44-1.82,9.59,9.59,0,0,0,2.51-6.07,14.74,14.74,0,0,0-2.23-8,27.64,27.64,0,0,0-2.49-3.68c-.53-.68-1.39-1.44-2-2.2a14.56,14.56,0,0,0,1.17-2.14,10.82,10.82,0,0,0,.57-3.28,12.28,12.28,0,0,0-1.88-6.8c-2.69-4.27-7.88-6.37-12.79-6.31a15,15,0,0,1-1.63.11l-.38,0c0-.06,0-.15-.15-.29a22.92,22.92,0,0,0-2.09-2.54,10.46,10.46,0,0,0-6.25-2.65,8.82,8.82,0,0,0-8.37,4.86c-1.17-3.31-3.64-5.82-8-5.56a8.37,8.37,0,0,0-6.48,3.85,9.21,9.21,0,0,0-1.28,3.32c-.89-.25-2.18-1-2.8-1.21a14.48,14.48,0,0,0-5.43-.64,11.1,11.1,0,0,0-8.55,4.92c-2.17,3.53-.18,6.25,1.72,9.3.41.66,1.5,2.07,1.43,2.93s-1,1.39-1.82,2c-2,1.48-4,2.95-6,4.44-2.82,2.12-5,4.49-4.6,8.25s3.2,7,1.89,11c-1.18,3.63-5.1,4.57-7.34,7.35a6.78,6.78,0,0,0,0,9c2.82,3,6.86,3,10.7,2.86a24.58,24.58,0,0,0,4.65-.47,6.94,6.94,0,0,0,4.54,4.83,10.1,10.1,0,0,0,6.13.09,11,11,0,0,0,1.57-.59h0a2.47,2.47,0,0,0,1.93.82,2.77,2.77,0,0,0,.78-.11l.27,0a2.45,2.45,0,0,0,2-.93,6.83,6.83,0,0,0,1.33-1.19,5.64,5.64,0,0,0,2.74-1.31,4.36,4.36,0,0,0,1.2-1.78,2.33,2.33,0,0,0,.38-.08,5.28,5.28,0,0,0,2.36-1.67,6.37,6.37,0,0,0,1.39-4,9.68,9.68,0,0,0,.34-8.84,2.54,2.54,0,0,0-.81-1m-18.4-20.48c-.14,1.84-.27,3.84-1.77,5.11a1.75,1.75,0,0,0-.32.35,6.09,6.09,0,0,0-1.25-2.41,3,3,0,0,0-.56-4.92,13.13,13.13,0,0,0,2.89-2.64,5.88,5.88,0,0,0,1.14,3.83,3.72,3.72,0,0,0-.13.68m1.12-8.65a8.18,8.18,0,0,1-1.1,1.89,5.56,5.56,0,0,0,0-2,10.78,10.78,0,0,0-.45-1.69,5.47,5.47,0,0,0,1.89-.31,6.92,6.92,0,0,1-.36,2.11m1.69,24.76c-.11-.1-.2-.21-.31-.31a18.6,18.6,0,0,1,.93-2.59,12.56,12.56,0,0,1,.83,4.07,16.13,16.13,0,0,1-1.45-1.17m11.53-35a3.07,3.07,0,0,0-.64-.34c0-.25,0-.5-.08-.75a5.76,5.76,0,0,0,.46-.89l.06,0,2.77,1.7a2.65,2.65,0,0,0,2.59,0,1.85,1.85,0,0,0,0,.23,2.52,2.52,0,0,0,.17,1.13c-1.13,1.95-4.08-.27-5.32-1.15m10.86,1.12a2.18,2.18,0,0,0-.34-1.06v-.09a3.15,3.15,0,0,0,1.77-.15,3,3,0,0,0,.16.48,2.21,2.21,0,0,0-1.59.82m11.36,10.3a2.59,2.59,0,0,0-.38-.17,3.65,3.65,0,0,0-.34-3.22,4.06,4.06,0,0,0-3.34-1.59,5.61,5.61,0,0,1-2.56-.44c-.61-.46-.29-1.16-.05-2.36a3,3,0,0,0,0-1c1.66.71,3.42,1.15,5.12,1.75a1.73,1.73,0,0,0,.14.31,34.88,34.88,0,0,1,3.39,8.33l.12.45a5.79,5.79,0,0,0-2.13-2" transform="translate(-75.78 -182.02)"/><path class="cls-1" d="M252.55,392.91l-1.87-.57a3.05,3.05,0,0,0-1-2.41l-.1-.27.12-.15c1.68-2.32-.53-5.22-2-7a16.23,16.23,0,0,0-1.63-1.68,9.45,9.45,0,1,0-11.34-4,1.88,1.88,0,0,0-.36.24,2.61,2.61,0,0,0-4.49,0,1.71,1.71,0,0,0-.11.14,2.52,2.52,0,0,0-2.18.15c-2,1.1-4,2.15-5.87,3.33-1.69,1-3.21,2.93-5.13,3.44a2.42,2.42,0,0,0-1.9,2.25l-1.77,0c-2.55,0-3.22,2.85-2,4.41-1.34,1.66-.74,4.68,1.86,4.36,5.5-.68,10.81-2.22,15.26-5.65a21.85,21.85,0,0,0,5.19-5.45,11,11,0,0,0,3,7.4,2.58,2.58,0,0,0,.82,1.17c2.79,3.79,8.18,5.94,12.54,6.81a2.68,2.68,0,0,0,2.85-1.2,2.78,2.78,0,0,0,.11-5.28" transform="translate(-75.78 -182.02)"/><path class="cls-1" d="M201.11,388.78c-.85-.38-1.86-.74-2.87-1.13a3.21,3.21,0,0,0-.29-1.76,28.39,28.39,0,0,0-2.53-4.94l-.19-.23a16.24,16.24,0,0,0-.72-1.61,2.58,2.58,0,0,0-2.07-1.29,2.88,2.88,0,0,0-3.33-.51,2.66,2.66,0,0,0-3.71-1.46,2.67,2.67,0,0,0-3.2-1.66l-1,.25a2.37,2.37,0,0,0-1.78,1.6,3.11,3.11,0,0,0-1.56.61c-.3.23-.59.48-.89.72a2.53,2.53,0,0,0-1,.21c-3.81,1.55-7.77,3.15-10.59,6.27-1.6,1.76-3.77,5.14-3.45,7.88a21,21,0,0,1-2.26-.06c-3.45-.28-3.43,5.09,0,5.37s7.06-.52,10.46-1.22a35.17,35.17,0,0,0,9.53-3.23,17.91,17.91,0,0,0,8.31-8.93,1.6,1.6,0,0,0,.05.21c0,6.64,5.29,10.59,11.7,11a2.44,2.44,0,0,0,2.54-3.07,2.18,2.18,0,0,0-1.18-3" transform="translate(-75.78 -182.02)"/><path class="cls-2" d="M374.53,390.65a21.2,21.2,0,1,1-21.19-21.19,21.19,21.19,0,0,1,21.19,21.19" transform="translate(-75.78 -182.02)"/><path class="cls-1" d="M353.33,416.84a26.19,26.19,0,1,1,26.2-26.19A26.22,26.22,0,0,1,353.33,416.84Zm0-42.38a16.19,16.19,0,1,0,16.2,16.19A16.21,16.21,0,0,0,353.33,374.46Z" transform="translate(-75.78 -182.02)"/><path class="cls-1" d="M358.94,382.64" transform="translate(-75.78 -182.02)"/><path class="cls-1" d="M365.58,383.14h-1a3.06,3.06,0,0,0-3.12-2.85,2.61,2.61,0,0,0-2.78,2.85h-1a3.61,3.61,0,0,1,3.78-3.85A4.06,4.06,0,0,1,365.58,383.14Z" transform="translate(-75.78 -182.02)"/><path class="cls-1" d="M373.14,380.18h-3.09a2.77,2.77,0,0,0-.1-.5,3,3,0,0,0-.26-1.87,6.13,6.13,0,0,0-1.75-2.07,7.87,7.87,0,0,0-1.25-.89,3.81,3.81,0,0,0-2.38-.4,2.49,2.49,0,0,0-1.37-.5,2.56,2.56,0,0,0-1.84-1.27,2.85,2.85,0,0,0-2.38-1.49l-4-.36a2.41,2.41,0,0,0-1.91.81,17.87,17.87,0,0,0-2.07,0,2.53,2.53,0,0,0-1.51.46,2.57,2.57,0,0,0-2-.62,3.33,3.33,0,0,0-1.75.71,2.17,2.17,0,0,0-.54-.21,2.7,2.7,0,0,0-3.3,1.87l-.06.33a2.61,2.61,0,0,0-2.1,1.29c-.17.3-.36.61-.56.9l-.16.21-.29.34a5,5,0,0,0-.74,1.14,2.74,2.74,0,0,0-1.08,2.42h-.55c-3.45,0-3.46,5.37,0,5.37h19.76a2.68,2.68,0,0,0,2.26-4,2.54,2.54,0,0,0,.53-.69l0-.06a2.57,2.57,0,0,0,.63-.8,2.61,2.61,0,0,0,1.23-.35,2.44,2.44,0,0,0,.48.05,2.94,2.94,0,0,0,.87-.14,3,3,0,0,0,.76.1,2.29,2.29,0,0,0,.67.22,2.37,2.37,0,0,0,.52.35,2.75,2.75,0,0,0,.22.26l.07.07a2,2,0,0,0,.64.44,2.57,2.57,0,0,0,.16.74,2.63,2.63,0,0,0,2.44,3.58h5.76c3.45,0,3.46-5.37,0-5.37" transform="translate(-75.78 -182.02)"/><path class="cls-1" d="M384.06,412.63a2.7,2.7,0,0,0-1.8-2.25,8.37,8.37,0,0,1-5.39-7.7c-.22-3.89.1-7.87.16-11.76.06-3.46-5.32-3.46-5.37,0-.07,4.32-.83,9.4,0,13.82a2.59,2.59,0,0,0-.38.17,6.9,6.9,0,0,0-3.36,3.36h-.2a2.58,2.58,0,0,0-2.58,3,38.38,38.38,0,0,1-6.45,1.15c-2.06.19-4.12.31-6.17.49a2.45,2.45,0,0,0-1.83-.65c-2.33,0-6.07.83-8-.63a25.44,25.44,0,0,1-2.8-2.62,5.44,5.44,0,0,0-4.2-3.9l.06-.39a2.85,2.85,0,0,0-1.7-3.08,28.31,28.31,0,0,0,.85-10.13c-.32-3.41-5.7-3.45-5.37,0a24.06,24.06,0,0,1-.95,9.76,11,11,0,0,1-5,6.55h-.07c-2.08.38-2.34,2.47-1.47,3.88a2.62,2.62,0,0,0,2.82,1.44,1.07,1.07,0,0,1,.24.17c.3.28.65.49.94.79a6.15,6.15,0,0,1,1.42,2.36c.57,1.73.2,3.63.52,5.42a3.13,3.13,0,0,0,.2,1.63,2.46,2.46,0,0,0,2.26,1.93,2.92,2.92,0,0,0,.93.15,2.45,2.45,0,0,0,2-.93,2.69,2.69,0,0,0,.85-1.29c.67-2.16,1.46-4.48,4.22-3.75a5.21,5.21,0,0,1,3.78,4.46c.26,2.9,4.42,3.79,5.28.71,1.28-4.56,10.22-7.91,10.45-1,.09,2.95,4.53,3.75,5.27.72.54-2.17,1.93-4.59,4.42-4.76,2.87-.19,3.32,2.13,3.91,4.35a2.69,2.69,0,0,0,3.3,1.87c2.57-1,2.28-2.84,3-5.15a9,9,0,0,1,4-5,2.31,2.31,0,0,0,2.14-1.7,2.34,2.34,0,0,0,.14-1.41" transform="translate(-75.78 -182.02)"/><g class="cls-3"><rect class="cls-4" width="426.94" height="426.94"/></g></svg>