<svg id="Layer_1" data-name="Layer 1" xmlns="http://www.w3.org/2000/svg" viewBox="0 0 360.08 360.08"><defs><style>.cls-1{fill:#19a8e0;}.cls-2{fill:#fff;}.cls-3{opacity:0;}.cls-4{fill:#64cdf6;}</style></defs><title>trees</title><path class="cls-1" d="M223.48,313.75a6,6,0,0,1-4.16-10.33l1-1a6,6,0,0,1,8.31,8.65l-1,1A6,6,0,0,1,223.48,313.75Z" transform="translate(-96.71 -162.81)"/><path class="cls-1" d="M230.41,307.08a6,6,0,0,1-4.16-10.33l3.4-3.27a6,6,0,1,1,8.32,8.65l-3.4,3.27A6,6,0,0,1,230.41,307.08Z" transform="translate(-96.71 -162.81)"/><path class="cls-1" d="M246.13,292A6,6,0,0,1,242,281.64l3.4-3.28a6,6,0,1,1,8.32,8.65l-3.4,3.28A6,6,0,0,1,246.13,292Zm13.61-13.09a6,6,0,0,1-4.16-10.33l3.41-3.27a6,6,0,0,1,8.32,8.65l-3.41,3.27A6,6,0,0,1,259.74,278.87Zm13.62-13.1a6,6,0,0,1-4.16-10.32l3.41-3.28a6,6,0,1,1,8.31,8.65l-3.4,3.28A6,6,0,0,1,273.36,265.77ZM287,252.68a6,6,0,0,1-4.16-10.33l3.36-3.23a6,6,0,0,1,8.31,8.65L291.14,251A6,6,0,0,1,287,252.68Z" transform="translate(-96.71 -162.81)"/><path class="cls-1" d="M293.28,246.61a6,6,0,0,1-4.15-10.32l1-1a6,6,0,1,1,8.31,8.65l-1,1A6,6,0,0,1,293.28,246.61Z" transform="translate(-96.71 -162.81)"/><path class="cls-1" d="M221.73,318.45a6,6,0,0,1-4.39-10.1l1-1.05a6,6,0,1,1,8.77,8.19l-1,1.05A6,6,0,0,1,221.73,318.45Z" transform="translate(-96.71 -162.81)"/><path class="cls-1" d="M213.68,327.08a6,6,0,0,1-4.39-10.1l3-3.16A6,6,0,1,1,221,322l-2.95,3.16A6,6,0,0,1,213.68,327.08Z" transform="translate(-96.71 -162.81)"/><path class="cls-1" d="M164.74,379.52a6,6,0,0,1-4.38-10.1l2.9-3.11A6,6,0,0,1,172,374.5l-2.91,3.11A6,6,0,0,1,164.74,379.52Zm11.75-12.59a6,6,0,0,1-4.39-10.1l3-3.15a6,6,0,1,1,8.77,8.18L180.88,365A6,6,0,0,1,176.49,366.93Zm11.79-12.64a6,6,0,0,1-4.39-10.09l3-3.16a6,6,0,0,1,8.77,8.19l-2.94,3.16A6,6,0,0,1,188.28,354.29Zm11.79-12.63a6,6,0,0,1-4.39-10.09l2.95-3.16a6,6,0,1,1,8.77,8.19l-2.94,3.15A6,6,0,0,1,200.07,341.66Z" transform="translate(-96.71 -162.81)"/><path class="cls-1" d="M161.2,383.31a6,6,0,0,1-4.38-10.1l1-1a6,6,0,0,1,8.78,8.19l-1,1A6,6,0,0,1,161.2,383.31Z" transform="translate(-96.71 -162.81)"/><path class="cls-1" d="M358.65,313.75a6,6,0,0,1-4.37-1.88l-1-1.05a6,6,0,1,1,8.73-8.24l1,1.05a6,6,0,0,1-4.36,10.12Z" transform="translate(-96.71 -162.81)"/><path class="cls-1" d="M352.31,307a6,6,0,0,1-4.36-1.88l-3.09-3.27a6,6,0,0,1,8.73-8.24l3.08,3.27A6,6,0,0,1,352.31,307Z" transform="translate(-96.71 -162.81)"/><path class="cls-1" d="M338.06,291.94a6,6,0,0,1-4.36-1.88l-3.09-3.27a6,6,0,0,1,8.73-8.23l3.08,3.26a6,6,0,0,1-4.36,10.12Zm-12.34-13.07a6,6,0,0,1-4.37-1.88l-3.08-3.27a6,6,0,0,1,8.73-8.24l3.08,3.27a6,6,0,0,1-4.36,10.12Zm-12.34-13.08a6,6,0,0,1-4.37-1.88l-3.08-3.27a6,6,0,1,1,8.72-8.23l3.09,3.26a6,6,0,0,1-4.36,10.12ZM301,252.72a6,6,0,0,1-4.36-1.88l-3.05-3.23a6,6,0,0,1,8.73-8.24l3,3.23A6,6,0,0,1,301,252.72Z" transform="translate(-96.71 -162.81)"/><path class="cls-1" d="M295.31,246.66a6,6,0,0,1-4.36-1.88l-1-1.05a6,6,0,0,1,8.73-8.24l1,1a6,6,0,0,1-4.37,10.12Z" transform="translate(-96.71 -162.81)"/><path class="cls-1" d="M415.55,391.45a6,6,0,0,1-4.76-2.35l-.88-1.14a6,6,0,1,1,9.51-7.31l.88,1.14a6,6,0,0,1-4.75,9.66Z" transform="translate(-96.71 -162.81)"/><path class="cls-1" d="M409.94,384.15a6,6,0,0,1-4.76-2.34l-2.73-3.56a6,6,0,0,1,9.52-7.31l2.73,3.55a6,6,0,0,1-1.11,8.42A5.92,5.92,0,0,1,409.94,384.15Z" transform="translate(-96.71 -162.81)"/><path class="cls-1" d="M397.34,367.75a6,6,0,0,1-4.76-2.35l-2.73-3.55a6,6,0,0,1,9.51-7.31l2.73,3.55a6,6,0,0,1-4.75,9.66Zm-10.92-14.21a6,6,0,0,1-4.76-2.35l-2.73-3.55a6,6,0,0,1,9.52-7.31l2.72,3.55a6,6,0,0,1-4.75,9.66ZM375.5,339.33a6,6,0,0,1-4.76-2.35L368,333.43a6,6,0,0,1,9.52-7.31l2.73,3.55a6,6,0,0,1-4.76,9.66Zm-10.92-14.21a6,6,0,0,1-4.76-2.35l-2.69-3.5a6,6,0,0,1,9.52-7.31l2.69,3.5a6,6,0,0,1-4.76,9.66Z" transform="translate(-96.71 -162.81)"/><path class="cls-1" d="M359.53,318.54a6,6,0,0,1-4.76-2.35l-.88-1.14a6,6,0,0,1,9.51-7.31l.88,1.14a6,6,0,0,1-4.75,9.66Z" transform="translate(-96.71 -162.81)"/><path class="cls-1" d="M305.45,387.67a6,6,0,0,1-4.76-9.66l.88-1.14a6,6,0,0,1,9.52,7.3l-.88,1.15A6,6,0,0,1,305.45,387.67Z" transform="translate(-96.71 -162.81)"/><path class="cls-1" d="M310.91,380.55a6,6,0,0,1-4.75-9.66l2.65-3.45a6,6,0,0,1,9.52,7.31l-2.65,3.45A6,6,0,0,1,310.91,380.55Z" transform="translate(-96.71 -162.81)"/><path class="cls-1" d="M323.15,364.61a5.94,5.94,0,0,1-3.65-1.24,6,6,0,0,1-1.11-8.41L321,351.5a6,6,0,0,1,9.52,7.31l-2.65,3.45A6,6,0,0,1,323.15,364.61Zm10.6-13.8a6,6,0,0,1-4.76-9.66l2.65-3.45a6,6,0,1,1,9.52,7.31l-2.65,3.45A6,6,0,0,1,333.75,350.81ZM344.35,337a5.94,5.94,0,0,1-3.65-1.24,6,6,0,0,1-1.11-8.41l2.65-3.46a6,6,0,0,1,9.52,7.31l-2.65,3.45A6,6,0,0,1,344.35,337ZM355,323.2a6,6,0,0,1-4.76-9.66l2.62-3.4a6,6,0,0,1,9.52,7.3l-2.62,3.41A6,6,0,0,1,355,323.2Z" transform="translate(-96.71 -162.81)"/><path class="cls-1" d="M359.86,316.8a6,6,0,0,1-4.76-9.65L356,306a6,6,0,1,1,9.52,7.3l-.88,1.14A6,6,0,0,1,359.86,316.8Z" transform="translate(-96.71 -162.81)"/><path class="cls-2" d="M245.81,309.66a22.77,22.77,0,1,1-22.76-22.77,22.77,22.77,0,0,1,22.76,22.77" transform="translate(-96.71 -162.81)"/><path class="cls-1" d="M223.05,337.43a27.77,27.77,0,1,1,27.76-27.77A27.8,27.8,0,0,1,223.05,337.43Zm0-45.54a17.77,17.77,0,1,0,17.76,17.77A17.79,17.79,0,0,0,223.05,291.89Z" transform="translate(-96.71 -162.81)"/><path class="cls-2" d="M184.57,377.9a22.77,22.77,0,1,1-22.77-22.77,22.77,22.77,0,0,1,22.77,22.77" transform="translate(-96.71 -162.81)"/><path class="cls-1" d="M161.8,405.67a27.77,27.77,0,1,1,27.77-27.77A27.8,27.8,0,0,1,161.8,405.67Zm0-45.54a17.77,17.77,0,1,0,17.77,17.77A17.79,17.79,0,0,0,161.8,360.13Z" transform="translate(-96.71 -162.81)"/><path class="cls-2" d="M438.31,385.45a22.77,22.77,0,1,1-22.77-22.77,22.76,22.76,0,0,1,22.77,22.77" transform="translate(-96.71 -162.81)"/><path class="cls-1" d="M415.54,413.21a27.77,27.77,0,1,1,27.77-27.76A27.79,27.79,0,0,1,415.54,413.21Zm0-45.53a17.77,17.77,0,1,0,17.77,17.77A17.79,17.79,0,0,0,415.54,367.68Z" transform="translate(-96.71 -162.81)"/><path class="cls-2" d="M317.09,239.61a22.77,22.77,0,1,1-22.77-22.77,22.76,22.76,0,0,1,22.77,22.77" transform="translate(-96.71 -162.81)"/><path class="cls-1" d="M294.32,267.38a27.77,27.77,0,1,1,27.77-27.77A27.8,27.8,0,0,1,294.32,267.38Zm0-45.53a17.77,17.77,0,1,0,17.77,17.76A17.78,17.78,0,0,0,294.32,221.85Z" transform="translate(-96.71 -162.81)"/><path class="cls-2" d="M383.51,309.87a22.77,22.77,0,1,1-22.77-22.77,22.77,22.77,0,0,1,22.77,22.77" transform="translate(-96.71 -162.81)"/><path class="cls-1" d="M360.74,337.63a27.77,27.77,0,1,1,27.77-27.76A27.8,27.8,0,0,1,360.74,337.63Zm0-45.53a17.77,17.77,0,1,0,17.77,17.77A17.79,17.79,0,0,0,360.74,292.1Z" transform="translate(-96.71 -162.81)"/><path class="cls-1" d="M255.69,313.3c-1.46-.36-3.05-.76-4.68-1.24a29.82,29.82,0,0,0-17.81-25.6,2.85,2.85,0,0,0-3.18.35,3.1,3.1,0,0,0-3.47-.61,3.08,3.08,0,0,0-.14-.54c-2.19-6.17-11.13-5.86-15.76-2.83-2.53,1.66-4,4.19-5.63,6.67-2.46,3.75-5.33,4-9.6,3.72-3.7-.26-3.69,5.51,0,5.77a18.92,18.92,0,0,0,7.88-.81c-.11.25-.21.51-.31.77-.25.17-.5.33-.77.49a17.2,17.2,0,0,1-8.12,2.37c-3.7.18-3.72,5.95,0,5.77a23.75,23.75,0,0,0,7.77-1.58l.08,0a3.35,3.35,0,0,0,.07,1.69,26.11,26.11,0,0,1-7.49.83c-3.71-.11-3.71,5.66,0,5.77a30.2,30.2,0,0,0,7.92-.83,3.24,3.24,0,0,0,1.15-.05c10.85-2.49,21.41-10.18,21.75-21.62l.12.29c.1,3.41.73,6.88,3.55,9.15.54.43,1.54.71,2,1.15a5.49,5.49,0,0,1,.38,1.37,12.5,12.5,0,0,0,2.21,4.6c2.84,3.7,7.29,6.19,11.93,7.95,0,.29,0,.58.05.87a121.77,121.77,0,0,1,.18,13.51c-.2,3.72,5.57,3.7,5.77,0a113.14,113.14,0,0,0-.11-12.49c.93.26,1.84.49,2.73.7,3.61.88,5.14-4.68,1.53-5.56M218.6,288.56a3.18,3.18,0,0,0-.67-.32c-2.65-.84-5,1.35-6.88,4.05a2.82,2.82,0,0,0-1.84,1.54l-.15-.07.27-.35c1.42-2,2.45-4.45,4.59-5.81a7.17,7.17,0,0,1,3.68-1.11,11.45,11.45,0,0,1,2.41.26,2.8,2.8,0,0,0-.59,1.89,3.22,3.22,0,0,0-.82-.08" transform="translate(-96.71 -162.81)"/><path class="cls-1" d="M199.7,315.49c-2.87,2.69-6.54,2.92-10.08,4.25s-2,6.88,1.54,5.57c4.58-1.72,8.9-2.25,12.62-5.74,2.71-2.55-1.37-6.62-4.08-4.08" transform="translate(-96.71 -162.81)"/><path class="cls-1" d="M207.14,321.63a3,3,0,0,0-4.08,0c.42-.32-.44.29-.53.34-.27.17-.54.33-.82.48a7,7,0,0,1-.73.35l-.72.25a2.89,2.89,0,0,0,1.54,5.57,17.33,17.33,0,0,0,5.34-2.9,2.91,2.91,0,0,0,0-4.09" transform="translate(-96.71 -162.81)"/><path class="cls-1" d="M421.57,376.84" transform="translate(-96.71 -162.81)"/><path class="cls-1" d="M428.66,377.38h-1a3.31,3.31,0,0,0-3.38-3.09,2.84,2.84,0,0,0-3,3.09h-1a3.84,3.84,0,0,1,4-4.09A4.31,4.31,0,0,1,428.66,377.38Z" transform="translate(-96.71 -162.81)"/><path class="cls-1" d="M436.82,374.2h-3.31a5.17,5.17,0,0,0-.11-.54,3.2,3.2,0,0,0-.29-2,6.46,6.46,0,0,0-1.87-2.22,8.4,8.4,0,0,0-1.34-1,4.18,4.18,0,0,0-2.56-.43,2.66,2.66,0,0,0-1.47-.53,2.81,2.81,0,0,0-2-1.37,3,3,0,0,0-2.55-1.6l-4.29-.38A2.57,2.57,0,0,0,415,365c-.74-.07-1.49,0-2.23,0a2.76,2.76,0,0,0-1.62.49,2.83,2.83,0,0,0-2.16-.66,3.47,3.47,0,0,0-1.87.76,3.34,3.34,0,0,0-.58-.23,2.92,2.92,0,0,0-3.55,2l-.06.35a2.8,2.8,0,0,0-2.26,1.38c-.19.33-.39.66-.6,1l-.18.23-.3.36a5.78,5.78,0,0,0-.81,1.23,3,3,0,0,0-1.16,2.6H397c-3.71,0-3.72,5.77,0,5.77h21.22a2.89,2.89,0,0,0,2.44-4.34,2.72,2.72,0,0,0,.56-.75l.05-.06a2.45,2.45,0,0,0,.67-.86,2.61,2.61,0,0,1,1.85-.32,3,3,0,0,1,1.74,0,2.77,2.77,0,0,0,.72.24,2.47,2.47,0,0,0,.56.37,2.09,2.09,0,0,0,.24.28l.07.07a2.32,2.32,0,0,0,.69.48,3.47,3.47,0,0,0,.17.79,2.83,2.83,0,0,0,2.62,3.85h6.19c3.71,0,3.72-5.77,0-5.77" transform="translate(-96.71 -162.81)"/><path class="cls-1" d="M157.22,399.91c-1.54-.91-3.39-1.48-4.9-2.2l-.29-.13a3,3,0,0,0,.18-1.11c-.11-4.42-.67-9-3.67-12.32a11,11,0,0,0,.66-7.43c-.37-1.43-1.16-3.85-2.34-4.86l-.09-.18a7.31,7.31,0,0,0,1.32-2.47,12.93,12.93,0,0,0,.44-8.81,3,3,0,0,0,1-1.22A2.74,2.74,0,0,0,151,360a4.75,4.75,0,0,0,2.65-.07,3.15,3.15,0,0,0,.62.58c2.55,1.8,5.45,3.39,8.68,2.7a7.59,7.59,0,0,0,5.12-4c-.42,2.34-.62,5.18,1.19,6.78a8.36,8.36,0,0,0,3.15,1.51,15.41,15.41,0,0,0,2.22.48c-.53,2.05-.86,3.94.41,6.22a7.41,7.41,0,0,0,6.89,3.67,1.2,1.2,0,0,0,.2,0,15.51,15.51,0,0,0,4.06,8.17,2.46,2.46,0,0,0-1.44,1.77l-.37,1.8a2.2,2.2,0,0,0-.73.57,12.71,12.71,0,0,0-2.47,4.27H181a2.8,2.8,0,0,0-2.78,2.81c-.2.21-.39.42-.57.65a2.24,2.24,0,0,0-2.87.77,18.69,18.69,0,0,1-1.54,1.75l-.16,0a4.26,4.26,0,0,0-2.85,1.13c-1-2.51-5.51-2.13-5.57,1.15-.12,5.6,6.22,11.84,11.62,12.54,4.39.58,10.69-1,12.67-5.07,4.66.57,9.59.32,13.09-3.19a12,12,0,0,0,2-13.77l-.3-.54a8.21,8.21,0,0,0,2.61-2,10.27,10.27,0,0,0,2.7-6.52,15.88,15.88,0,0,0-2.39-8.57,30.82,30.82,0,0,0-2.68-3.95c-.56-.72-1.5-1.54-2.2-2.36A16.26,16.26,0,0,0,203,367a12.18,12.18,0,0,0,.61-3.54,13.18,13.18,0,0,0-2-7.3c-2.89-4.58-8.47-6.84-13.74-6.78a14.84,14.84,0,0,1-1.75.12l-.41,0c0-.06,0-.16-.16-.31a24.34,24.34,0,0,0-2.25-2.73,11.25,11.25,0,0,0-6.71-2.85,9.5,9.5,0,0,0-9,5.22c-1.25-3.55-3.91-6.25-8.55-6a9,9,0,0,0-7,4.14,10.19,10.19,0,0,0-1.38,3.56c-.95-.26-2.34-1.09-3-1.29a15.79,15.79,0,0,0-5.83-.7,11.91,11.91,0,0,0-9.19,5.29c-2.33,3.79-.2,6.72,1.85,10,.44.71,1.61,2.22,1.54,3.15s-1.13,1.49-2,2.11c-2.15,1.6-4.31,3.18-6.44,4.78-3,2.28-5.35,4.82-4.94,8.86s3.44,7.48,2,11.82c-1.26,3.89-5.48,4.91-7.88,7.9a7.27,7.27,0,0,0,0,9.69c3,3.27,7.37,3.22,11.49,3.07a26.56,26.56,0,0,0,5-.5,7.44,7.44,0,0,0,4.88,5.18,10.87,10.87,0,0,0,6.58.1,12.71,12.71,0,0,0,1.69-.63h0a2.7,2.7,0,0,0,2.07.87,3.11,3.11,0,0,0,.84-.11l.29,0a2.64,2.64,0,0,0,2.16-1,7.24,7.24,0,0,0,1.43-1.28,6,6,0,0,0,2.94-1.4,4.73,4.73,0,0,0,1.3-1.91,2.6,2.6,0,0,0,.4-.1,5.64,5.64,0,0,0,2.54-1.78,6.92,6.92,0,0,0,1.5-4.27,10.44,10.44,0,0,0,.36-9.5,2.62,2.62,0,0,0-.88-1.1m-19.76-22c-.15,2-.29,4.13-1.91,5.49a2.05,2.05,0,0,0-.34.38,6.34,6.34,0,0,0-1.34-2.59,3.19,3.19,0,0,0-.6-5.29,13.89,13.89,0,0,0,3.1-2.84,6.33,6.33,0,0,0,1.23,4.11,3.59,3.59,0,0,0-.14.74m1.2-9.3a8.41,8.41,0,0,1-1.18,2,5.88,5.88,0,0,0,0-2.14,10.7,10.7,0,0,0-.48-1.81,5.81,5.81,0,0,0,2-.34,7.25,7.25,0,0,1-.39,2.26m1.81,26.6c-.11-.1-.21-.22-.32-.32a20.13,20.13,0,0,1,1-2.79,13.36,13.36,0,0,1,.9,4.38,15.85,15.85,0,0,1-1.57-1.27m12.39-37.56a3.46,3.46,0,0,0-.68-.36c0-.27-.06-.53-.09-.8a5.84,5.84,0,0,0,.5-1l.06,0,3,1.83a2.88,2.88,0,0,0,2.79,0c0,.09,0,.17,0,.25a2.93,2.93,0,0,0,.19,1.22c-1.21,2.09-4.38-.3-5.72-1.25m11.67,1.21a2.3,2.3,0,0,0-.37-1.14s0,0,0,0v-.05a3.44,3.44,0,0,0,1.9-.17,3.16,3.16,0,0,0,.17.52,2.38,2.38,0,0,0-1.71.88m12.21,11.06c-.13-.07-.27-.12-.41-.18a3.94,3.94,0,0,0-.37-3.46,4.37,4.37,0,0,0-3.58-1.7c-.8-.07-2.1,0-2.76-.48s-.31-1.25-.05-2.53a2.93,2.93,0,0,0,0-1.1c1.79.76,3.68,1.24,5.5,1.88a2.11,2.11,0,0,0,.16.34,37.48,37.48,0,0,1,3.64,9c0,.16.09.32.13.48a6.35,6.35,0,0,0-2.29-2.2" transform="translate(-96.71 -162.81)"/><path class="cls-1" d="M317.14,234.56c-.66-.22-1.33-.42-2-.62a3.25,3.25,0,0,0-1.09-2.59c0-.1-.07-.2-.11-.29s.09-.11.13-.16c1.8-2.5-.58-5.61-2.18-7.53a15.6,15.6,0,0,0-1.75-1.79A10.15,10.15,0,1,0,298,217.31a1.7,1.7,0,0,0-.38.26,2.8,2.8,0,0,0-4.82,0l-.13.15a2.67,2.67,0,0,0-2.34.17c-2.11,1.18-4.26,2.3-6.31,3.57-1.81,1.11-3.45,3.14-5.51,3.7a2.61,2.61,0,0,0-2,2.42l-1.9,0c-2.74-.05-3.46,3.07-2.15,4.74-1.45,1.78-.8,5,2,4.68,5.91-.73,11.62-2.38,16.39-6.06a23.55,23.55,0,0,0,5.58-5.86,11.82,11.82,0,0,0,3.28,7.95,2.63,2.63,0,0,0,.88,1.25c3,4.08,8.79,6.39,13.47,7.32a2.89,2.89,0,0,0,3.07-1.29c2.46-.5,3.12-4.7.11-5.66" transform="translate(-96.71 -162.81)"/><path class="cls-1" d="M382.47,302.45c-.92-.41-2-.79-3.09-1.21a3.4,3.4,0,0,0-.31-1.89,30.2,30.2,0,0,0-2.72-5.31l-.2-.24a15.59,15.59,0,0,0-.78-1.73,2.75,2.75,0,0,0-2.22-1.39,3.1,3.1,0,0,0-3.58-.55,2.86,2.86,0,0,0-4-1.57,2.87,2.87,0,0,0-3.44-1.78l-1.09.27a2.55,2.55,0,0,0-1.91,1.72,3.32,3.32,0,0,0-1.67.65c-.33.25-.64.52-1,.78a2.78,2.78,0,0,0-1,.22c-4.08,1.66-8.34,3.39-11.38,6.73-1.71,1.9-4,5.53-3.7,8.47a24.06,24.06,0,0,1-2.42-.06c-3.71-.3-3.69,5.47,0,5.77s7.58-.56,11.24-1.31a38,38,0,0,0,10.23-3.47,19.27,19.27,0,0,0,8.93-9.59c0,.07,0,.14.05.22,0,7.13,5.69,11.37,12.57,11.82,2.11.14,3-1.66,2.73-3.29a2.34,2.34,0,0,0-1.26-3.26" transform="translate(-96.71 -162.81)"/><path class="cls-2" d="M328.22,381.67a22.77,22.77,0,1,1-22.77-22.77,22.77,22.77,0,0,1,22.77,22.77" transform="translate(-96.71 -162.81)"/><path class="cls-1" d="M305.45,409.43a27.77,27.77,0,1,1,27.77-27.76A27.8,27.8,0,0,1,305.45,409.43Zm0-45.53a17.77,17.77,0,1,0,17.77,17.77A17.79,17.79,0,0,0,305.45,363.9Z" transform="translate(-96.71 -162.81)"/><path class="cls-1" d="M311.48,373.06" transform="translate(-96.71 -162.81)"/><path class="cls-1" d="M318.57,373.6h-1a3.32,3.32,0,0,0-3.39-3.09,2.84,2.84,0,0,0-3,3.09h-1a3.84,3.84,0,0,1,4-4.09A4.31,4.31,0,0,1,318.57,373.6Z" transform="translate(-96.71 -162.81)"/><path class="cls-1" d="M326.72,370.42h-3.31a3.45,3.45,0,0,0-.11-.54,3.26,3.26,0,0,0-.28-2,6.6,6.6,0,0,0-1.88-2.22,8.4,8.4,0,0,0-1.34-1,4.16,4.16,0,0,0-2.56-.43,2.63,2.63,0,0,0-1.47-.53,2.79,2.79,0,0,0-2-1.37,3.06,3.06,0,0,0-2.55-1.6l-4.3-.38a2.58,2.58,0,0,0-2.05.86c-.74-.07-1.48,0-2.22,0a2.73,2.73,0,0,0-1.62.49,2.83,2.83,0,0,0-2.16-.66,3.5,3.5,0,0,0-1.88.76,2.68,2.68,0,0,0-.58-.22,2.91,2.91,0,0,0-3.55,2l-.06.35a2.78,2.78,0,0,0-2.25,1.38,10.59,10.59,0,0,1-.61,1l-.17.23-.31.36a5.72,5.72,0,0,0-.8,1.23,3,3,0,0,0-1.16,2.6h-.58c-3.72,0-3.72,5.77,0,5.77h21.22a2.88,2.88,0,0,0,2.43-4.34,3,3,0,0,0,.57-.75s0,0,0-.05a2,2,0,0,1,2-1.24,2.87,2.87,0,0,0,.52,0,3,3,0,0,1,1.74,0,2.72,2.72,0,0,0,.73.24,2.65,2.65,0,0,0,.55.37l.24.28.08.07a2.28,2.28,0,0,0,.68.48,3,3,0,0,0,.18.79,2.82,2.82,0,0,0,2.62,3.85h6.18c3.72,0,3.72-5.77,0-5.77" transform="translate(-96.71 -162.81)"/><path class="cls-1" d="M338.46,405.28a2.9,2.9,0,0,0-1.93-2.41,9,9,0,0,1-5.8-8.28c-.23-4.17.11-8.45.18-12.63.06-3.72-5.72-3.72-5.78,0-.07,4.64-.88,10.09,0,14.84l-.41.19a7.49,7.49,0,0,0-3.61,3.61h-.21a2.77,2.77,0,0,0-2.77,3.2,40.46,40.46,0,0,1-6.93,1.23c-2.21.21-4.42.34-6.62.54a2.7,2.7,0,0,0-2-.71c-2.51,0-6.52.89-8.54-.67a28.45,28.45,0,0,1-3-2.82,5.83,5.83,0,0,0-4.5-4.18l.06-.43a3.07,3.07,0,0,0-1.83-3.3,30.51,30.51,0,0,0,.92-10.89c-.35-3.67-6.13-3.7-5.78,0a25.82,25.82,0,0,1-1,10.48,11.7,11.7,0,0,1-5.41,7h-.08c-2.23.41-2.51,2.65-1.57,4.18a2.8,2.8,0,0,0,3,1.54.94.94,0,0,1,.26.18c.32.3.7.53,1,.85a6.68,6.68,0,0,1,1.53,2.54c.61,1.85.21,3.89.56,5.82a3.26,3.26,0,0,0,.21,1.75,2.64,2.64,0,0,0,2.43,2.07,3.07,3.07,0,0,0,1,.16,2.61,2.61,0,0,0,2.17-1,2.84,2.84,0,0,0,.91-1.38c.72-2.32,1.58-4.81,4.54-4a5.58,5.58,0,0,1,4.06,4.79c.27,3.12,4.74,4.07,5.67.77,1.37-4.9,11-8.51,11.22-1.11.11,3.17,4.87,4,5.67.77.58-2.33,2.07-4.92,4.74-5.11,3.1-.21,3.57,2.28,4.2,4.67a2.91,2.91,0,0,0,3.55,2c2.76-1.11,2.46-3.06,3.2-5.54a9.56,9.56,0,0,1,4.26-5.41,2.44,2.44,0,0,0,2.29-1.82,2.48,2.48,0,0,0,.16-1.52" transform="translate(-96.71 -162.81)"/><g class="cls-3"><rect class="cls-4" width="360.08" height="360.08"/></g></svg>